<svg width="25" height="24" viewBox="0 0 25 24" version="1.1" xmlns="http://www.w3.org/2000/svg" xmlns:xlink="http://www.w3.org/1999/xlink">
<g id="Canvas" transform="translate(85055 -39215)">
<g id="Fill 1">
<use xlink:href="#path0_fill" transform="matrix(-1.83697e-16 1 -1 -1.83697e-16 -85030.5 39215.1)" fill="#666666"/>
</g>
</g>
<defs>
<path id="path0_fill" fill-rule="evenodd" d="M 18.3025 16.3955L 23.7037 18.0887L 23.7037 16.6178C 23.7037 16.3403 23.5806 16.0627 23.3336 15.8959L 14.3213 9.04076L 13.5497 1.51951C 13.5185 1.29776 13.4259 1.07546 13.241 0.908933L 12.6855 0.353859C 12.2225 -0.117953 11.4198 -0.117953 10.9568 0.353859L 10.4012 0.908933C 10.216 1.07546 10.1235 1.29776 10.0926 1.51951L 9.32099 9.04076L 0.37037 15.8684C 0.123765 16.0627 0 16.3122 0 16.5898L 0 18.0607L 5.4321 16.3403L 7.03704 15.8404L 9.78395 14.9801L 10.1852 20.8361L 7.96296 23.0286C 7.87037 23.1119 7.80864 23.2507 7.80864 23.3894L 7.80864 24L 11.8827 22.7511L 15.8951 24L 15.8951 23.4174C 15.8951 23.2787 15.8333 23.1674 15.7407 23.0564L 13.5185 20.8641L 13.9201 15.0078L 16.6978 15.8959L 18.3025 16.3955Z"/>
</defs>
</svg>
