<?xml version="1.0" encoding="UTF-8" standalone="no"?>
<svg width="32px" height="32px" viewBox="0 0 32 32" version="1.1" xmlns="http://www.w3.org/2000/svg" xmlns:xlink="http://www.w3.org/1999/xlink">
    <!-- Generator: Sketch 48.2 (47327) - http://www.bohemiancoding.com/sketch -->
    <title>exclamation icon</title>
    <desc>Created with Sketch.</desc>
    <defs>
        <polygon id="path-1" points="16.0001 0 32 0 32 32 16.0001 32 0.0002 32 0.0002 0"></polygon>
    </defs>
    <g id="Homepage-time-out-modal-Copy-2" stroke="none" stroke-width="1" fill="none" fill-rule="evenodd" transform="translate(-476.000000, -345.000000)">
        <g id="Group-4" transform="translate(460.000000, 329.000000)">
            <g id="exclamation-icon" transform="translate(16.000000, 16.000000)">
                <g id="Group-3">
                    <mask id="mask-2" fill="white">
                        <use xlink:href="#path-1"></use>
                    </mask>
                    <g id="Clip-2"></g>
                    <path d="M16.0012,30 C8.2802,30 2.0002,23.718 2.0002,15.998 C2.0002,8.279 8.2802,2 16.0012,2 C23.7202,2 30.0002,8.279 30.0002,15.998 C30.0002,23.718 23.7202,30 16.0012,30 M16.0012,32 C24.8372,32 32.0002,24.834 32.0002,15.998 C32.0002,7.161 24.8372,0 16.0012,0 C7.1652,0 0.0002,7.161 0.0002,15.998 C0.0002,24.834 7.1652,32 16.0012,32" id="Fill-1" fill="#CD202C" mask="url(#mask-2)"></path>
                </g>
                <path d="M14,24 C14,22.8963532 14.8963532,22 16,22 C17.1036468,22 18,22.8963532 18,24 C18,25.1036468 17.1036468,26 16,26 C14.8963532,26 14,25.1036468 14,24 Z M14,19 L17,19 L17,7 L14,7 L14,19 Z" id="Fill-4" fill="#CD202C"></path>
            </g>
        </g>
    </g>
</svg>