<?xml version="1.0" encoding="UTF-8"?>
<svg width="35px" height="16px" viewBox="0 0 35 16" version="1.1" xmlns="http://www.w3.org/2000/svg" xmlns:xlink="http://www.w3.org/1999/xlink">
    <!-- Generator: Sketch 46.2 (44496) - http://www.bohemiancoding.com/sketch -->
    <title>Icon Car</title>
    <desc>Created with Sketch.</desc>
    <defs></defs>
    <g id="01-Desktop-" stroke="none" stroke-width="1" fill="none" fill-rule="evenodd">
        <g id="07-Booker---Expanded" transform="translate(-342.000000, -238.000000)">
            <g id="BOOKER-BIG" transform="translate(112.000000, 128.000000)">
                <g id="Subnavigation" transform="translate(48.000000, 105.000000)">
                    <g id="Icon-Car" transform="translate(182.000000, 5.000000)">
                        <path d="M8.26107788,5 L13.1500578,0.524743836 L13.1500578,0.524743836 C13.5187974,0.187208333 14.0005732,5.35919188e-16 14.5004723,4.4408921e-16 L22.8250745,0 L22.8250745,-4.6629367e-15 C23.338633,-4.75727588e-15 23.8325119,0.197553827 24.2043963,0.551735119 L28.875,5 L29.7,10 L11.8242303,10 L8.26107788,5 Z" id="Combined-Shape" fill="#001D48"></path>
                        <path d="M0.0146438049,5.49978551 L34.1441284,4.49978551 L33.6294846,4 L33.6294846,5 L34.1148408,4.50021449 L-0.0146438049,5.50021449 L0.5,6 L0.5,5 L0.0146438049,5.49978551 Z" id="Rectangle-5" stroke="#FFFFFF"></path>
                        <path d="M1.9412019,5.94290583 L31.9412019,5.06055289 L31.9412019,5.06055289 C33.045294,5.02807959 33.9666622,5.89679824 33.9991355,7.00089029 C33.9997118,7.02048436 34,7.04008585 34,7.05968839 L34,12 L0,12 L0,7.94204134 L4.4408921e-16,7.94204134 C3.11622423e-16,6.86036793 0.85999604,5.974706 1.9412019,5.94290583 Z" id="Rectangle-4" fill="#001D48"></path>
                        <circle id="Oval-10" stroke="#FFFFFF" fill="#001D48" cx="6.6" cy="12" r="3"></circle>
                        <circle id="Oval-10-Copy" stroke="#FFFFFF" fill="#001D48" cx="27.45" cy="12" r="3"></circle>
                    </g>
                </g>
            </g>
        </g>
    </g>
</svg>