<svg xmlns="http://www.w3.org/2000/svg" xmlns:xlink="http://www.w3.org/1999/xlink" viewBox="0 0 153.36 129.14"><defs><clipPath id="a"><rect y="3.21" width="113" height="88.79" style="fill:none"/></clipPath><clipPath id="e" transform="translate(20.18 16.96)"><polygon points="36.32 92 42.63 92 68.61 51.64 46.79 51.64 36.32 92 36.32 92" style="fill:none;clip-path:url(#a);clip-rule:evenodd"/></clipPath><clipPath id="f" transform="translate(20.18 16.96)"><polygon points="36.32 3.21 42.63 3.21 68.61 43.57 52.23 43.57 46.79 43.57 36.32 3.21 36.32 3.21" style="fill:none;clip-path:url(#a);clip-rule:evenodd"/></clipPath><clipPath id="g" transform="translate(20.18 16.96)"><polygon points="23.68 44.15 6.46 31.24 0 31.24 10.76 47.38 0 63.53 6.46 63.53 23.68 50.61 32.29 50.61 27.98 47.38 32.29 44.15 23.68 44.15 23.68 44.15" style="fill:none;clip-path:url(#a);clip-rule:evenodd"/></clipPath><clipPath id="h" transform="translate(20.18 16.96)"><rect x="40.36" y="35.5" width="40.36" height="4.04" style="fill:none"/></clipPath><clipPath id="i" transform="translate(20.18 16.96)"><rect x="40.36" y="55.68" width="40.36" height="4.04" style="fill:none"/></clipPath><clipPath id="j" transform="translate(20.18 16.96)"><path d="M12.11,39.54h92.82A8.07,8.07,0,0,1,113,47.61h0a8.07,8.07,0,0,1-8.07,8.07H12.11V39.54Z" style="fill:none;clip-path:url(#a);clip-rule:evenodd"/></clipPath></defs><title>plane</title><g style="clip-path:url(#e)"><rect x="36.32" y="48.43" width="72.64" height="80.71" style="fill:#001b45"/></g><g style="clip-path:url(#f)"><rect x="36.32" width="72.64" height="80.71" style="fill:#001b45"/></g><g style="clip-path:url(#g)"><rect y="28.03" width="72.64" height="72.64" style="fill:#001b45"/></g><g style="clip-path:url(#h)"><rect x="40.36" y="32.29" width="80.71" height="44.39" style="fill:#fff"/></g><g style="clip-path:url(#i)"><rect x="40.36" y="52.46" width="80.71" height="44.39" style="fill:#fff"/></g><g style="clip-path:url(#j)"><rect x="12.11" y="36.32" width="141.25" height="56.5" style="fill:#001b45"/></g></svg>