<?xml version="1.0" encoding="UTF-8"?>
<svg width="21px" height="19px" viewBox="0 0 21 19" version="1.1" xmlns="http://www.w3.org/2000/svg" xmlns:xlink="http://www.w3.org/1999/xlink">
    <!-- Generator: Sketch 46.2 (44496) - http://www.bohemiancoding.com/sketch -->
    <title>Icon Vacation</title>
    <desc>Created with Sketch.</desc>
    <defs></defs>
    <g id="01-Desktop-" stroke="none" stroke-width="1" fill="none" fill-rule="evenodd">
        <g id="07-Booker---Expanded" transform="translate(-507.000000, -236.000000)">
            <g id="BOOKER-BIG" transform="translate(112.000000, 128.000000)">
                <g id="Subnavigation" transform="translate(48.000000, 105.000000)">
                    <g id="Icon-Vacation" transform="translate(347.000000, 0.000000)">
                        <g id="Group" transform="translate(12.940345, 11.598506) rotate(30.000000) translate(-12.940345, -11.598506) translate(6.440345, 2.098506)">
                            <path d="M0.00493418425,8.90399993 C0.00165498407,8.82040812 -7.10542736e-14,8.73639783 -7.10542736e-14,8.65199993 C-7.10542736e-14,5.17260604 2.81279274,2.35199998 6.28254843,2.35199998 C9.75230412,2.35199998 12.5650969,5.17260604 12.5650969,8.65199993 C12.5650969,8.73639783 12.5634419,8.82040812 12.5601627,8.90399993 L0.00493418425,8.90399993 Z" id="Combined-Shape" stroke="#001D48" stroke-width="2" fill="#001D48"></path>
                            <rect id="Rectangle-17" fill="#001D48" x="5.7851523" y="8.39999994" width="1" height="10.6000001"></rect>
                            <rect id="Rectangle-16" fill="#001D48" x="5.87999996" y="5.5067062e-14" width="1" height="2.51999998"></rect>
                            <rect id="Rectangle-8" stroke="#FFFFFF" x="2.10529545" y="10.4028133" width="9" height="1"></rect>
                        </g>
                        <path d="M0.0911428181,22 C0.715009525,20.3038529 4.46596469,19 9,19 C13.5340353,19 17.2849905,20.3038529 17.9088572,22 L0.0911428181,22 Z" id="Oval-3" fill="#001D48"></path>
                    </g>
                </g>
            </g>
        </g>
    </g>
</svg>