<?xml version="1.0" encoding="UTF-8" standalone="no"?>
<svg width="107px" height="44px" viewBox="0 0 107 44" version="1.1" xmlns="http://www.w3.org/2000/svg" xmlns:xlink="http://www.w3.org/1999/xlink">
    <!-- Generator: Sketch 48.2 (47327) - http://www.bohemiancoding.com/sketch -->
    <title>Trip icon</title>
    <desc>Created with Sketch.</desc>
    <defs>
        <path d="M57.540456,11.4555029 L61.2378876,12.7430332 L61.2378876,11.6245427 C61.2378876,11.4135068 61.1535861,11.2024708 60.9845607,11.0756382 L54.815132,5.86305063 L54.2869275,0.14397678 C54.265588,-0.0246409324 54.2022035,-0.193680717 54.0756457,-0.320302278 L53.6953384,-0.742374149 C53.3784157,-1.10113524 52.8288717,-1.10113524 52.511949,-0.742374149 L52.1316418,-0.320302278 C52.0048727,-0.193680717 51.9414882,-0.0246409324 51.92036,0.14397678 L51.3921555,5.86305063 L45.2649831,11.0547457 C45.096169,11.2024708 45.011445,11.3921921 45.011445,11.6032281 L45.011445,12.7217185 L48.7300047,11.4135068 L49.8286701,11.0334311 L51.7090782,10.3792197 L51.9837445,14.8320779 L50.4625155,16.4992618 C50.399131,16.5625726 50.3568746,16.6680905 50.3568746,16.7736085 L50.3568746,17.2378876 L53.1457944,16.2882258 L55.8924579,17.2378876 L55.8924579,16.7949231 C55.8924579,16.6894052 55.8502015,16.6047797 55.786817,16.5203654 L54.265588,14.8533925 L54.5404656,10.4003232 L56.4420019,11.0756382 L57.540456,11.4555029 Z" id="path-1"></path>
    </defs>
    <g id="Tablet-Landscape-" stroke="none" stroke-width="1" fill="none" fill-rule="evenodd" transform="translate(-690.000000, -287.000000)">
        <g id="Group-2" transform="translate(416.000000, 113.000000)">
            <g id="Trip-icon" transform="translate(275.000000, 177.000000)">
                <path d="M0,40 C9.01054834,18.6666667 26.5401531,8 52.5888142,8 C78.6374754,8 96.1078706,18.6666667 105,40" id="Path-2" stroke="#FFFFFF" stroke-width="2" stroke-dasharray="2,3"></path>
                <g id="Fill-1" transform="translate(53.124666, 8.113221) rotate(-270.000000) translate(-53.124666, -8.113221) ">
                    <use fill="#FFFFFF" fill-rule="evenodd" xlink:href="#path-1"></use>
                    <path d="M52.7639503,14.8336714 L52.7292905,15.3951676 L53.1149393,15.8177641 L53.5200122,15.3738263 L53.4857668,14.8186442 L53.1495107,14.7023833 L52.7639503,14.8336714 Z M54.3924579,17.2176775 L54.410901,17.2378876 L54.4812633,17.2378876 C54.4278584,17.1157132 54.3924579,16.9670932 54.3924579,16.7949231 L54.3924579,17.2176775 Z M55.0005514,17.2378876 L55.786817,16.5203654 L54.8312341,17.2378876 L55.0005514,17.2378876 Z M54.8312341,17.2378876 L54.5873203,17.421036 C54.5482478,17.369 54.5118103,17.3077699 54.4812633,17.2378876 L54.8312341,17.2378876 Z M51.7525227,17.2378876 L51.8173722,17.2378876 L51.8568746,17.1946552 L51.8568746,16.7736085 C51.8568746,16.9327394 51.8226527,17.0903047 51.7525227,17.2378876 Z M46.511445,11.9644133 L46.511445,11.6032281 C46.511445,11.8243462 46.4097992,12.0461721 46.2527884,12.1835684 L46.511445,11.9644133 Z M53.3920076,0.520080453 L53.4005375,0.427724562 C53.3942123,0.430575048 53.3878475,0.4333279 53.3814456,0.435983057 C53.3545626,0.521069348 53.3127859,0.59989552 53.2514473,0.675075016 L53.3920076,0.520080453 Z M53.2514473,0.675075016 C53.2332823,0.697338942 53.2134017,0.719283051 53.1916843,0.740975219 L53.2514491,0.675073068 Z M52.8198047,0.43083364 C52.815647,0.429040612 52.8115035,0.427206676 52.8073747,0.425331817 L52.8163733,0.522923653 L52.9274196,0.64619567 C52.8808524,0.587501595 52.8429474,0.509326865 52.8198047,0.43083364 Z M52.9274196,0.64619567 L52.9612856,0.683790212 C52.9495785,0.672476538 52.9382642,0.659864352 52.9274196,0.64619567 Z M59.7378876,11.9860373 L59.9609767,12.1745267 C59.8233868,12.0416564 59.7378876,11.8262611 59.7378876,11.6245427 L59.7378876,11.9860373 Z M59.9609767,12.1745267 L60.0164807,12.2214224 C59.9971685,12.2072871 59.9786442,12.1915879 59.9609786,12.1745283 Z M57.0486624,12.872592 L55.9400066,12.4891448 L55.9149322,12.4802398 L55.8018855,14.3116175 L56.8948066,15.5092476 L56.9863137,15.6196947 C57.2368749,15.9533876 57.3924579,16.3312362 57.3924579,16.7949231 L57.3924579,19.3436415 L53.1420782,17.8740684 L48.8568746,19.3332332 L48.8568746,16.7736085 C48.8568746,16.2825341 49.0477426,15.792302 49.3544622,15.4882139 L50.4474769,14.2903295 L50.3337072,12.4459098 L50.3190692,12.4510025 L49.2278064,12.8284957 L43.511445,14.8395461 L43.511445,11.6032281 C43.511445,10.9552135 43.7862294,10.35554 44.2952902,9.91032639 L49.9549678,5.11475044 L50.4319986,-0.0425182646 C50.4940769,-0.537946483 50.698205,-1.00861996 51.0172818,-1.32439477 L51.3877658,-1.73545621 C52.3017573,-2.77010789 53.9055301,-2.77010789 54.8096984,-1.74646664 L55.1365729,-1.3806953 C55.5088718,-1.00820884 55.7124959,-0.538697483 55.7805706,0.00602629443 L56.2523231,5.11387345 L61.8848492,9.87585468 C62.4462332,10.2971036 62.7378876,10.953565 62.7378876,11.6245427 L62.7378876,14.8537104 L57.0486624,12.872592 Z"></path>
                </g>
            </g>
        </g>
    </g>
</svg>
