<?xml version="1.0" encoding="UTF-8"?>
<svg width="28px" height="15px" viewBox="0 0 28 15" version="1.1" xmlns="http://www.w3.org/2000/svg" xmlns:xlink="http://www.w3.org/1999/xlink">
    <!-- Generator: Sketch 46.2 (44496) - http://www.bohemiancoding.com/sketch -->
    <title>Icon Hotel</title>
    <desc>Created with Sketch.</desc>
    <defs>
        <path d="M13.625,7.875 L14.625,7.875 L14.625,5.5 L14.625,5.5 C14.625,4.94771525 15.0727153,4.5 15.625,4.5 L20.375,4.5 C20.9272847,4.5 21.375,4.94771525 21.375,5.5 L21.375,7.875 L22.5,7.875 C23.6045695,7.875 24.5,8.7704305 24.5,9.875 L24.5,11.875 L3.5,11.875 L3.5,9.875 C3.5,8.7704305 4.3954305,7.875 5.5,7.875 L5.5,7.875 L6.875,7.875 L6.875,5.5 L6.875,5.5 C6.875,4.94771525 7.32271525,4.5 7.875,4.5 L12.625,4.5 C13.1772847,4.5 13.625,4.94771525 13.625,5.5 L13.625,7.875 Z" id="path-1"></path>
        <path d="M2,11 L26,11 L26,11 C27.1045695,11 28,11.8954305 28,13 L28,18 L0,18 L0,13 L0,13 C-1.3527075e-16,11.8954305 0.8954305,11 2,11 Z" id="path-2"></path>
    </defs>
    <g id="01-Desktop-" stroke="none" stroke-width="1" fill="none" fill-rule="evenodd">
        <g id="07-Booker---Expanded" transform="translate(-265.000000, -239.000000)">
            <g id="BOOKER-BIG" transform="translate(112.000000, 128.000000)">
                <g id="Subnavigation" transform="translate(48.000000, 105.000000)">
                    <g id="Icon-Hotel" transform="translate(105.000000, 3.000000)">
                        <g id="Combined-Shape">
                            <use fill="#001D48" fill-rule="evenodd" xlink:href="#path-1"></use>
                            <path stroke="#FFFFFF" stroke-width="1" d="M14.125,5.5 C14.125,4.67157288 14.7965729,4 15.625,4 L20.375,4 C21.2034271,4 21.875,4.67157288 21.875,5.5 L21.875,7.375 L22.5,7.375 C23.8807119,7.375 25,8.49428813 25,9.875 L25,12.375 L3,12.375 L3,9.875 C3,8.49428813 4.11928813,7.375 5.5,7.375 L6.375,7.375 L6.375,5.5 C6.375,4.67157288 7.04657288,4 7.875,4 L12.625,4 C13.4534271,4 14.125,4.67157288 14.125,5.5 Z"></path>
                        </g>
                        <g id="Rectangle-43">
                            <use fill="#001D48" fill-rule="evenodd" xlink:href="#path-2"></use>
                            <path stroke="#FFFFFF" stroke-width="1" d="M0.5,17.5 L27.5,17.5 L27.5,13 C27.5,12.1715729 26.8284271,11.5 26,11.5 L2,11.5 C1.17157288,11.5 0.5,12.1715729 0.5,13 L0.5,17.5 Z"></path>
                        </g>
                    </g>
                </g>
            </g>
        </g>
    </g>
</svg>