<?xml version="1.0" encoding="UTF-8" standalone="no"?>
<svg width="18px" height="14px" viewBox="0 0 18 14" version="1.1" xmlns="http://www.w3.org/2000/svg" xmlns:xlink="http://www.w3.org/1999/xlink">
    <!-- Generator: Sketch 48.2 (47327) - http://www.bohemiancoding.com/sketch -->
    <title>Shape</title>
    <desc>Created with Sketch.</desc>
    <defs></defs>
    <g id="Display-one-reservations-ready-for-check-in---1-stop" stroke="none" stroke-width="1" fill="none" fill-rule="evenodd" transform="translate(-922.000000, -518.000000)">
        <g id="RIGHT-SIDE-Copy" transform="translate(662.000000, 127.000000)" fill="#FFFFFF" fill-rule="nonzero">
            <g id="Amentities" transform="translate(95.000000, 364.000000)">
                <path d="M175.539634,39.3666667 C175.539634,40.2708333 174.796883,41 173.905582,41 C173.014281,41 172.271531,40.2708333 172.271531,39.3666667 C172.271531,38.4625 173.014281,37.7333333 173.905582,37.7333333 C174.796883,37.7333333 175.539634,38.4916667 175.539634,39.3666667 Z M182.699752,30.6166667 C182.699752,30.6166667 182.699752,30.6166667 182.699752,30.6166667 C180.352659,28.2833333 177.233106,27 173.905582,27 C170.578059,27 167.458505,28.2833333 165.111413,30.6166667 C165.111413,30.6166667 165.111413,30.6166667 165.111413,30.6166667 C164.962862,30.7625 164.962862,31.025 165.111413,31.2 L165.883873,31.9583333 C166.032424,32.1333333 166.299814,32.1041667 166.478074,31.9583333 C168.379516,30.0625 171.023709,28.8958333 173.935292,28.8958333 C176.846876,28.8958333 179.461358,30.0625 181.392511,31.9583333 C181.541061,32.1333333 181.808451,32.1333333 181.986711,31.9583333 L182.759172,31.2 C182.848302,31.0541667 182.848302,30.7916667 182.699752,30.6166667 Z M180.055559,33.2708333 C178.421507,31.6375 176.222965,30.7333333 173.905582,30.7333333 C171.5882,30.7333333 169.419367,31.6375 167.755606,33.2708333 C167.755606,33.2708333 167.755606,33.2708333 167.755606,33.2708333 C167.607055,33.4166667 167.607055,33.6791667 167.755606,33.8541667 L168.528066,34.6125 C168.676617,34.7875 168.944007,34.7583333 169.122267,34.6125 C170.340378,33.3875 172.03385,32.6291667 173.905582,32.6291667 C175.777314,32.6291667 177.470786,33.3875 178.688898,34.6125 C178.837448,34.7875 179.104838,34.7875 179.283098,34.6125 L180.055559,33.8541667 C180.204109,33.6791667 180.204109,33.4166667 180.055559,33.2708333 C180.055559,33.2708333 180.055559,33.2708333 180.055559,33.2708333 Z M173.905582,34.4666667 C172.538921,34.4666667 171.320809,35.0208333 170.429508,35.8958333 C170.280958,36.0708333 170.280958,36.3041667 170.429508,36.4791667 L171.172259,37.2375 C171.320809,37.4125 171.5882,37.3833333 171.76646,37.2375 C172.301241,36.6833333 173.073701,36.3625 173.905582,36.3625 C174.737463,36.3625 175.480214,36.7125 176.044705,37.2375 C176.193255,37.4125 176.460645,37.4125 176.638905,37.2375 L177.381656,36.4791667 C177.530206,36.3041667 177.530206,36.0708333 177.381656,35.8958333 C176.490355,35.0208333 175.272244,34.4666667 173.905582,34.4666667 Z" id="Shape"></path>
            </g>
        </g>
    </g>
</svg>