<?xml version="1.0" encoding="UTF-8"?>
<svg width="24px" height="24px" viewBox="0 0 24 24" version="1.1" xmlns="http://www.w3.org/2000/svg" xmlns:xlink="http://www.w3.org/1999/xlink">
    <!-- Generator: Sketch 47.1 (45422) - http://www.bohemiancoding.com/sketch -->
    <title>exclamation icon</title>
    <desc>Created with Sketch.</desc>
    <defs>
        <polygon id="path-1" points="12.000075 0 24 0 24 24 12.000075 24 0.00015 24 0.00015 0"></polygon>
    </defs>
    <g id="01-Desktop-" stroke="none" stroke-width="1" fill="none" fill-rule="evenodd">
        <g id="Display-selectable-list-of-reservations-within-checkin-window-Copy-2" transform="translate(-730.000000, -216.000000)">
            <g id="exclamation-icon" transform="translate(730.000000, 216.000000)">
                <g id="Group-3">
                    <mask id="mask-2" fill="white">
                        <use xlink:href="#path-1"></use>
                    </mask>
                    <g id="Clip-2"></g>
                    <path d="M12.0009,22.5 C6.21015,22.5 1.50015,17.7885 1.50015,11.9985 C1.50015,6.20925 6.21015,1.5 12.0009,1.5 C17.79015,1.5 22.50015,6.20925 22.50015,11.9985 C22.50015,17.7885 17.79015,22.5 12.0009,22.5 M12.0009,24 C18.6279,24 24.00015,18.6255 24.00015,11.9985 C24.00015,5.37075 18.6279,0 12.0009,0 C5.3739,0 0.00015,5.37075 0.00015,11.9985 C0.00015,18.6255 5.3739,24 12.0009,24" id="Fill-1" fill="#CD202C" mask="url(#mask-2)"></path>
                </g>
                <path d="M10,17.4550702 C10,16.6025417 10.6722649,15.9101403 11.5,15.9101403 C12.3277351,15.9101403 13,16.6025417 13,17.4550702 C13,18.3075986 12.3277351,19 11.5,19 C10.6722649,19 10,18.3075986 10,17.4550702 L10,17.4550702 Z M10.3476488,13.7484247 L12.6516315,13.7484247 L12.6516315,5 L10.3476488,5 L10.3476488,13.7484247 Z" id="Fill-4" fill="#CD202C"></path>
            </g>
        </g>
    </g>
</svg>