<svg width="24" height="24" viewBox="0 0 24 24" version="1.1" xmlns="http://www.w3.org/2000/svg" xmlns:xlink="http://www.w3.org/1999/xlink">
<title>Flight icon</title>
<g id="Canvas" transform="translate(-979 -500)">
<g id="Fill 1" opacity="0.66">
<use xlink:href="#path0_fill" transform="matrix(-1.83697e-16 1 -1 -1.83697e-16 1003 500)" fill="#666666"/>
</g>
</g>
<defs>
<path id="path0_fill" fill-rule="evenodd" d="M 18.5312 16.3955L 24 18.0887L 24 16.6178C 24 16.3403 23.8753 16.0627 23.6253 15.8959L 14.5003 9.04076L 13.7191 1.51951C 13.6875 1.29776 13.5938 1.07546 13.4066 0.908933L 12.8441 0.353859C 12.3753 -0.117953 11.5625 -0.117953 11.0938 0.353859L 10.5312 0.908933C 10.3438 1.07546 10.25 1.29776 10.2188 1.51951L 9.4375 9.04076L 0.375 15.8684C 0.125313 16.0627 0 16.3122 0 16.5898L 0 18.0607L 5.5 16.3403L 7.125 15.8404L 9.90625 14.9801L 10.3125 20.8361L 8.0625 23.0286C 7.96875 23.1119 7.90625 23.2507 7.90625 23.3894L 7.90625 24L 12.0312 22.7511L 16.0938 24L 16.0938 23.4174C 16.0938 23.2787 16.0312 23.1674 15.9375 23.0564L 13.6875 20.8641L 14.0941 15.0078L 16.9066 15.8959L 18.5312 16.3955Z"/>
</defs>
</svg>
