<svg xmlns="http://www.w3.org/2000/svg" viewBox="0 0 16 16"><defs><style>.cls-1{fill:#fff;}</style></defs><title>Asset 1</title><g id="Layer_2" data-name="Layer 2"><g id="Layer_1-2" data-name="Layer 1"><path class="cls-1" d="M12.23,7.7A4.24,4.24,0,1,1,7.7,3.77,4.24,4.24,0,0,1,12.23,7.7M7.76,4.6A3.41,3.41,0,1,0,11.4,7.76,3.41,3.41,0,0,0,7.76,4.6"/><path class="cls-1" d="M8,2.52a.33.33,0,0,1-.33-.33V.33a.34.34,0,0,1,.67,0V2.18A.34.34,0,0,1,8,2.52"/><path class="cls-1" d="M8,16a.33.33,0,0,1-.33-.33V13.82a.34.34,0,0,1,.67,0v1.85A.34.34,0,0,1,8,16"/><path class="cls-1" d="M2.52,8a.34.34,0,0,1-.34.34H.34a.34.34,0,1,1,0-.67H2.18A.34.34,0,0,1,2.52,8"/><path class="cls-1" d="M16,8a.33.33,0,0,1-.33.34H13.82a.34.34,0,1,1,0-.67h1.85A.34.34,0,0,1,16,8"/><path class="cls-1" d="M4.12,11.88a.33.33,0,0,1,0,.47L2.82,13.66a.33.33,0,1,1-.47-.47l1.31-1.31a.33.33,0,0,1,.47,0"/><path class="cls-1" d="M13.66,2.34a.33.33,0,0,1,0,.47L12.35,4.12a.33.33,0,1,1-.47-.47l1.31-1.31a.33.33,0,0,1,.47,0"/><path class="cls-1" d="M11.88,11.88a.33.33,0,0,1,.47,0l1.31,1.31a.33.33,0,0,1-.47.47l-1.31-1.31a.33.33,0,0,1,0-.47"/><path class="cls-1" d="M2.34,2.34a.33.33,0,0,1,.47,0L4.12,3.65a.33.33,0,0,1-.47.47L2.34,2.82a.33.33,0,0,1,0-.47"/></g></g></svg>