<?xml version="1.0" encoding="UTF-8"?>
<svg width="20px" height="23px" viewBox="0 0 20 23" version="1.1" xmlns="http://www.w3.org/2000/svg" xmlns:xlink="http://www.w3.org/1999/xlink">
    <!-- Generator: Sketch 47.1 (45422) - http://www.bohemiancoding.com/sketch -->
    <title>Page 1</title>
    <desc>Created with Sketch.</desc>
    <defs></defs>
    <g id="Page-1" stroke="none" stroke-width="1" fill="none" fill-rule="evenodd">
        <g id="Artboard" transform="translate(-429.000000, -1103.000000)" fill="#FFFFFF">
            <path d="M439.348312,1104.35413 C434.211033,1104.88169 430.33609,1109.233 430.33609,1114.47412 C430.33609,1120.08181 434.839364,1124.64731 440.372364,1124.64731 C443.135318,1124.64731 445.709631,1123.52894 447.624409,1121.50206 L447.902407,1121.20737 L447.501012,1121.24906 C447.171954,1121.28212 446.835804,1121.30081 446.506746,1121.30081 C441.135439,1121.30081 436.768326,1116.87188 436.768326,1111.42806 C436.768326,1108.8765 437.727133,1106.45575 439.471709,1104.60856 L439.748288,1104.31388 L439.348312,1104.35413 Z M440.372364,1126 C434.103238,1126 429,1120.82787 429,1114.47412 C429,1108.53581 433.391225,1103.60519 439.21215,1103.00719 C439.260374,1103.00287 439.314272,1103 439.362496,1103 C439.925582,1103 440.447537,1103.33063 440.697167,1103.84237 C440.968073,1104.40587 440.861696,1105.09156 440.43619,1105.54294 C438.931316,1107.13856 438.104416,1109.22725 438.104416,1111.42806 C438.104416,1116.12438 441.871564,1119.94669 446.506746,1119.94669 C446.791835,1119.94669 447.079761,1119.93231 447.36485,1119.90069 C447.415911,1119.89494 447.466972,1119.8935 447.518033,1119.8935 C448.079701,1119.8935 448.603074,1120.22412 448.849867,1120.73875 C449.122191,1121.30081 449.017233,1121.98363 448.590308,1122.43931 C446.418808,1124.735 443.505509,1126 440.372364,1126 L440.372364,1126 Z" id="Page-1"></path>
        </g>
    </g>
</svg>