<?xml version="1.0" encoding="UTF-8"?>
<svg width="24px" height="23px" viewBox="0 0 24 23" version="1.1" xmlns="http://www.w3.org/2000/svg" xmlns:xlink="http://www.w3.org/1999/xlink">
    <!-- Generator: Sketch 47.1 (45422) - http://www.bohemiancoding.com/sketch -->
    <title>Page 1</title>
    <desc>Created with Sketch.</desc>
    <defs>
        <polygon id="path-1" points="15.5 0.654684608 15.5 14.5173 0.3434 14.5173 0.3434 0.654684608 15.5 0.654684608"></polygon>
    </defs>
    <g id="Page-1" stroke="none" stroke-width="1" fill="none" fill-rule="evenodd">
        <g id="Artboard" transform="translate(-428.000000, -959.000000)">
            <g id="Page-1" transform="translate(428.000000, 958.000000)">
                <path d="M14.829,22.15575 C13.4565,22.15575 12.2025,21.48675 11.4375,20.37825 C10.3155,21.51225 8.7945,22.15575 7.1805,22.15575 C3.879,22.15575 1.194,19.46775 1.194,16.16925 C1.194,12.86925 3.879,10.18425 7.1805,10.18425 C7.6605,10.18425 8.1255,10.24275 8.5755,10.35375 C8.958,10.44375 9.3285,10.57725 9.6795,10.74075 C11.1945,11.44125 12.39,12.75525 12.9,14.39475 C13.491,14.08125 14.1495,13.91775 14.829,13.91775 C15.4875,13.91775 16.11,14.07525 16.6605,14.34975 C17.013,14.52825 17.337,14.75175 17.625,15.01725 C18.438,15.77175 18.9495,16.84275 18.9495,18.03525 C18.9495,20.30775 17.1015,22.15575 14.829,22.15575 M18.003,13.78575 C17.6685,13.53825 17.3055,13.32075 16.92,13.15425 C16.278,12.87825 15.5715,12.72525 14.829,12.72525 C14.5005,12.72525 14.169,12.75525 13.845,12.81525 L13.566,12.86775 L13.4265,12.62475 C13.11,12.06825 12.72,11.55525 12.258,11.09475 C11.742,10.57875 11.16,10.15125 10.5315,9.81675 C10.1565,9.62175 9.7665,9.45825 9.366,9.33075 C8.6685,9.10875 7.9335,8.99175 7.1805,8.99175 C5.265,8.99175 3.462,9.74025 2.103,11.09475 C0.7485,12.44925 0,14.25225 0,16.16925 C0,18.08775 0.7485,19.88775 2.103,21.24525 C3.462,22.59825 5.265,23.34525 7.1805,23.34525 C8.5785,23.34525 9.933,22.94775 11.094,22.18875 L11.328,22.03575 L11.55,22.21125 C12.495,22.95525 13.626,23.34525 14.829,23.34525 C17.7585,23.34525 20.142,20.96325 20.142,18.03525 C20.142,16.29675 19.2975,14.75325 18.003,13.78575" id="Fill-1" fill="#FFFFFF"></path>
                <g id="Group-5" transform="translate(8.500000, 0.845250)">
                    <mask id="mask-2" fill="white">
                        <use xlink:href="#path-1"></use>
                    </mask>
                    <g id="Clip-4"></g>
                    <path d="M15.1694,9.8283 C14.8634,9.5298 14.4179,9.4293 14.0144,9.5658 C13.9799,9.5778 13.9454,9.5943 13.9064,9.6063 C13.7354,9.6873 13.5509,9.7593 13.3679,9.8208 C10.4114,10.8273 7.1759,9.2763 6.1514,6.3678 C5.6714,5.0058 5.7419,3.5328 6.3554,2.2203 C6.5504,1.8003 6.4559,1.3023 6.1229,0.9783 C5.8169,0.6798 5.3639,0.5778 4.9649,0.7143 C4.9274,0.7293 4.8944,0.7428 4.8629,0.7578 C2.2274,1.9578 0.5939,4.3983 0.3434,7.0728 C0.7064,7.1388 1.0709,7.2168 1.4264,7.3368 C1.4339,7.3383 1.4384,7.3398 1.4459,7.3428 C1.6094,4.9728 3.0524,2.7993 5.3324,1.7598 C4.6334,3.2673 4.4894,5.0343 5.0894,6.7278 C6.3209,10.2168 10.1894,12.0693 13.7354,10.8648 C13.9604,10.7898 14.1719,10.7028 14.3804,10.6098 C13.8569,11.7348 12.8444,12.8343 11.7584,13.5333 C11.9819,13.8258 12.1109,14.1753 12.2654,14.5173 C13.5194,13.7208 14.7599,12.4443 15.3989,11.0703 C15.5939,10.6503 15.5039,10.1553 15.1694,9.8283" id="Fill-3" fill="#FFFFFF" mask="url(#mask-2)"></path>
                </g>
            </g>
        </g>
    </g>
</svg>