<?xml version="1.0" encoding="UTF-8"?>
<svg width="24px" height="20px" viewBox="0 0 24 20" version="1.1" xmlns="http://www.w3.org/2000/svg" xmlns:xlink="http://www.w3.org/1999/xlink">
    <!-- Generator: Sketch 47.1 (45422) - http://www.bohemiancoding.com/sketch -->
    <title>Page 1</title>
    <desc>Created with Sketch.</desc>
    <defs>
        <polygon id="path-1" points="23.4582944 0.000345882353 7.57894737 0.000345882353 7.57894737 9.56399294 15.5186209 9.56399294 23.4582944 9.56399294"></polygon>
    </defs>
    <g id="Page-1" stroke="none" stroke-width="1" fill="none" fill-rule="evenodd">
        <g id="Artboard" transform="translate(-428.000000, -926.000000)">
            <g id="Page-1" transform="translate(428.000000, 926.000000)">
                <g id="Group">
                    <path d="M11.3141053,16.7925882 C12.0669474,17.9475882 13.3073684,18.6430588 14.6665263,18.6430588 C16.9136842,18.6430588 18.7427368,16.7197059 18.7427368,14.3565882 C18.7427368,11.9922353 16.9136842,10.0676471 14.6665263,10.0676471 C13.9907368,10.0676471 13.3414737,10.2393529 12.7578947,10.5642353 C11.9974737,7.99482353 9.70357895,6.18388235 7.10021053,6.18388235 C3.83494737,6.18388235 1.18231579,8.97935294 1.18231579,12.4122353 C1.18231579,15.8475882 3.83494737,18.6430588 7.10021053,18.6430588 C8.69936842,18.6430588 10.2012632,17.9747647 11.3141053,16.7925882 M14.6665263,19.8820588 C13.4791579,19.8820588 12.3549474,19.4756471 11.4214737,18.6998824 L11.2042105,18.5182941 L10.9705263,18.6788824 C9.82231579,19.4657647 8.48589474,19.8820588 7.10021053,19.8820588 C5.20673684,19.8820588 3.42315789,19.1062941 2.08042105,17.6955882 C0.738947368,16.2824118 0,14.4072353 0,12.4122353 C0,10.4184706 0.738947368,8.53958824 2.08042105,7.13011765 C3.42063158,5.72064706 5.20673684,4.94117647 7.10021053,4.94117647 C8.99747368,4.94117647 10.7823158,5.72064706 12.1250526,7.13011765 C12.5772632,7.60817647 12.9663158,8.14305882 13.2795789,8.72117647 L13.416,8.97688235 L13.6926316,8.92252941 C14.0122105,8.85829412 14.3406316,8.82741176 14.6665263,8.82741176 C17.5604211,8.82741176 19.9187368,11.3078824 19.9187368,14.3565882 C19.9187368,17.4028235 17.5604211,19.8820588 14.6665263,19.8820588" id="Fill-1" fill="#FFFFFF"></path>
                    <mask id="mask-2" fill="white">
                        <use xlink:href="#path-1"></use>
                    </mask>
                    <g id="Clip-2"></g>
                </g>
                <path d="M8.70126316,3.09475765 C9.26463158,1.74952235 10.6048421,0.868757647 12.0675789,1.02687529 C13.1665263,1.14546353 14.1138947,1.81622824 14.6305263,2.81434588 C15.6221053,1.95828706 16.8915789,1.54940471 18.1850526,1.68899294 C20.8237895,1.97434588 22.7450526,4.46840471 22.4747368,7.24287529 C22.4267368,7.75305176 22.2978947,8.23481647 22.1134737,8.67952235 C22.1526316,8.72646353 22.1943158,8.77216941 22.2309474,8.81540471 C22.4267368,9.04516941 22.5871579,9.26011059 22.7248421,9.47011059 C22.7425263,9.50222824 22.7602105,9.53311059 22.7804211,9.56399294 C23.124,8.88458118 23.3526316,8.13599294 23.4271579,7.34540471 C23.5850526,5.73211059 23.1391579,4.15216941 22.164,2.89464 C21.1926316,1.63587529 19.8145263,0.853934118 18.2810526,0.687169412 C17.1593684,0.564875294 16.0477895,0.785992941 15.0587368,1.31840471 L14.8578947,1.42958118 L14.6924211,1.26405176 C13.9989474,0.556228235 13.1286316,0.127581176 12.1661053,0.0238164706 C10.0111579,-0.209654118 8.06336842,1.29740471 7.57831579,3.46040471 C7.85747368,3.34552235 8.14421053,3.24299294 8.44484211,3.16022824 C8.52821053,3.13552235 8.61789474,3.11699294 8.70126316,3.09475765" id="Fill-1" fill="#FFFFFF"></path>
            </g>
        </g>
    </g>
</svg>