<?xml version="1.0" encoding="UTF-8" standalone="no"?>
<svg width="24px" height="26px" viewBox="0 0 24 26" version="1.1" xmlns="http://www.w3.org/2000/svg" xmlns:xlink="http://www.w3.org/1999/xlink">
    <!-- Generator: Sketch 48.2 (47327) - http://www.bohemiancoding.com/sketch -->
    <title>Page 1</title>
    <desc>Created with Sketch.</desc>
    <defs>
        <polygon id="path-1" points="0 17.2920706 0 0.0285882353 23.99925 0.0285882353 23.99925 17.2920706"></polygon>
    </defs>
    <g id="Artboard" stroke="none" stroke-width="1" fill="none" fill-rule="evenodd" transform="translate(-428.000000, -308.000000)">
        <g id="Page-1" transform="translate(428.000000, 308.000000)">
            <g id="Group-3" transform="translate(0.000000, 0.560282)">
                <mask id="mask-2" fill="white">
                    <use xlink:href="#path-1"></use>
                </mask>
                <g id="Clip-2"></g>
                <path d="M23.99925,11.4267176 C23.99925,7.73565882 21.15675,4.73230588 17.66775,4.73230588 C17.27775,4.73230588 16.87875,4.7736 16.49025,4.84665882 L16.16175,4.91177647 L15.99825,4.60683529 C15.62025,3.90483529 15.15375,3.25524706 14.60325,2.67712941 C12.98625,0.969776471 10.84125,0.0279529412 8.55375,0.0279529412 C6.27075,0.0279529412 4.12125,0.969776471 2.50575,2.67712941 C0.89175,4.38607059 -0.00075,6.65883529 -0.00075,9.07612941 C-0.00075,11.4918353 0.89175,13.7614235 2.50575,15.4703647 C2.92575,15.9150706 3.38475,16.3057765 3.86925,16.6440706 L4.45725,15.2400706 C2.62425,13.8741882 1.41975,11.6220706 1.41975,9.07612941 C1.41975,4.91495294 4.61925,1.53201176 8.55375,1.53201176 C11.68575,1.53201176 14.45325,3.72377647 15.36525,6.83512941 C16.07625,6.44124706 16.85325,6.23318824 17.66775,6.23318824 C20.37525,6.23318824 22.58025,8.56312941 22.58025,11.4267176 C22.58025,13.4056588 21.52575,15.1273059 19.97925,16.0040118 L19.95825,16.0611882 L20.69625,17.2920706 C22.65975,16.1580706 23.99925,13.9583647 23.99925,11.4267176" id="Fill-1" fill="#FFFFFF" mask="url(#mask-2)"></path>
            </g>
            <path d="M15.62325,19.1061059 L11.99925,12.3449882 L8.37225,19.1061059 C7.97325,19.7938118 7.74225,20.6054 7.74225,21.4662235 C7.74225,23.9565765 9.65175,25.9720471 11.99925,25.9720471 C14.34825,25.9720471 16.25475,23.9565765 16.25475,21.4662235 C16.25475,20.6054 16.02675,19.7938118 15.62325,19.1061059" id="Fill-4" fill="#FFFFFF"></path>
        </g>
    </g>
</svg>