<?xml version="1.0" encoding="UTF-8"?>
<svg width="24px" height="19px" viewBox="0 0 24 19" version="1.1" xmlns="http://www.w3.org/2000/svg" xmlns:xlink="http://www.w3.org/1999/xlink">
    <!-- Generator: Sketch 47.1 (45422) - http://www.bohemiancoding.com/sketch -->
    <title>Page 1</title>
    <desc>Created with Sketch.</desc>
    <defs>
        <polygon id="path-1" points="9 0.1499 9 1.6499 0.947244167 1.6499 0.947244167 0.1499 9 0.1499"></polygon>
        <polygon id="path-3" points="21.3551 1.5 0.0041 1.5 0.0041 0.193494256 21.3551 0.193494256"></polygon>
        <polygon id="path-5" points="21.9087 0.1265 0.7302 0.1265 0.7302 8.8517 21.9087 8.8517 21.9087 0.1265"></polygon>
    </defs>
    <g id="Page-1" stroke="none" stroke-width="1" fill="none" fill-rule="evenodd">
        <g id="Artboard" transform="translate(-429.000000, -709.000000)">
            <g id="Page-1" transform="translate(429.000000, 709.000000)">
                <path d="M14,11.4971363 C14,11.7720504 13.7201744,11.9965636 13.3678552,11.997709 L0.629267287,12 C0.285647285,12 2.22207151e-05,11.7766323 2.22207151e-05,11.5017182 C-0.00287752613,11.2279496 0.278397918,11.002291 0.627817413,11.0011455 L13.3649554,11 C13.7143749,11 14,11.2233677 14,11.4971363" id="Fill-1" fill="#FFFFFF"></path>
                <g id="Group-5" transform="translate(15.000000, 11.000000)">
                    <mask id="mask-2" fill="white">
                        <use xlink:href="#path-1"></use>
                    </mask>
                    <g id="Clip-4"></g>
                    <path d="M9.00075,0.8009 C9.00375,1.1609 8.71125,1.4549 8.34675,1.4564 L1.59975,1.4594 C1.23825,1.4594 0.94725,1.1669 0.94725,0.8069 C0.94575,0.4484 1.23375,0.1529 1.59525,0.1514 L8.34375,0.1499 C8.70525,0.1499 9.00075,0.4424 9.00075,0.8009" id="Fill-3" fill="#FFFFFF" mask="url(#mask-2)"></path>
                </g>
                <path d="M10.0000498,14.4982796 C9.99569972,14.774338 10.2770037,14.9977047 10.6308088,14.9988501 L23.367791,14.9999956 C23.7128959,15.0011411 24,14.7777744 24,14.5028615 C24,14.2279486 23.721596,14.0034364 23.372141,14.0011455 L10.6322588,14 C10.2813538,14 10.0000498,14.2233667 10.0000498,14.4982796" id="Fill-6" fill="#FFFFFF"></path>
                <path d="M5.09047237e-05,14.4982796 C-0.00442000572,14.774338 0.286189173,14.9977047 0.645352313,14.9988501 L7.35022768,14.9999956 C7.70790052,15.0011411 7.99701939,14.7777744 8,14.5028615 C8,14.2279486 7.71237143,14.0034364 7.35469859,14.0011455 L0.649823223,14 C0.292150387,14 5.09047237e-05,14.2233667 5.09047237e-05,14.4982796" id="Fill-8" fill="#FFFFFF"></path>
                <g id="Group-12" transform="translate(1.000000, 17.000000)">
                    <mask id="mask-4" fill="white">
                        <use xlink:href="#path-3"></use>
                    </mask>
                    <g id="Clip-11"></g>
                    <path d="M0.0041,0.843 C0.0041,1.203 0.2966,1.497 0.6581,1.4985 L20.7041,1.5 C21.0611,1.5015 21.3551,1.209 21.3551,0.8505 C21.3551,0.4905 21.0656,0.1965 20.7071,0.1935 L0.6611,0.1935 C0.2996,0.192 0.0086,0.4845 0.0041,0.843" id="Fill-10" fill="#FFFFFF" mask="url(#mask-4)"></path>
                </g>
                <g id="Group-15">
                    <mask id="mask-6" fill="white">
                        <use xlink:href="#path-5"></use>
                    </mask>
                    <g id="Clip-14"></g>
                    <path d="M2.1072,8.8517 C2.0337,8.4782 1.9902,8.0972 1.9902,7.7027 C1.9902,4.2197 4.8252,1.3832 8.3127,1.3832 C11.0847,1.3832 13.5372,3.2222 14.3457,5.8277 C14.9712,5.4977 15.6642,5.3222 16.3842,5.3222 C18.5022,5.3222 20.2647,6.8447 20.6502,8.8517 L21.9087,8.8517 C21.5097,6.1502 19.1997,4.0667 16.3842,4.0667 C16.0347,4.0667 15.6882,4.0982 15.3432,4.1612 L15.0522,4.2167 L14.9052,3.9602 C14.5707,3.3722 14.1552,2.8307 13.6677,2.3447 C12.2382,0.9152 10.3347,0.1262 8.3127,0.1262 C6.2847,0.1262 4.3842,0.9152 2.9502,2.3447 C1.5192,3.7757 0.7302,5.6792 0.7302,7.7027 C0.7302,8.0927 0.7647,8.4737 0.8262,8.8517 L2.1072,8.8517 Z" id="Fill-13" fill="#FFFFFF" mask="url(#mask-6)"></path>
                </g>
            </g>
        </g>
    </g>
</svg>