<?xml version="1.0" encoding="UTF-8"?>
<svg width="24px" height="24px" viewBox="0 0 24 24" version="1.1" xmlns="http://www.w3.org/2000/svg" xmlns:xlink="http://www.w3.org/1999/xlink">
    <!-- Generator: Sketch 47.1 (45422) - http://www.bohemiancoding.com/sketch -->
    <title>Page 1</title>
    <desc>Created with Sketch.</desc>
    <defs>
        <polygon id="path-1" points="0.00075 0.0205882353 24 0.0205882353 24 16.0054412 0.00075 16.0054412"></polygon>
    </defs>
    <g id="Page-1" stroke="none" stroke-width="1" fill="none" fill-rule="evenodd">
        <g id="Artboard" transform="translate(-428.000000, -345.000000)">
            <g id="Page-1" transform="translate(428.000000, 345.000000)">
                <g id="Group-3" transform="translate(0.000000, 0.450441)">
                    <mask id="mask-2" fill="white">
                        <use xlink:href="#path-1"></use>
                    </mask>
                    <g id="Clip-2"></g>
                    <path d="M24.00075,10.5760294 C24.00075,7.15544118 21.15675,4.37455882 17.66775,4.37455882 C17.27775,4.37455882 16.88175,4.41426471 16.49325,4.48191176 L16.16175,4.54367647 L15.99825,4.25985294 C15.62025,3.60985294 15.15675,3.00838235 14.60325,2.47308824 C12.98925,0.892205882 10.84125,0.0201470588 8.55375,0.0201470588 C6.27075,0.0201470588 4.12125,0.892205882 2.50575,2.47308824 C0.89175,4.05544118 0.00075,6.15985294 0.00075,8.39661765 C0.00075,10.6348529 0.89175,12.7363235 2.50575,14.3186765 C2.92575,14.7304412 3.38475,15.0922059 3.86925,15.4039706 L4.46025,14.1054412 C2.62575,12.8407353 1.41975,10.7554412 1.41975,8.39661765 C1.41975,4.54514706 4.61925,1.41132353 8.55375,1.41132353 C11.68575,1.41132353 14.45625,3.44220588 15.36825,6.32455882 C16.07625,5.95838235 16.85625,5.76573529 17.66775,5.76573529 C20.37675,5.76573529 22.58025,7.92308824 22.58025,10.5760294 C22.58025,12.4054412 21.52875,14.0010294 19.97925,14.8127941 L19.95825,14.8642647 L20.69625,16.0054412 C22.65975,14.9554412 24.00075,12.9201471 24.00075,10.5760294" id="Fill-1" fill="#FFFFFF" mask="url(#mask-2)"></path>
                </g>
                <path d="M13.1886,12.7369118 C13.1886,14.4530882 11.7726,15.8457353 10.0206,15.8457353 C8.2686,15.8457353 6.8511,14.4530882 6.8511,12.7369118 C6.8511,11.0207353 8.2686,9.62808824 10.0206,9.62808824 C11.7726,9.62808824 13.1886,11.0207353 13.1886,12.7369118" id="Fill-4" fill="#FFFFFF"></path>
                <path d="M19.5564,19.1664706 C19.5564,20.7179412 18.2769,21.9752941 16.6974,21.9752941 C15.1134,21.9752941 13.8354,20.7179412 13.8354,19.1664706 C13.8354,17.6179412 15.1134,16.3605882 16.6974,16.3605882 C18.2769,16.3605882 19.5564,17.6179412 19.5564,19.1664706" id="Fill-6" fill="#FFFFFF"></path>
                <path d="M10.48455,21.2430882 C10.48455,22.7533824 9.23805,23.9798529 7.69455,23.9798529 C6.14805,23.9798529 4.89705,22.7533824 4.89705,21.2430882 C4.89705,19.7298529 6.14805,18.5033824 7.69455,18.5033824 C9.23805,18.5033824 10.48455,19.7298529 10.48455,21.2430882" id="Fill-8" fill="#FFFFFF"></path>
            </g>
        </g>
    </g>
</svg>