<?xml version="1.0" encoding="UTF-8"?>
<svg width="24px" height="25px" viewBox="0 0 24 25" version="1.1" xmlns="http://www.w3.org/2000/svg" xmlns:xlink="http://www.w3.org/1999/xlink">
    <!-- Generator: Sketch 47.1 (45422) - http://www.bohemiancoding.com/sketch -->
    <title>Group 2</title>
    <desc>Created with Sketch.</desc>
    <defs>
        <polygon id="path-1" points="0.000293820546 0.0920454545 18.3474286 0.0920454545 18.3474286 12.1176136 0.000293820546 12.1176136"></polygon>
    </defs>
    <g id="Page-1" stroke="none" stroke-width="1" fill="none" fill-rule="evenodd">
        <g id="Artboard" transform="translate(-428.000000, -1726.000000)">
            <g id="Group-2" transform="translate(428.000000, 1726.000000)">
                <g id="Page-1" transform="translate(0.000000, 6.681818)">
                    <path d="M7.03794286,14.9282955 C7.03794286,15.8532955 6.28594286,16.6044318 5.3488,16.6044318 C4.41965714,16.6044318 3.66537143,15.8532955 3.66537143,14.9282955 C3.66537143,14.0010227 4.41965714,13.2498864 5.3488,13.2498864 C6.28594286,13.2498864 7.03794286,14.0010227 7.03794286,14.9282955" id="Fill-1" fill="#FFFFFF"></path>
                    <g id="Group-5" transform="translate(0.000000, 0.044659)">
                        <mask id="mask-2" fill="white">
                            <use xlink:href="#path-1"></use>
                        </mask>
                        <g id="Clip-4"></g>
                        <path d="M18.3437714,7.78352273 C18.2374857,5.14488636 15.9883429,3.08238636 13.3323429,3.18693182 C13.0340571,3.19943182 12.7346286,3.24034091 12.4409143,3.30511364 L12.1906286,3.36079545 L12.0580571,3.14715909 C11.7494857,2.65738636 11.3769143,2.20738636 10.9403429,1.80852273 C9.66262857,0.638068182 7.99977143,0.0289772727 6.2592,0.0960227273 C4.51977143,0.165340909 2.91177143,0.903977273 1.73005714,2.17329545 C0.549485714,3.44488636 -0.0630857143,5.09602273 0.00548571429,6.82329545 C0.0740571429,8.55170455 0.816914286,10.1460227 2.09462857,11.31875 C2.42834286,11.6255682 2.78834286,11.8903409 3.16777143,12.1176136 L3.57577143,11.0960227 C2.14034286,10.1744318 1.15977143,8.60170455 1.08662857,6.78125 C0.967771429,3.80625 3.3072,1.29147727 6.30262857,1.17329545 C8.68662857,1.08011364 10.8569143,2.56306818 11.6420571,4.75965909 C12.1689143,4.45625 12.7574857,4.28465909 13.3746286,4.25965909 C15.4363429,4.17897727 17.1803429,5.77784091 17.2626286,7.82556818 C17.3197714,9.24034091 16.5666286,10.5039773 15.4146286,11.1744318 L15.3986286,11.2176136 L15.9952,12.0755682 C17.4592,11.20625 18.4157714,9.59261364 18.3437714,7.78352273" id="Fill-3" fill="#FFFFFF" mask="url(#mask-2)"></path>
                    </g>
                    <path d="M10.1428571,9.28193182 C10.1428571,10.5626136 9.09828571,11.60125 7.81257143,11.60125 C6.52114286,11.60125 5.47771429,10.5626136 5.47771429,9.28193182 C5.47771429,8.00011364 6.52114286,6.96147727 7.81257143,6.96147727 C9.09828571,6.96147727 10.1428571,8.00011364 10.1428571,9.28193182" id="Fill-6" fill="#FFFFFF"></path>
                    <path d="M14.3236571,14.5276136 L12.2482286,10.8867045 L10.1659429,14.5276136 C9.93851429,14.8969318 9.80594286,15.3367045 9.80594286,15.7980682 C9.80594286,17.1389773 10.8996571,18.2264773 12.2482286,18.2264773 C13.5922286,18.2264773 14.6859429,17.1389773 14.6859429,15.7980682 C14.6859429,15.3367045 14.5545143,14.8969318 14.3236571,14.5276136" id="Fill-8" fill="#FFFFFF"></path>
                </g>
                <path d="M23.6759453,8.94008456 C23.3722252,8.64616485 22.9369472,8.54926825 22.5390251,8.68492349 C22.5065417,8.69461315 22.4740582,8.70914765 22.4367023,8.72206719 C22.2694126,8.80119942 22.0875054,8.87064199 21.9088465,8.93362478 C19.0129484,9.9122805 15.8409411,8.40069345 14.8355789,5.56808269 C14.3645691,4.24059919 14.4344085,2.80329954 15.035352,1.52426435 C15.2253801,1.11406872 15.1344264,0.631200637 14.8095921,0.314671726 C14.5074962,0.0239819099 14.0640973,-0.074529639 13.6726719,0.0578957218 C13.635316,0.0708152692 13.6028326,0.08534976 13.5703491,0.0982693074 C10.9911645,1.2658734 9.38648289,3.64791495 9.14285714,6.2528187 C9.49855074,6.31580149 9.85586851,6.39654866 10.2034412,6.51120965 C10.2115621,6.51120965 10.2164346,6.51605448 10.2213071,6.51766942 C10.3837243,4.20507044 11.7983778,2.08949455 14.033238,1.07531008 C13.3478376,2.5449086 13.209783,4.26805323 13.796109,5.91852541 C14.9996202,9.31798132 18.7936852,11.1234881 22.2694126,9.95103914 C22.4902999,9.87675174 22.6965697,9.79438963 22.8995912,9.70072291 C22.386353,10.7972695 21.3939841,11.867977 20.3285275,12.5510981 C20.551039,12.8320982 20.6761002,13.1760812 20.8287723,13.5071446 C22.0566461,12.7352016 23.2747749,11.4884653 23.9017051,10.1480622 C24.0917332,9.73948155 24.0007796,9.25499852 23.6759453,8.94008456" id="Page-1" fill="#FFFFFF"></path>
            </g>
        </g>
    </g>
</svg>