<?xml version="1.0" encoding="UTF-8"?>
<svg width="22px" height="25px" viewBox="0 0 22 25" version="1.1" xmlns="http://www.w3.org/2000/svg" xmlns:xlink="http://www.w3.org/1999/xlink">
    <!-- Generator: Sketch 47.1 (45422) - http://www.bohemiancoding.com/sketch -->
    <title>Page 1</title>
    <desc>Created with Sketch.</desc>
    <defs>
        <polygon id="path-1" points="10.9506833 0 21.901 0 21.901 25 10.9506833 25 0.000366651416 25 0.000366651416 0"></polygon>
    </defs>
    <g id="Page-1" stroke="none" stroke-width="1" fill="none" fill-rule="evenodd">
        <g id="Artboard" transform="translate(-428.000000, -59.000000)">
            <g id="Page-1" transform="translate(428.000000, 59.000000)">
                <g id="Group-3">
                    <mask id="mask-2" fill="white">
                        <use xlink:href="#path-1"></use>
                    </mask>
                    <g id="Clip-2"></g>
                    <path d="M15.5272857,4.9390625 L15.5272857,4.9390625 C18.1044286,6.4828125 19.8235714,9.290625 19.8235714,12.5 C19.8235714,24.128125 4.05114286,24.346875 1.40642857,23.109375 C1.40642857,23.109375 4.44871429,22.7875 6.37371429,20.0609375 C3.79657143,18.515625 2.07428571,15.709375 2.07428571,12.5 C2.07428571,0.8703125 17.8498571,0.653125 20.4945714,1.890625 C20.4945714,1.890625 17.4522857,2.2125 15.5272857,4.9390625 M21.0885714,0.634375 C19.8675714,0.0625 17.6942857,0 16.8158571,0 C15.0684286,0 10.5835714,0.2328125 6.69428571,2.3984375 C2.75785714,4.5875 0.678857143,8.0796875 0.678857143,12.5 C0.678857143,14.290625 1.15342857,16.053125 2.04914286,17.5984375 C2.64157143,18.6171875 3.40685714,19.5296875 4.30414286,20.2890625 C2.92757143,21.4953125 1.38128571,21.7109375 1.25242857,21.7265625 C0.630142857,21.7875 0.127285714,22.253125 0.022,22.86875 C-0.0895714286,23.4859375 0.238857143,24.0984375 0.812428571,24.365625 C2.03342857,24.9375 4.20828571,25 5.08357143,25 C6.83414286,25 11.3158571,24.765625 15.2082857,22.6015625 C19.1431429,20.4109375 21.2221429,16.9203125 21.2221429,12.5 C21.2221429,10.7078125 20.7475714,8.9453125 19.8534286,7.4015625 C19.2594286,6.3828125 18.4941429,5.4703125 17.5937143,4.7109375 C18.9702857,3.5046875 20.5197143,3.2875 20.6485714,3.2734375 C21.2708571,3.2140625 21.7737143,2.746875 21.8805714,2.13125 C21.989,1.5140625 21.659,0.9015625 21.0885714,0.634375" id="Fill-1" fill="#FFFFFF" mask="url(#mask-2)"></path>
                </g>
                <path d="M10.9509714,15.1807813 C9.4644,15.1807813 8.25125714,13.9776563 8.25125714,12.4995313 C8.25125714,11.0214063 9.4644,9.81828125 10.9509714,9.81828125 C12.4359714,9.81828125 13.6491143,11.0214063 13.6491143,12.4995313 C13.6491143,13.9776563 12.4359714,15.1807813 10.9509714,15.1807813 M10.9509714,8.43078125 C8.68968571,8.43078125 6.85897143,10.2526563 6.85897143,12.4995313 C6.85897143,14.7479688 8.68968571,16.5698438 10.9509714,16.5698438 C13.2106857,16.5698438 15.0429714,14.7479688 15.0429714,12.4995313 C15.0429714,10.2526563 13.2106857,8.43078125 10.9509714,8.43078125" id="Fill-4" fill="#FFFFFF"></path>
            </g>
        </g>
    </g>
</svg>