<?xml version="1.0" encoding="UTF-8"?>
<svg width="24px" height="26px" viewBox="0 0 24 26" version="1.1" xmlns="http://www.w3.org/2000/svg" xmlns:xlink="http://www.w3.org/1999/xlink">
    <!-- Generator: Sketch 47.1 (45422) - http://www.bohemiancoding.com/sketch -->
    <title>Page 1</title>
    <desc>Created with Sketch.</desc>
    <defs>
        <polygon id="path-1" points="3.5024 0.2171 3.5024 1.8421 0.34464 1.8421 0.34464 0.2171 3.5024 0.2171"></polygon>
    </defs>
    <g id="Page-1" stroke="none" stroke-width="1" fill="none" fill-rule="evenodd">
        <g id="Artboard" transform="translate(-428.000000, -1316.000000)">
            <g id="Page-1" transform="translate(428.000000, 1316.000000)">
                <path d="M7.19168,16.74595 C7.49888,16.8922 7.63488,17.270825 7.49248,17.59095 L5.04448,22.9697 C4.90368,23.286575 4.53568,23.423075 4.22848,23.27845 C3.92288,23.130575 3.78688,22.750325 3.92928,22.43345 L6.37408,17.053075 C6.51968,16.737825 6.88608,16.59645 7.19168,16.74595" id="Fill-1" fill="#FFFFFF"></path>
                <g id="Group-5" transform="translate(6.400000, 16.249513)" fill="#FFFFFF">
                    <path d="M4.548,0.5250375 C4.8536,0.6712875 4.9896,1.0515375 4.8456,1.3716625 L1.3032,9.3829125 C1.1624,9.6997875 0.7912,9.8379125 0.4824,9.6916625 C0.1784,9.5421625 0.0424,9.1651625 0.1848,8.8466625 L3.7288,0.8305375 C3.8728,0.5152875 4.2408,0.3755375 4.548,0.5250375" id="Fill-3"></path>
                </g>
                <path d="M14.72768,16.9856375 C15.03488,17.1318875 15.16608,17.5105125 15.02368,17.8257625 L11.82528,25.2520125 C11.68288,25.5688875 11.31168,25.7053875 11.00448,25.5591375 C10.69728,25.4112625 10.56448,25.0358875 10.70368,24.7190125 L13.91008,17.2911375 C14.04928,16.9742625 14.41728,16.8377625 14.72768,16.9856375" id="Fill-6" fill="#FFFFFF"></path>
                <g id="Group-10" transform="translate(20.200000, 9.749513)">
                    <mask id="mask-2" fill="white">
                        <use xlink:href="#path-1"></use>
                    </mask>
                    <g id="Clip-9"></g>
                    <path d="M2.94944,0.2171 L0.89824,0.2171 C0.58944,0.2171 0.34464,0.475475 0.34464,0.79235 C0.34464,1.105975 0.58944,1.362725 0.89824,1.362725 L2.94944,1.362725 C3.25184,1.362725 3.50304,1.105975 3.50304,0.79235 C3.50304,0.475475 3.25184,0.2171 2.94944,0.2171" id="Fill-8" fill="#FFFFFF" mask="url(#mask-2)"></path>
                </g>
                <path d="M13.4104,3.28575 C13.7144,3.28575 13.9608,3.029 13.9608,2.71375 L13.9608,0.56875 C13.9608,0.255125 13.7144,0 13.4104,0 C13.108,0 12.8536,0.255125 12.8536,0.56875 L12.8536,2.71375 C12.8536,3.029 13.108,3.28575 13.4104,3.28575" id="Fill-11" fill="#FFFFFF"></path>
                <path d="M8.39792,5.225025 C8.61552,5.007275 8.60752,4.649775 8.38992,4.428775 L6.89552,2.91265 C6.67472,2.6884 6.32432,2.686775 6.10672,2.90615 C5.89552,3.1239 5.89552,3.48465 6.11472,3.704025 L7.61072,5.221775 C7.82832,5.4444 8.18192,5.4444 8.39792,5.225025" id="Fill-13" fill="#FFFFFF"></path>
                <path d="M18.6416,5.218525 C18.8624,5.4379 19.2144,5.4314 19.4288,5.208775 L20.9104,3.674775 C21.128,3.447275 21.128,3.0914 20.9072,2.87365 C20.6912,2.65915 20.3376,2.664025 20.12,2.888275 L18.64,4.419025 C18.424,4.643275 18.4272,5.00565 18.6416,5.218525" id="Fill-15" fill="#FFFFFF"></path>
                <path d="M10.99952,7.306975 C11.70672,6.70085 12.60272,6.3531 13.55312,6.3531 C15.77712,6.3531 17.58512,8.226725 17.58512,10.52935 C17.58512,10.63335 17.56912,10.732475 17.56272,10.836475 C17.67472,10.90635 17.79152,10.9616 17.90192,11.03635 C18.16592,11.210225 18.38992,11.4491 18.62832,11.67335 C18.70672,11.297975 18.75312,10.91935 18.75312,10.52935 C18.75312,7.560475 16.42032,5.14735 13.55312,5.14735 C12.14832,5.14735 10.83952,5.7616 9.87792,6.767475 C10.18672,6.8861 10.50192,7.007975 10.77712,7.157475 C10.85392,7.202975 10.92432,7.261475 10.99952,7.306975" id="Fill-17" fill="#FFFFFF"></path>
                <path d="M18.3104,12.6802 C18.0288,12.37145 17.72,12.096825 17.3744,11.8612 C16.552,11.297325 15.5696,10.969075 14.5152,10.969075 C14.192,10.969075 13.8672,10.99995 13.5488,11.0617 L13.2768,11.112075 L13.1424,10.865075 C12.832,10.3012 12.448,9.779575 11.9984,9.31645 C11.4976,8.798075 10.936,8.36745 10.3296,8.031075 C9.9744,7.8377 9.6032,7.67845 9.2224,7.5517 C8.5232,7.3112 7.7856,7.182825 7.0272,7.182825 C5.1488,7.182825 3.3872,7.9417 2.0608,9.31645 C0.7296,10.689575 0,12.51445 0,14.459575 C0,16.399825 0.7296,18.22795 2.0608,19.6027 C2.1472,19.6937 2.2528,19.75545 2.344,19.8432 L3.0896,18.9397 C1.9104,17.829825 1.1664,16.2357 1.1664,14.459575 C1.1664,11.115325 3.7952,8.391825 7.0272,8.391825 C9.6,8.391825 11.8752,10.156575 12.6224,12.6607 C13.2048,12.343825 13.8496,12.1732 14.5152,12.1732 C16.7376,12.1732 18.5472,14.04845 18.5472,16.3527 C18.5472,17.810325 17.816,19.087575 16.72,19.835075 L17.4144,20.7987 C18.7984,19.8302 19.7152,18.203575 19.7152,16.3527 C19.7152,14.934075 19.1776,13.64545 18.3104,12.6802" id="Fill-19" fill="#FFFFFF"></path>
            </g>
        </g>
    </g>
</svg>