<?xml version="1.0" encoding="UTF-8"?>
<svg width="24px" height="23px" viewBox="0 0 24 23" version="1.1" xmlns="http://www.w3.org/2000/svg" xmlns:xlink="http://www.w3.org/1999/xlink">
    <!-- Generator: Sketch 47.1 (45422) - http://www.bohemiancoding.com/sketch -->
    <title>Page 1</title>
    <desc>Created with Sketch.</desc>
    <defs></defs>
    <g id="Page-1" stroke="none" stroke-width="1" fill="none" fill-rule="evenodd">
        <g id="Artboard" transform="translate(-428.000000, -991.000000)" fill="#FFFFFF">
            <g id="Page-1" transform="translate(428.000000, 991.000000)">
                <path d="M11.7468,6.31304 C11.9688,6.43417333 12.1728,6.58444 12.3873,6.72397333 C12.8283,6.56450667 13.3008,6.47710667 13.7883,6.47710667 C15.7263,6.47710667 17.3463,7.83410667 17.8293,9.66030667 C18.0393,9.72930667 18.2463,9.80597333 18.4503,9.89644 C18.6873,10.0007067 18.9228,10.12184 19.1553,10.25984 C18.8988,7.44924 16.6023,5.23357333 13.7883,5.23357333 C12.8118,5.23357333 11.8788,5.52797333 11.0598,6.02017333 C11.2893,6.11984 11.5278,6.19650667 11.7468,6.31304" id="Fill-1"></path>
                <path d="M15.7545,20.7996667 C14.2965,20.7996667 12.9645,20.0744 12.153,18.8707333 C10.9605,20.1004667 9.3435,20.7996667 7.629,20.7996667 C4.122,20.7996667 1.269,17.8817333 1.269,14.2983333 C1.269,10.7134 4.122,7.79853333 7.629,7.79853333 C8.1375,7.79853333 8.634,7.8614 9.1125,7.981 C9.519,8.08066667 9.9105,8.22326667 10.2855,8.40113333 C11.895,9.1632 13.164,10.5907333 13.707,12.3694 C14.3355,12.0305333 15.033,11.8511333 15.7545,11.8511333 C16.4565,11.8511333 17.1135,12.0244 17.7,12.3218667 C18.078,12.5150667 18.4215,12.7588667 18.726,13.0471333 C19.5915,13.8659333 20.136,15.0297333 20.136,16.3254 C20.136,18.7925333 18.168,20.7996667 15.7545,20.7996667 M19.128,11.7085333 C18.771,11.4402 18.39,11.2040667 17.976,11.0246667 C17.2935,10.7241333 16.5435,10.557 15.7545,10.557 C15.408,10.557 15.054,10.5907333 14.7105,10.6551333 L14.4135,10.7118667 L14.2665,10.4481333 C13.929,9.844 13.515,9.28586667 13.0245,8.786 C12.4755,8.2248 11.856,7.7602 11.187,7.39833333 C10.7895,7.1852 10.3785,7.00886667 9.9525,6.87086667 C9.2085,6.63013333 8.4285,6.50286667 7.629,6.50286667 C5.5935,6.50286667 3.6765,7.31553333 2.2335,8.786 C0.7935,10.258 0,12.2160667 0,14.2983333 C0,16.3806 0.7935,18.3371333 2.2335,19.8106667 C3.6765,21.2811333 5.5935,22.0938 7.629,22.0938 C9.114,22.0938 10.554,21.6598667 11.7855,20.8364667 L12.036,20.6708667 L12.273,20.8594667 C13.275,21.6675333 14.4795,22.0938 15.7545,22.0938 C18.87,22.0938 21.402,19.5055333 21.402,16.3254 C21.402,14.4363333 20.5035,12.7619333 19.128,11.7085333" id="Fill-3"></path>
                <path d="M23.445,10.0543733 L21.387,10.0543733 C21.0795,10.0543733 20.8335,10.3135067 20.8335,10.63244 C20.8335,10.94984 21.0795,11.2089733 21.387,11.2089733 L23.445,11.2089733 C23.751,11.2089733 24,10.94984 24,10.63244 C24,10.3135067 23.751,10.0543733 23.445,10.0543733" id="Fill-5"></path>
                <path d="M13.6965,3.30786 C14.004,3.28332667 14.229,3.00579333 14.2035,2.68992667 L14.037,0.530993333 C14.0115,0.213593333 13.746,-0.0240733333 13.4415,0.00199333333 C13.14,0.0249933333 12.9075,0.30406 12.93,0.62146 L13.0995,2.77886 C13.122,3.09472667 13.395,3.33392667 13.6965,3.30786" id="Fill-7"></path>
                <path d="M8.6457,5.26638667 C8.8647,5.04405333 8.8572,4.68372 8.6397,4.46138667 L7.1397,2.93112 C6.9192,2.70572 6.5652,2.70112 6.3477,2.92498667 C6.1362,3.14272 6.1362,3.50765333 6.3567,3.73152 L7.8567,5.26178667 C8.0742,5.48718667 8.4297,5.48718667 8.6457,5.26638667" id="Fill-9"></path>
                <path d="M18.9171,5.25810667 C19.1286,5.48964 19.4796,5.50037333 19.7061,5.28570667 L21.2616,3.81370667 C21.4926,3.59597333 21.5091,3.23717333 21.2976,3.00410667 C21.0936,2.77717333 20.7381,2.76490667 20.5086,2.98110667 L18.9531,4.45157333 C18.7266,4.66624 18.7116,5.03270667 18.9171,5.25810667" id="Fill-11"></path>
            </g>
        </g>
    </g>
</svg>