<?xml version="1.0" encoding="UTF-8"?>
<svg width="24px" height="25px" viewBox="0 0 24 25" version="1.1" xmlns="http://www.w3.org/2000/svg" xmlns:xlink="http://www.w3.org/1999/xlink">
    <!-- Generator: Sketch 47.1 (45422) - http://www.bohemiancoding.com/sketch -->
    <title>Page 1</title>
    <desc>Created with Sketch.</desc>
    <defs></defs>
    <g id="Page-1" stroke="none" stroke-width="1" fill="none" fill-rule="evenodd">
        <g id="Artboard" transform="translate(-428.000000, -1027.000000)" fill="#FFFFFF">
            <g id="Page-1" transform="translate(428.000000, 1027.000000)">
                <path d="M9.0945,21.8147647 L8.9955,21.6633529 L8.8725,21.7948824 C8.022,22.6941765 6.8925,23.1942941 5.688,23.1942941 C3.2205,23.1942941 1.2135,21.0791176 1.2135,18.4775882 C1.2135,15.8775882 3.2205,13.7624118 5.688,13.7624118 C5.7375,13.7624118 5.784,13.767 5.8335,13.7685294 C6.432,13.7899412 7.008,13.9382941 7.536,14.1937059 C8.673,14.7427647 9.579,15.7797059 9.963,17.0812353 L10.0125,17.2571176 L10.17,17.1699412 C10.6065,16.9252353 11.0955,16.7967647 11.592,16.7967647 C12.696,16.7967647 13.662,17.4253529 14.1915,18.3598235 C14.451,18.8125294 14.607,19.3401765 14.622,19.9045294 C14.622,19.9351176 14.6265,19.9641765 14.6265,19.9962941 C14.6265,20.9751176 14.205,21.8514706 13.545,22.4387647 C13.3065,22.6513529 13.0335,22.8257059 12.7395,22.9557059 C12.384,23.1071176 11.9985,23.1942941 11.592,23.1942941 C10.5945,23.1942941 9.657,22.6773529 9.0945,21.8147647 M15.837,19.9962941 C15.837,19.8601765 15.8295,19.721 15.8175,19.5879412 C15.771,19.0388824 15.6255,18.5234706 15.411,18.0478235 C14.7195,16.5551176 13.2675,15.5197059 11.592,15.5197059 C11.328,15.5197059 11.064,15.5472353 10.806,15.5992353 L10.692,15.6221765 L10.6365,15.5166471 C10.3845,15.0517059 10.071,14.6204118 9.711,14.2395882 C8.9985,13.4901765 8.13,12.9686471 7.185,12.6994706 C6.7005,12.5602941 6.201,12.4838235 5.688,12.4838235 C5.673,12.4838235 5.661,12.4853529 5.646,12.4853529 C4.1415,12.4960588 2.7315,13.1185294 1.6695,14.2395882 C0.591,15.3728824 0,16.8778235 0,18.4775882 C0,20.0773529 0.591,21.5822941 1.6665,22.7155882 C2.7435,23.8488824 4.17,24.4713529 5.688,24.4713529 C6.795,24.4713529 7.869,24.1379412 8.787,23.5047647 L8.883,23.4420588 L8.97,23.5139412 C9.7245,24.1394706 10.629,24.4713529 11.592,24.4713529 C11.9865,24.4713529 12.369,24.4086471 12.729,24.3015882 C13.17,24.1731176 13.5825,23.9758235 13.953,23.7173529 C15.087,22.9098235 15.837,21.5455882 15.837,19.9962941" id="Fill-1"></path>
                <path d="M23.5275,15.1318471 C23.235,14.6898471 22.7115,14.4543176 22.1955,14.5277294 C22.149,14.5338471 22.104,14.5430235 22.0575,14.5567882 C21.7995,14.6225529 21.537,14.6745529 21.2745,14.7112588 C17.0235,15.3260824 13.074,12.2978471 12.471,7.96196471 C12.189,5.92937647 12.681,3.89067059 13.86,2.22055294 C14.1885,1.74643529 14.2005,1.09949412 13.8795,0.614670588 C13.584,0.175729412 13.062,-0.0613294118 12.5475,0.0136117647 C12.501,0.0212588235 12.4545,0.0304352941 12.411,0.0426705882 C7.5375,1.26772941 4.2945,5.75808235 4.4385,10.7669059 C4.83,10.6980824 5.2275,10.6537294 5.631,10.6506706 L5.646,10.6506706 L5.667,10.6506706 C5.5725,6.26278824 8.4315,2.34137647 12.705,1.2662 L13.068,1.17596471 L12.852,1.48490588 C11.49,3.42114118 10.9185,5.78408235 11.244,8.13937647 C11.943,13.1650235 16.5195,16.6734941 21.45,15.9607882 C21.75,15.9179647 22.0575,15.8583176 22.356,15.7833765 L22.719,15.6900824 L22.5,15.9990235 C21.282,17.7303176 19.575,18.9400824 17.616,19.5319647 C17.6265,19.6849059 17.637,19.8409059 17.637,19.9969059 C17.637,20.2844353 17.616,20.5689059 17.5785,20.8487882 C19.965,20.2278471 22.044,18.8116118 23.505,16.7377294 C23.841,16.2605529 23.8485,15.6151412 23.5275,15.1318471" id="Fill-3"></path>
            </g>
        </g>
    </g>
</svg>