<?xml version="1.0" encoding="UTF-8"?>
<svg width="24px" height="24px" viewBox="0 0 24 24" version="1.1" xmlns="http://www.w3.org/2000/svg" xmlns:xlink="http://www.w3.org/1999/xlink">
    <!-- Generator: Sketch 47.1 (45422) - http://www.bohemiancoding.com/sketch -->
    <title>Page 1</title>
    <desc>Created with Sketch.</desc>
    <defs>
        <polygon id="path-1" points="0.01895 0 1.51895 0 1.51895 3.89835 0.01895 3.89835 0.01895 0"></polygon>
    </defs>
    <g id="Page-1" stroke="none" stroke-width="1" fill="none" fill-rule="evenodd">
        <g id="Artboard" transform="translate(-428.000000, -1066.000000)">
            <g id="Page-1" transform="translate(428.000000, 1066.000000)">
                <g id="Group-3" transform="translate(11.500000, 0.000150)">
                    <mask id="mask-2" fill="white">
                        <use xlink:href="#path-1"></use>
                    </mask>
                    <g id="Clip-2"></g>
                    <path d="M0.51845,3.89835 C0.79595,3.89835 1.01945,3.66585 1.01945,3.37785 L1.01945,0.51885 C1.01945,0.23235 0.79595,-0.00015 0.51845,-0.00015 C0.24095,-0.00015 0.01895,0.23235 0.01895,0.51885 L0.01895,3.37785 C0.01895,3.66585 0.24095,3.89835 0.51845,3.89835" id="Fill-1" fill="#FFFFFF" mask="url(#mask-2)"></path>
                </g>
                <path d="M23.4999,11.8686 L20.7294,11.8686 C20.4534,11.8686 20.2299,12.0996 20.2299,12.3876 C20.2299,12.6726 20.4534,12.9051 20.7294,12.9051 L23.4999,12.9051 C23.7774,12.9051 23.9994,12.6726 23.9994,12.3876 C23.9994,12.0996 23.7774,11.8686 23.4999,11.8686" id="Fill-4" fill="#FFFFFF"></path>
                <path d="M18.53415,6.3843 L20.49165,4.3608 C20.68815,4.1598 20.68815,3.8298 20.49165,3.6273 C20.29665,3.4248 19.97565,3.4248 19.78065,3.6273 L17.82615,5.6523 C17.62815,5.8533 17.62815,6.1818 17.82615,6.3843 C18.01815,6.5868 18.33915,6.5868 18.53415,6.3843" id="Fill-6" fill="#FFFFFF"></path>
                <path d="M18.53415,18.3894 C18.33915,18.1869 18.01815,18.1869 17.82615,18.3894 C17.62815,18.5904 17.62815,18.9204 17.82615,19.1229 L19.78065,21.1464 C19.97565,21.3474 20.29665,21.3459 20.49165,21.1449 C20.68815,20.9439 20.68815,20.6154 20.49165,20.4129 L18.53415,18.3894 Z" id="Fill-8" fill="#FFFFFF"></path>
                <path d="M5.5029,6.3843 C5.6994,6.5883 6.0189,6.5868 6.2139,6.3843 C6.4089,6.1818 6.4089,5.8533 6.2139,5.6523 L4.2564,3.6273 C4.0614,3.4248 3.7419,3.4248 3.5454,3.6273 C3.3504,3.8298 3.3504,4.1598 3.5454,4.3608 L5.5029,6.3843 Z" id="Fill-10" fill="#FFFFFF"></path>
                <path d="M12.01845,7.10505 C14.83995,7.10505 17.12745,9.46905 17.12745,12.38655 C17.12745,13.67355 16.66695,14.83305 15.92445,15.74805 C16.20645,16.07655 16.44795,16.44405 16.65495,16.83555 C17.70945,15.66705 18.37395,14.11455 18.37395,12.38655 C18.37395,8.75805 15.52995,5.81655 12.01845,5.81655 C9.05745,5.81655 6.58995,7.91955 5.88495,10.75305 C6.31545,10.76355 6.73395,10.82055 7.14045,10.90605 C7.76445,8.71455 9.69795,7.10505 12.01845,7.10505" id="Fill-12" fill="#FFFFFF"></path>
                <path d="M9.1005,21.393 L9.003,21.2445 L8.8785,21.3735 C8.0295,22.257 6.897,22.746 5.6925,22.746 C3.222,22.746 1.2135,20.67 1.2135,18.117 C1.2135,15.5655 3.222,13.4895 5.6925,13.4895 C5.742,13.4895 5.7885,13.4925 5.838,13.4955 C6.4365,13.5165 7.014,13.662 7.542,13.914 C8.679,14.4525 9.585,15.4695 9.972,16.746 L10.0215,16.92 L10.179,16.8345 C10.6125,16.5945 11.1045,16.467 11.601,16.467 C12.7065,16.467 13.6725,17.085 14.202,18.0015 C14.463,18.447 14.6175,18.963 14.6325,19.518 C14.6325,19.548 14.6355,19.5765 14.6355,19.608 C14.6355,20.5695 14.217,21.429 13.554,22.0065 C13.317,22.215 13.0455,22.386 12.75,22.512 C12.393,22.662 12.0075,22.746 11.601,22.746 C10.6005,22.746 9.6645,22.2405 9.1005,21.393 M15.8505,19.608 C15.8505,19.4745 15.843,19.338 15.831,19.2075 C15.7845,18.669 15.639,18.162 15.4215,17.6955 C14.73,16.2315 13.2795,15.213 11.601,15.213 C11.3355,15.213 11.07,15.24 10.812,15.2925 L10.701,15.315 L10.644,15.2115 C10.3935,14.754 10.08,14.3325 9.7185,13.959 C9.0045,13.2225 8.136,12.711 7.188,12.4455 C6.7065,12.309 6.2055,12.2355 5.6925,12.2355 C5.676,12.2355 5.664,12.237 5.6505,12.237 C4.1445,12.246 2.733,12.858 1.668,13.959 C0.5925,15.069 0,16.548 0,18.117 C0,19.6875 0.5925,21.165 1.668,22.278 C2.745,23.3895 4.1745,24 5.6925,24 C6.801,24 7.875,23.673 8.793,23.052 L8.889,22.9905 L8.976,23.061 C9.7305,23.6745 10.6365,24 11.601,24 C11.9955,24 12.378,23.94 12.741,23.835 C13.179,23.7075 13.593,23.514 13.9605,23.2605 C15.0975,22.467 15.8505,21.129 15.8505,19.608" id="Fill-14" fill="#FFFFFF"></path>
            </g>
        </g>
    </g>
</svg>