<?xml version="1.0" encoding="UTF-8"?>
<svg width="23px" height="23px" viewBox="0 0 23 23" version="1.1" xmlns="http://www.w3.org/2000/svg" xmlns:xlink="http://www.w3.org/1999/xlink">
    <!-- Generator: Sketch 47.1 (45422) - http://www.bohemiancoding.com/sketch -->
    <title>Page 1</title>
    <desc>Created with Sketch.</desc>
    <defs>
        <polygon id="path-1" points="0.000362954792 0.114352941 22.6644706 0.114352941 22.6644706 15.0543529 0.000362954792 15.0543529"></polygon>
    </defs>
    <g id="Page-1" stroke="none" stroke-width="1" fill="none" fill-rule="evenodd">
        <g id="Artboard" transform="translate(-428.000000, -1243.000000)">
            <g id="Page-1" transform="translate(428.000000, 1243.000000)">
                <path d="M8.69392941,18.7885647 C8.69392941,19.9377412 7.76498824,20.8709176 6.60734118,20.8709176 C5.45957647,20.8709176 4.52781176,19.9377412 4.52781176,18.7885647 C4.52781176,17.6365647 5.45957647,16.7033882 6.60734118,16.7033882 C7.76498824,16.7033882 8.69392941,17.6365647 8.69392941,18.7885647" id="Fill-1" fill="#FFFFFF"></path>
                <g id="Group-5" transform="translate(0.000000, 0.297835)">
                    <mask id="mask-2" fill="white">
                        <use xlink:href="#path-1"></use>
                    </mask>
                    <g id="Clip-4"></g>
                    <path d="M22.6599529,9.66988235 C22.5286588,6.39176471 19.7503059,3.82941176 16.4693647,3.95929412 C16.1008941,3.97482353 15.7310118,4.02564706 15.3681882,4.10611765 L15.0590118,4.17529412 L14.8952471,3.90988235 C14.5140706,3.30141176 14.0538353,2.74235294 13.5145412,2.24682353 C11.9361882,0.792705882 9.88207059,0.036 7.73195294,0.119294118 C5.58324706,0.205411765 3.59689412,1.12305882 2.13712941,2.7 C0.678776471,4.27976471 -0.0779294118,6.33105882 0.00677647059,8.47694118 C0.0914823529,10.6242353 1.00912941,12.6049412 2.58748235,14.0618824 C2.99971765,14.4430588 3.44442353,14.772 3.91312941,15.0543529 L4.41712941,13.7851765 C2.64395294,12.6402353 1.43265882,10.6863529 1.34230588,8.42470588 C1.19548235,4.72870588 4.08536471,1.60447059 7.7856,1.45764706 C10.7305412,1.34188235 13.4114824,3.18423529 14.3813647,5.91317647 C15.0321882,5.53623529 15.7592471,5.32305882 16.5216,5.292 C19.0684235,5.19176471 21.2227765,7.17811765 21.3244235,9.72211765 C21.3950118,11.4797647 20.4646588,13.0496471 19.0416,13.8825882 L19.0218353,13.9362353 L19.7587765,15.0021176 C21.5672471,13.9221176 22.7488941,11.9174118 22.6599529,9.66988235" id="Fill-3" fill="#FFFFFF" mask="url(#mask-2)"></path>
                </g>
                <path d="M12.5294118,11.7737882 C12.5294118,13.3648471 11.2390588,14.6552 9.65082353,14.6552 C8.05552941,14.6552 6.76658824,13.3648471 6.76658824,11.7737882 C6.76658824,10.1813176 8.05552941,8.89096471 9.65082353,8.89096471 C11.2390588,8.89096471 12.5294118,10.1813176 12.5294118,11.7737882" id="Fill-6" fill="#FFFFFF"></path>
                <path d="M17.6939294,18.2907765 L15.1301647,13.7674824 L12.5579294,18.2907765 C12.2769882,18.7496 12.1132235,19.2959529 12.1132235,19.8691294 C12.1132235,21.5350118 13.4642824,22.8860706 15.1301647,22.8860706 C16.7904,22.8860706 18.1414588,21.5350118 18.1414588,19.8691294 C18.1414588,19.2959529 17.9791059,18.7496 17.6939294,18.2907765" id="Fill-8" fill="#FFFFFF"></path>
            </g>
        </g>
    </g>
</svg>