<?xml version="1.0" encoding="UTF-8" standalone="no"?>
<svg width="24px" height="26px" viewBox="0 0 24 26" version="1.1" xmlns="http://www.w3.org/2000/svg" xmlns:xlink="http://www.w3.org/1999/xlink">
    <!-- Generator: Sketch 48.2 (47327) - http://www.bohemiancoding.com/sketch -->
    <title>Page 1</title>
    <desc>Created with Sketch.</desc>
    <defs></defs>
    <g id="Artboard" stroke="none" stroke-width="1" fill="none" fill-rule="evenodd" transform="translate(-428.000000, -1678.000000)">
        <g id="Page-1" transform="translate(428.000000, 1677.000000)" fill="#FFFFFF">
            <path d="M9.37808,26.99935 C9.05648,26.99935 8.79408,26.727975 8.79408,26.399725 L8.79408,23.29435 L6.67248,25.486475 C6.55888,25.60185 6.41328,25.66685 6.25648,25.66685 C6.09968,25.66685 5.95248,25.60185 5.84048,25.483225 C5.73648,25.372725 5.67728,25.226475 5.67728,25.0656 C5.67728,24.89985 5.73328,24.75685 5.83888,24.6431 L7.97648,22.437975 L4.96528,22.437975 C4.64848,22.437975 4.38448,22.16985 4.38448,21.839975 C4.38448,21.50685 4.64848,21.238725 4.96528,21.238725 L7.97648,21.238725 L5.84368,19.0336 C5.73648,18.921475 5.67728,18.7736 5.67728,18.612725 C5.67728,18.450225 5.73328,18.307225 5.84048,18.193475 C5.95248,18.079725 6.09808,18.01635 6.25648,18.01635 C6.41328,18.01635 6.56048,18.076475 6.67248,18.190225 L8.79408,20.38235 L8.79408,17.280225 C8.79408,16.945475 9.05648,16.67735 9.37808,16.67735 C9.69808,16.67735 9.95888,16.945475 9.95888,17.280225 L9.95888,20.383975 L12.07888,18.190225 C12.19728,18.076475 12.34448,18.0131 12.49648,18.0131 C12.65328,18.0131 12.79888,18.076475 12.90928,18.186975 C13.01968,18.303975 13.07888,18.450225 13.07888,18.612725 C13.07888,18.771975 13.01168,18.9231 12.90608,19.035225 L10.77808,21.238725 L13.78768,21.238725 C14.10928,21.238725 14.36848,21.50685 14.36848,21.839975 C14.36848,22.16985 14.10928,22.437975 13.78768,22.437975 L10.77808,22.437975 L12.90928,24.6431 C13.01648,24.758475 13.07888,24.90635 13.07888,25.06235 C13.07888,25.216725 13.01648,25.372725 12.91088,25.483225 C12.80048,25.60185 12.65328,25.66685 12.49648,25.66685 C12.34288,25.66685 12.19408,25.603475 12.07888,25.486475 L9.95888,23.29435 L9.95888,26.399725 C9.95888,26.727975 9.69808,26.99935 9.37808,26.99935" id="Fill-1"></path>
            <g id="Group-5" transform="translate(8.000000, 0.999350)">
                <path d="M14.8296,8.996325 C14.5304,8.700575 14.1016,8.603075 13.7096,8.739575 C13.6776,8.749325 13.6456,8.76395 13.6088,8.77695 C13.444,8.856575 13.2648,8.92645 13.0888,8.989825 C10.236,9.974575 7.1112,8.453575 6.1208,5.603325 C5.6568,4.267575 5.7256,2.821325 6.3176,1.534325 C6.5048,1.121575 6.4152,0.6357 6.0952,0.3172 C5.7976,0.0247 5.3608,-0.074425 4.9752,0.058825 C4.9384,0.071825 4.9064,0.08645 4.8744,0.09945 C2.3336,1.274325 0.7528,3.6712 0.5128,6.292325 C0.8632,6.3557 1.2152,6.43695 1.5576,6.552325 C1.5656,6.552325 1.5704,6.5572 1.5752,6.558825 C1.7352,4.231825 3.1288,2.103075 5.3304,1.082575 C4.6552,2.561325 4.5192,4.2952 5.0968,5.95595 C6.2824,9.376575 10.02,11.193325 13.444,10.013575 C13.6616,9.938825 13.8648,9.85595 14.0648,9.7617 C13.5592,10.865075 12.5816,11.94245 11.532,12.629825 C11.7512,12.912575 11.8744,13.2587 12.0248,13.591825 C13.2344,12.815075 14.4344,11.560575 15.052,10.211825 C15.2392,9.8007 15.1496,9.3132 14.8296,8.996325" id="Fill-3"></path>
            </g>
            <path d="M18.06096,13.66135 C17.78416,13.36235 17.47856,13.09585 17.13776,12.86835 C16.32656,12.3256 15.35856,12.0071 14.31696,12.0071 C13.99856,12.0071 13.67856,12.03635 13.36496,12.093225 L13.09616,12.1436 L12.96176,11.90635 C12.65776,11.361975 12.27856,10.8566 11.83376,10.4081 C11.34096,9.9076 10.78576,9.493225 10.18896,9.1666 C9.83856,8.979725 9.47216,8.82535 9.09616,8.703475 C8.40656,8.472725 7.67856,8.345975 6.93136,8.345975 C5.08016,8.345975 3.34096,9.0821 2.03056,10.4081 C0.71856,11.735725 0.00016,13.5021 0.00016,15.382225 C0.00016,17.257475 0.71856,19.022225 2.03056,20.3531 C2.11696,20.442475 2.22256,20.504225 2.31216,20.5871 L3.04656,19.711225 C1.88336,18.638725 1.15216,17.09985 1.15216,15.382225 C1.15216,12.1501 3.74256,9.515975 6.93136,9.515975 C9.46896,9.515975 11.71216,11.22385 12.44976,13.64185 C13.02576,13.334725 13.66096,13.17385 14.31696,13.17385 C16.50896,13.17385 18.29456,14.9841 18.29456,17.211975 C18.29456,18.62085 17.57456,19.857475 16.49296,20.57735 L17.17776,21.50685 C18.54096,20.572475 19.44656,18.999475 19.44656,17.211975 C19.44656,15.83885 18.91536,14.5941 18.06096,13.66135" id="Fill-6"></path>
        </g>
    </g>
</svg>