<?xml version="1.0" encoding="UTF-8"?>
<svg width="24px" height="26px" viewBox="0 0 24 26" version="1.1" xmlns="http://www.w3.org/2000/svg" xmlns:xlink="http://www.w3.org/1999/xlink">
    <!-- Generator: Sketch 47.1 (45422) - http://www.bohemiancoding.com/sketch -->
    <title>Page 1</title>
    <desc>Created with Sketch.</desc>
    <defs>
        <polygon id="path-1" points="3.5216 0.221876471 3.5216 1.81011176 0.36224 1.81011176 0.36224 0.221876471 3.5216 0.221876471"></polygon>
        <polygon id="path-3" points="0.06656 0.00158823529 1.66656 0.00158823529 1.66656 3.21379412 0.06656 3.21379412 0.06656 0.00158823529"></polygon>
    </defs>
    <g id="Page-1" stroke="none" stroke-width="1" fill="none" fill-rule="evenodd">
        <g id="Artboard" transform="translate(-428.000000, -1515.000000)">
            <g id="Page-1" transform="translate(428.000000, 1515.000000)">
                <g id="Group-3" transform="translate(20.200000, 10.116853)">
                    <mask id="mask-2" fill="white">
                        <use xlink:href="#path-1"></use>
                    </mask>
                    <g id="Clip-2"></g>
                    <path d="M2.97024,0.221876471 L0.91424,0.221876471 C0.60704,0.221876471 0.36224,0.472817647 0.36224,0.784111765 C0.36224,1.09064118 0.60704,1.34158235 0.91424,1.34158235 L2.97024,1.34158235 C3.27424,1.34158235 3.52224,1.09064118 3.52224,0.784111765 C3.52224,0.472817647 3.27424,0.221876471 2.97024,0.221876471" id="Fill-1" fill="#FFFFFF" mask="url(#mask-2)"></path>
                </g>
                <g id="Group-6" transform="translate(12.800000, 0.587441)">
                    <mask id="mask-4" fill="white">
                        <use xlink:href="#path-3"></use>
                    </mask>
                    <g id="Clip-5"></g>
                    <path d="M0.62016,3.21379412 C0.92576,3.21379412 1.17216,2.96444118 1.17216,2.65632353 L1.17216,0.558264706 C1.17216,0.250147059 0.92576,0.000794117647 0.62016,0.000794117647 C0.31776,0.000794117647 0.06656,0.250147059 0.06656,0.558264706 L0.06656,2.65632353 C0.06656,2.96444118 0.31776,3.21379412 0.62016,3.21379412" id="Fill-4" fill="#FFFFFF" mask="url(#mask-4)"></path>
                </g>
                <path d="M8.40464,5.70124118 C8.62224,5.48682941 8.61424,5.13900588 8.39664,4.91982941 L6.90224,3.43641765 C6.68304,3.22041765 6.32944,3.21882941 6.11184,3.43006471 C5.90064,3.64447647 5.90064,3.99547647 6.11984,4.21306471 L7.61424,5.69488824 C7.83504,5.91565294 8.18864,5.91565294 8.40464,5.70124118" id="Fill-7" fill="#FFFFFF"></path>
                <path d="M18.6592,5.69345882 C18.88,5.90945882 19.232,5.89992941 19.4464,5.68234118 L20.9264,4.18463529 C21.1472,3.96228235 21.1472,3.61287059 20.9248,3.40004706 C20.712,3.18881176 20.3552,3.19357647 20.1376,3.41434118 L18.6576,4.91204706 C18.4416,5.13122353 18.4448,5.48381176 18.6592,5.69345882" id="Fill-9" fill="#FFFFFF"></path>
                <path d="M11.00928,7.73608824 C11.71648,7.14367647 12.61248,6.80220588 13.56448,6.80220588 C15.78848,6.80220588 17.59968,8.63502941 17.59968,10.8871471 C17.59968,10.9903824 17.58368,11.0888529 17.57568,11.1905 C17.68928,11.2572059 17.80768,11.3096176 17.91648,11.3842647 C18.17888,11.5557941 18.40768,11.7876765 18.64288,12.0068529 C18.72448,11.6415588 18.76768,11.2699118 18.76768,10.8871471 C18.76768,7.98385294 16.43488,5.62373529 13.56448,5.62373529 C12.15968,5.62373529 10.84928,6.22567647 9.88768,7.20879412 C10.19488,7.32473529 10.50848,7.44385294 10.78688,7.58997059 C10.86368,7.63444118 10.93408,7.69161765 11.00928,7.73608824" id="Fill-11" fill="#FFFFFF"></path>
                <path d="M9.71392,25.9992059 C9.38912,25.9992059 9.12512,25.7307941 9.12512,25.4052059 L9.12512,22.3256176 L6.97152,24.5030882 C6.85952,24.6142647 6.70912,24.6793824 6.55072,24.6793824 C6.39552,24.6793824 6.24192,24.6142647 6.13312,24.4999118 C6.02432,24.3871471 5.96192,24.2426176 5.96192,24.0837941 C5.96192,23.9186176 6.02112,23.7772647 6.12992,23.6645 L8.29472,21.4806765 L5.24512,21.4806765 C4.92032,21.4806765 4.65152,21.2138529 4.65152,20.8882647 C4.65152,20.5579118 4.92032,20.2910882 5.24512,20.2910882 L8.29472,20.2910882 L6.13312,18.1056765 C6.02112,17.9960882 5.96192,17.8483824 5.96192,17.6911471 C5.96192,17.5291471 6.02112,17.3862059 6.13312,17.2750294 C6.24192,17.1606765 6.39232,17.0987353 6.55072,17.0987353 C6.70912,17.0987353 6.85952,17.1590882 6.97152,17.2718529 L9.12512,19.4429706 L9.12512,16.3697353 C9.12512,16.0393824 9.38912,15.7741471 9.71392,15.7741471 C10.04192,15.7741471 10.30432,16.0393824 10.30432,16.3697353 L10.30432,19.4429706 L12.45472,17.2702647 C12.57472,17.1575 12.72192,17.0955588 12.87712,17.0955588 C13.03392,17.0955588 13.18432,17.1575 13.29632,17.2686765 C13.40832,17.3830294 13.46752,17.5291471 13.46752,17.6911471 C13.46752,17.8483824 13.40192,17.9976765 13.29472,18.1072647 L11.13792,20.2910882 L14.18752,20.2910882 C14.51232,20.2910882 14.77632,20.5579118 14.77632,20.8882647 C14.77632,21.2138529 14.51232,21.4806765 14.18752,21.4806765 L11.13792,21.4806765 L13.29632,23.6645 C13.40512,23.7804412 13.46752,23.9249706 13.46752,24.0806176 C13.46752,24.2362647 13.40512,24.3871471 13.29632,24.4999118 C13.18432,24.6142647 13.03712,24.6793824 12.87712,24.6793824 C12.72192,24.6793824 12.57152,24.6158529 12.45472,24.5030882 L10.30432,22.3256176 L10.30432,25.4052059 C10.30432,25.7307941 10.04192,25.9992059 9.71392,25.9992059" id="Fill-13" fill="#FFFFFF"></path>
                <path d="M18.3248,12.9941 C18.0448,12.6907471 17.7344,12.4207471 17.3888,12.1904529 C16.5664,11.6409235 15.584,11.3185118 14.5264,11.3185118 C14.2048,11.3185118 13.88,11.3502765 13.5616,11.4074529 L13.2896,11.4582765 L13.1552,11.2168647 C12.8448,10.6641588 12.4592,10.1559235 12.008,9.70168824 C11.5072,9.19345294 10.9456,8.77257059 10.3376,8.44380588 C9.984,8.25480588 9.6096,8.09915882 9.2288,7.97527647 C8.5296,7.74021765 7.792,7.61474706 7.0336,7.61474706 C5.1552,7.61474706 3.3888,8.35645294 2.0592,9.70168824 C0.7328,11.0453353 0,12.8321 0,14.7332176 C0,16.6327471 0.7328,18.4195118 2.0592,19.7663353 C2.1504,19.8552765 2.2544,19.9172176 2.3472,20.0013941 L3.0912,19.1151588 C1.912,18.0288059 1.1664,16.4707471 1.1664,14.7332176 C1.1664,11.4614529 3.7968,8.79957059 7.0336,8.79957059 C9.6096,8.79957059 11.8848,10.5243941 12.6336,12.9718647 C13.2176,12.6621588 13.8624,12.4985706 14.5264,12.4985706 C16.752,12.4985706 18.5632,14.3313941 18.5632,16.5835118 C18.5632,18.0097471 17.832,19.2612765 16.7344,19.9918647 L17.4288,20.9321 C18.8144,19.9871 19.7328,18.3972765 19.7328,16.5835118 C19.7328,15.1969824 19.1952,13.9375118 18.3248,12.9941" id="Fill-15" fill="#FFFFFF"></path>
            </g>
        </g>
    </g>
</svg>