<?xml version="1.0" encoding="UTF-8"?>
<svg width="24px" height="26px" viewBox="0 0 24 26" version="1.1" xmlns="http://www.w3.org/2000/svg" xmlns:xlink="http://www.w3.org/1999/xlink">
    <!-- Generator: Sketch 47.1 (45422) - http://www.bohemiancoding.com/sketch -->
    <title>Page 1</title>
    <desc>Created with Sketch.</desc>
    <defs>
        <polygon id="path-1" points="0.1424 0.00158823529 1.7424 0.00158823529 1.7424 3.2346 0.1424 3.2346 0.1424 0.00158823529"></polygon>
    </defs>
    <g id="Page-1" stroke="none" stroke-width="1" fill="none" fill-rule="evenodd">
        <g id="Artboard" transform="translate(-428.000000, -1444.000000)">
            <g id="Page-1" transform="translate(428.000000, 1444.000000)">
                <path d="M23.31168,10.4011471 L21.24288,10.4011471 C20.93728,10.4011471 20.68768,10.6520882 20.68768,10.9633824 C20.68768,11.2730882 20.93728,11.5256176 21.24288,11.5256176 L23.31168,11.5256176 C23.61728,11.5256176 23.86848,11.2730882 23.86848,10.9633824 C23.86848,10.6520882 23.61728,10.4011471 23.31168,10.4011471" id="Fill-1" fill="#FFFFFF"></path>
                <g id="Group-5" transform="translate(12.800000, 0.587282)">
                    <mask id="mask-2" fill="white">
                        <use xlink:href="#path-1"></use>
                    </mask>
                    <g id="Clip-4"></g>
                    <path d="M0.7008,3.2346 C1.008,3.2346 1.2592,2.98048235 1.2592,2.67236471 L1.2592,0.560011765 C1.2592,0.250305882 1.008,0.000952941176 0.7008,0.000952941176 C0.3968,0.000952941176 0.1424,0.250305882 0.1424,0.560011765 L0.1424,2.67236471 C0.1424,2.98048235 0.3968,3.2346 0.7008,3.2346" id="Fill-3" fill="#FFFFFF" mask="url(#mask-2)"></path>
                </g>
                <path d="M8.45392,5.73268824 C8.67472,5.5151 8.66672,5.16568824 8.44912,4.9481 L6.94192,3.45515882 C6.72112,3.23598235 6.36592,3.23280588 6.14672,3.44880588 C5.93392,3.66321765 5.93392,4.01739412 6.15472,4.23657059 L7.66192,5.72633529 C7.88112,5.9471 8.23792,5.9471 8.45392,5.73268824" id="Fill-6" fill="#FFFFFF"></path>
                <path d="M18.77424,5.72490588 C18.99344,5.94090588 19.34864,5.93455294 19.56624,5.71378824 L21.05584,4.20655294 C21.27504,3.98261176 21.27504,3.6332 21.05424,3.4172 C20.83824,3.20596471 20.47824,3.21072941 20.25904,3.43149412 L18.77104,4.93872941 C18.55344,5.15949412 18.55504,5.51525882 18.77424,5.72490588" id="Fill-8" fill="#FFFFFF"></path>
                <path d="M11.07584,7.77992353 C11.78784,7.18433529 12.68864,6.84127647 13.64864,6.84127647 C15.88704,6.84127647 17.70944,8.68521765 17.70944,10.9532176 C17.70944,11.0564529 17.69344,11.1533353 17.68384,11.2565706 C17.79584,11.3216882 17.91584,11.3772765 18.02624,11.4535118 C18.29184,11.6250412 18.51744,11.8553353 18.75584,12.0776882 C18.83904,11.7108059 18.88384,11.3343941 18.88384,10.9532176 C18.88384,8.03086471 16.53664,5.65486471 13.64864,5.65486471 C12.23424,5.65486471 10.91584,6.25998235 9.94624,7.24945294 C10.25504,7.36698235 10.57504,7.4861 10.85024,7.63380588 C10.92864,7.67986471 11.00064,7.73545294 11.07584,7.77992353" id="Fill-10" fill="#FFFFFF"></path>
                <path d="M18.4368,13.0704941 C18.1552,12.7655529 17.8416,12.4955529 17.496,12.2620824 C16.6688,11.7109647 15.6784,11.3837882 14.616,11.3837882 C14.2912,11.3837882 13.9632,11.4155529 13.6432,11.4743176 L13.368,11.5251412 L13.2336,11.2821412 C12.9216,10.7262588 12.5344,10.2148471 12.08,9.75743529 C11.576,9.2492 11.008,8.82514118 10.4,8.4932 C10.0432,8.30102353 9.6688,8.14537647 9.2864,8.01990588 C8.5808,7.78484706 7.8384,7.65937647 7.0752,7.65937647 C5.1872,7.65937647 3.408,8.40425882 2.0704,9.75743529 C0.7344,11.1106118 0,12.9069059 0,14.8223176 C0,16.7329647 0.7344,18.5308471 2.0704,19.8840235 C2.1616,19.9745529 2.2672,20.0380824 2.3616,20.1222588 L3.1088,19.2296706 C1.9216,18.1369647 1.1744,16.5693765 1.1744,14.8223176 C1.1744,11.5299059 3.8176,8.85055294 7.0752,8.85055294 C9.6672,8.85055294 11.9552,10.5849059 12.712,13.0498471 C13.296,12.7369647 13.9456,12.5733765 14.616,12.5733765 C16.8544,12.5733765 18.6752,14.4173176 18.6752,16.6821412 C18.6752,18.1194941 17.9408,19.3789647 16.8368,20.1143176 L17.536,21.0593176 C18.9296,20.1079647 19.8544,18.5070235 19.8544,16.6821412 C19.8544,15.2876706 19.312,14.0202588 18.4368,13.0704941" id="Fill-12" fill="#FFFFFF"></path>
                <path d="M12.48832,21.0659882 L9.71392,16.2044 L6.92992,21.0659882 C6.62912,21.5567529 6.45152,22.1428118 6.45152,22.7590471 C6.45152,24.5474 7.91232,25.9990471 9.71392,25.9990471 C11.51392,25.9990471 12.97472,24.5474 12.97472,22.7590471 C12.97472,22.1428118 12.79872,21.5567529 12.48832,21.0659882" id="Fill-14" fill="#FFFFFF"></path>
            </g>
        </g>
    </g>
</svg>