<?xml version="1.0" encoding="UTF-8"?>
<svg width="24px" height="23px" viewBox="0 0 24 23" version="1.1" xmlns="http://www.w3.org/2000/svg" xmlns:xlink="http://www.w3.org/1999/xlink">
    <!-- Generator: Sketch 47.1 (45422) - http://www.bohemiancoding.com/sketch -->
    <title>Page 1</title>
    <desc>Created with Sketch.</desc>
    <defs>
        <polygon id="path-1" points="0.0006 0.00141176471 24 0.00141176471 24 16.0400471 0.0006 16.0400471"></polygon>
    </defs>
    <g id="Page-1" stroke="none" stroke-width="1" fill="none" fill-rule="evenodd">
        <g id="Artboard" transform="translate(-428.000000, -131.000000)">
            <g id="Page-1" transform="translate(428.000000, 131.000000)">
                <path d="M7.137,10.9328 C7.4805,11.0838588 7.6275,11.4749176 7.4715,11.8052706 L4.179,18.5309176 C4.023,18.8570353 3.6105,18.9996235 3.27,18.8471529 C2.925,18.6960941 2.778,18.3050353 2.934,17.9760941 L6.2265,11.2504471 C6.387,10.9229176 6.7935,10.7789176 7.137,10.9328" id="Fill-1" fill="#FFFFFF"></path>
                <path d="M10.9968,10.6570824 C11.3403,10.8081412 11.4888,11.2006118 11.3298,11.5281412 L6.6333,21.3808471 C6.4728,21.7083765 6.0648,21.8509647 5.7198,21.6984941 C5.3793,21.5460235 5.2278,21.1563765 5.3883,20.8274353 L10.0878,10.9747294 C10.2438,10.6472 10.6533,10.5046118 10.9968,10.6570824" id="Fill-3" fill="#FFFFFF"></path>
                <path d="M17.6706,12.7202353 C18.0141,12.8712941 18.1626,13.2623529 18.0066,13.5898824 L13.9461,22.0223529 C13.7826,22.3512941 13.3776,22.4938824 13.0326,22.3414118 C12.6951,22.1903529 12.5406,21.7992941 12.7011,21.4703529 L16.7616,13.0364706 C16.9206,12.7089412 17.3271,12.5663529 17.6706,12.7202353" id="Fill-5" fill="#FFFFFF"></path>
                <path d="M14.8845,10.6707765 C15.228,10.8218353 15.3765,11.2128941 15.2175,11.5390118 L10.047,22.6199529 C9.891,22.9488941 9.4785,23.0900706 9.138,22.9376 C8.793,22.7851294 8.646,22.3968941 8.802,22.0679529 L13.9755,10.9884235 C14.1315,10.6608941 14.541,10.5168941 14.8845,10.6707765" id="Fill-7" fill="#FFFFFF"></path>
                <g id="Group-11" transform="translate(0.000000, 0.410776)">
                    <mask id="mask-2" fill="white">
                        <use xlink:href="#path-1"></use>
                    </mask>
                    <g id="Clip-10"></g>
                    <path d="M17.6691,4.25181176 C17.2746,4.25181176 16.8786,4.28428235 16.4916,4.35345882 L16.1616,4.41416471 L15.9996,4.13745882 C15.6216,3.50357647 15.1506,2.91769412 14.6031,2.39534118 C12.9906,0.850870588 10.8381,0.000988235294 8.5551,0.000988235294 C6.2676,0.000988235294 4.1196,0.850870588 2.5026,2.39534118 C0.8886,3.93698824 0.0006,5.99110588 0.0006,8.17228235 C0.0006,10.0442824 0.6546,11.8132235 1.8576,13.2560471 L2.5326,11.8061647 C1.8321,10.7529882 1.4181,9.51204706 1.4181,8.17228235 C1.4181,4.41557647 4.6206,1.35769412 8.5551,1.35769412 C11.6871,1.35769412 14.4501,3.34122353 15.3666,6.15204706 C16.0746,5.79628235 16.8531,5.60851765 17.6691,5.60851765 C20.3766,5.60851765 22.5771,7.71204706 22.5771,10.2984 C22.5771,11.8965176 21.7356,13.3040471 20.4501,14.1496941 L19.5711,16.0400471 C22.1286,15.2635765 24.0006,12.9948706 24.0006,10.2984 C24.0006,6.96381176 21.1566,4.25181176 17.6691,4.25181176" id="Fill-9" fill="#FFFFFF" mask="url(#mask-2)"></path>
                </g>
            </g>
        </g>
    </g>
</svg>