<?xml version="1.0" encoding="UTF-8"?>
<svg width="23px" height="23px" viewBox="0 0 23 23" version="1.1" xmlns="http://www.w3.org/2000/svg" xmlns:xlink="http://www.w3.org/1999/xlink">
    <!-- Generator: Sketch 47.1 (45422) - http://www.bohemiancoding.com/sketch -->
    <title>Page 1</title>
    <desc>Created with Sketch.</desc>
    <defs>
        <polygon id="path-1" points="22.5882353 0.000575 22.5882353 15.1906375 0.000705882353 15.1906375 0.000705882353 0.000575 22.5882353 0.000575"></polygon>
    </defs>
    <g id="Page-1" stroke="none" stroke-width="1" fill="none" fill-rule="evenodd">
        <g id="Artboard" transform="translate(-428.000000, -455.000000)">
            <g id="Page-1" transform="translate(428.000000, 454.000000)">
                <g id="Group-3" transform="translate(0.000000, 0.999425)">
                    <mask id="mask-2" fill="white">
                        <use xlink:href="#path-1"></use>
                    </mask>
                    <g id="Clip-2"></g>
                    <path d="M16.6298824,4.25845 C16.26,4.25845 15.8901176,4.29295 15.5258824,4.36195 L15.2124706,4.4208875 L15.06,4.14345 C14.7028235,3.508075 14.2623529,2.921575 13.7456471,2.3968875 C12.228,0.8530125 10.2007059,0.000575 8.052,0.000575 C5.89905882,0.000575 3.88023529,0.8530125 2.35835294,2.3968875 C0.836470588,3.9436375 0.000705882353,6.0007 0.000705882353,8.1871375 C0.000705882353,10.3750125 0.836470588,12.4292 2.35835294,13.9745125 C2.53341176,14.1527625 2.71694118,14.3152 2.89905882,14.473325 L3.78564706,13.43545 C2.29905882,12.184825 1.33905882,10.3031375 1.33905882,8.1871375 C1.33905882,4.4252 4.35035294,1.36045 8.052,1.36045 C11.0011765,1.36045 13.6044706,3.347075 14.4670588,6.1617 C15.1291765,5.8066375 15.8675294,5.6168875 16.6298824,5.6168875 C19.1781176,5.6168875 21.2491765,7.7271375 21.2491765,10.3175125 C21.2491765,11.82545 20.5418824,13.162325 19.4534118,14.02195 L20.1494118,15.1906375 C21.6247059,14.0895125 22.5889412,12.317075 22.5889412,10.3175125 C22.5889412,6.975325 19.9136471,4.25845 16.6298824,4.25845" id="Fill-1" fill="#FFFFFF" mask="url(#mask-2)"></path>
                </g>
                <path d="M11.2516235,23.999425 C10.8760941,23.999425 10.5739765,23.6918 10.5739765,23.3108625 L10.5739765,19.4094875 L7.86056471,22.16805 C7.73491765,22.2988625 7.55985882,22.3707375 7.37915294,22.3707375 C7.19421176,22.3707375 7.02903529,22.2988625 6.89915294,22.1694875 C6.76785882,22.0358 6.69727059,21.8618625 6.69727059,21.6778625 C6.69727059,21.4909875 6.76785882,21.3184875 6.89632941,21.1891125 L9.61115294,18.4291125 L5.77397647,18.4291125 C5.39985882,18.4291125 5.09915294,18.1214875 5.09915294,17.74055 C5.09915294,17.3596125 5.39985882,17.047675 5.77397647,17.047675 L9.61115294,17.047675 L6.89915294,14.2891125 C6.76785882,14.1597375 6.69727059,13.9872375 6.69727059,13.8018 C6.69727059,13.6178 6.76785882,13.4453 6.89632941,13.3144875 C7.02903529,13.1822375 7.19844706,13.1103625 7.37915294,13.1103625 C7.55985882,13.1103625 7.73491765,13.1822375 7.86056471,13.3144875 L10.5739765,16.0658625 L10.5739765,12.1702375 C10.5739765,11.7878625 10.8760941,11.4773625 11.2516235,11.4773625 C11.6285647,11.4773625 11.9292706,11.7878625 11.9292706,12.1702375 L11.9292706,16.0687375 L14.6412706,13.3116125 C14.7711529,13.1808 14.9405647,13.108925 15.1240941,13.108925 C15.3048,13.108925 15.4756235,13.1808 15.6026824,13.3116125 C15.7325647,13.4409875 15.8031529,13.614925 15.8059765,13.8003625 C15.8059765,13.9858 15.7325647,14.1597375 15.6026824,14.2891125 L12.8892706,17.047675 L16.7292706,17.047675 C17.1033882,17.047675 17.4069176,17.3596125 17.4069176,17.74055 C17.4069176,18.1214875 17.1033882,18.4291125 16.7292706,18.4291125 L12.8892706,18.4291125 L15.6026824,21.1891125 C15.7325647,21.319925 15.8031529,21.492425 15.8059765,21.6749875 C15.8059765,21.8618625 15.7325647,22.0343625 15.6026824,22.16805 C15.4756235,22.2988625 15.3048,22.3707375 15.1240941,22.3707375 C14.9405647,22.3707375 14.7697412,22.2988625 14.6384471,22.1666125 L11.9292706,19.4094875 L11.9292706,23.3108625 C11.9292706,23.6918 11.6285647,23.999425 11.2516235,23.999425" id="Fill-4" fill="#FFFFFF"></path>
            </g>
        </g>
    </g>
</svg>