<?xml version="1.0" encoding="UTF-8"?>
<svg width="24px" height="25px" viewBox="0 0 24 25" version="1.1" xmlns="http://www.w3.org/2000/svg" xmlns:xlink="http://www.w3.org/1999/xlink">
    <!-- Generator: Sketch 47.1 (45422) - http://www.bohemiancoding.com/sketch -->
    <title>Page 1</title>
    <desc>Created with Sketch.</desc>
    <defs>
        <polygon id="path-1" points="8.13151629e-20 15.95045 8.13151629e-20 0.49895 23.9994 0.49895 23.9994 15.95045 0 15.95045"></polygon>
    </defs>
    <g id="Page-1" stroke="none" stroke-width="1" fill="none" fill-rule="evenodd">
        <g id="Artboard" transform="translate(-428.000000, -491.000000)">
            <g id="Page-1" transform="translate(428.000000, 491.000000)">
                <path d="M20.1471,20.09855 L17.6886,15.76505 L15.2271,20.09855 C14.9586,20.53955 14.8026,21.06155 14.8026,21.61205 C14.8026,23.20805 16.0941,24.50105 17.6886,24.50105 C19.2846,24.50105 20.5746,23.20805 20.5746,21.61205 C20.5746,21.06155 20.4216,20.53955 20.1471,20.09855" id="Fill-1" fill="#FFFFFF"></path>
                <path d="M9.47715,20.61995 C9.15765,20.61995 8.89965,20.35745 8.89965,20.03645 L8.89965,17.01095 L6.80415,19.14695 C6.69315,19.25945 6.54615,19.32245 6.38565,19.32245 C6.23865,19.32245 6.09015,19.25795 5.97915,19.14545 C5.87865,19.03745 5.82015,18.89195 5.82015,18.73745 C5.82015,18.57545 5.87865,18.43595 5.97615,18.32645 L8.09115,16.17845 L5.11965,16.17845 C4.80015,16.17845 4.53765,15.91745 4.53765,15.59645 C4.53765,15.27395 4.80015,15.01145 5.11965,15.01145 L8.09115,15.01145 L5.98365,12.86345 C5.87865,12.75545 5.82015,12.61295 5.82015,12.45395 C5.82015,12.29795 5.87865,12.15545 5.97915,12.04595 C6.09015,11.93345 6.23565,11.87195 6.38565,11.87195 C6.54615,11.87195 6.69315,11.93195 6.80415,12.04145 L8.89965,14.17745 L8.89965,11.15645 C8.89965,10.83245 9.15765,10.56995 9.47715,10.56995 C9.79815,10.56995 10.05315,10.83245 10.05315,11.15645 L10.05315,14.17745 L12.14565,12.03995 C12.26565,11.93045 12.40965,11.86895 12.56415,11.86895 C12.71415,11.86895 12.86265,11.93045 12.96915,12.03995 C13.07715,12.15245 13.13565,12.29345 13.13565,12.45395 C13.13565,12.60995 13.07415,12.75695 12.96615,12.86345 L10.86465,15.01145 L13.83615,15.01145 C14.15565,15.01145 14.41365,15.27395 14.41365,15.59645 C14.41365,15.91745 14.15565,16.17845 13.83615,16.17845 L10.86465,16.17845 L12.96915,18.32645 C13.07715,18.43895 13.13565,18.58145 13.13565,18.73445 C13.13565,18.88595 13.07715,19.03745 12.97215,19.14545 C12.86265,19.25945 12.71415,19.32245 12.56415,19.32245 C12.40965,19.32245 12.26265,19.26095 12.14565,19.14695 L10.05315,17.01095 L10.05315,20.03645 C10.05315,20.35745 9.79815,20.61995 9.47715,20.61995" id="Fill-3" fill="#FFFFFF"></path>
                <g id="Group-7" transform="translate(0.000000, 0.001050)">
                    <mask id="mask-2" fill="white">
                        <use xlink:href="#path-1"></use>
                    </mask>
                    <g id="Clip-6"></g>
                    <path d="M22.5759,11.26445 C22.5759,12.65645 21.9894,13.91345 21.0519,14.80595 L21.8874,15.95045 C23.1789,14.79395 23.9994,13.12745 23.9994,11.26445 C23.9994,7.77695 21.1599,4.94345 17.6679,4.94345 C17.2779,4.94345 16.8774,4.98095 16.4904,5.04995 L16.1649,5.11295 L15.9984,4.82345 C15.6204,4.16045 15.1539,3.54695 14.6064,3.00095 C12.9864,1.38845 10.8414,0.49895 8.5539,0.49895 C6.2709,0.49895 4.1184,1.38845 2.5014,3.00095 C0.8904,4.61495 -0.0006,6.76295 -0.0006,9.04295 C-0.0006,11.32595 0.8904,13.46795 2.5014,15.08195 C2.5044,15.08345 2.5044,15.08495 2.5074,15.08645 L3.3249,13.86695 C2.1489,12.59645 1.4199,10.90745 1.4199,9.04295 C1.4199,5.11445 4.6194,1.91945 8.5539,1.91945 C11.6859,1.91945 14.4519,3.98945 15.3654,6.92795 C16.0719,6.55595 16.8564,6.35945 17.6679,6.35945 C20.3724,6.35945 22.5759,8.55995 22.5759,11.26445" id="Fill-5" fill="#FFFFFF" mask="url(#mask-2)"></path>
                </g>
            </g>
        </g>
    </g>
</svg>