<?xml version="1.0" encoding="UTF-8"?>
<svg width="24px" height="24px" viewBox="0 0 24 24" version="1.1" xmlns="http://www.w3.org/2000/svg" xmlns:xlink="http://www.w3.org/1999/xlink">
    <!-- Generator: Sketch 47.1 (45422) - http://www.bohemiancoding.com/sketch -->
    <title>Page 1</title>
    <desc>Created with Sketch.</desc>
    <defs>
        <polygon id="path-1" points="-0.00025 0 1.49975 0 1.49975 3.7764 -0.00025 3.7764 -0.00025 2.66453526e-15"></polygon>
        <polygon id="path-3" points="4.5 0.9975 4.5 2.4975 0.72225 2.4975 0.72225 0.9975 4.5 0.9975"></polygon>
    </defs>
    <g id="Page-1" stroke="none" stroke-width="1" fill="none" fill-rule="evenodd">
        <g id="Artboard" transform="translate(-428.000000, -1134.000000)">
            <g id="Page-1" transform="translate(428.000000, 1134.000000)">
                <path d="M12.00075,6.88245 C9.17175,6.88245 6.88275,9.17295 6.88275,12.00045 C6.88275,14.82795 9.17175,17.11845 12.00075,17.11845 C14.82825,17.11845 17.11725,14.82795 17.11725,12.00045 C17.11725,9.17295 14.82825,6.88245 12.00075,6.88245 M18.36675,12.00045 C18.36675,15.51645 15.51675,18.36645 12.00075,18.36645 C8.48475,18.36645 5.63325,15.51645 5.63325,12.00045 C5.63325,8.48445 8.48475,5.63445 12.00075,5.63445 C15.51675,5.63445 18.36675,8.48445 18.36675,12.00045" id="Fill-1" fill="#FFFFFF"></path>
                <g id="Group-5" transform="translate(11.500000, 0.000600)">
                    <mask id="mask-2" fill="white">
                        <use xlink:href="#path-1"></use>
                    </mask>
                    <g id="Clip-4"></g>
                    <path d="M0.50075,3.7764 C0.22325,3.7764 -0.00025,3.5514 -0.00025,3.2754 L-0.00025,0.5019 C-0.00025,0.2259 0.22325,-0.0006 0.50075,-0.0006 C0.77825,-0.0006 1.00475,0.2259 1.00475,0.5019 L1.00475,3.2754 C1.00475,3.5514 0.77825,3.7764 0.50075,3.7764" id="Fill-3" fill="#FFFFFF" mask="url(#mask-2)"></path>
                </g>
                <path d="M12.00075,24.0006 C11.72325,24.0006 11.49975,23.7756 11.49975,23.4981 L11.49975,20.7246 C11.49975,20.4501 11.72325,20.2236 12.00075,20.2236 C12.27825,20.2236 12.50475,20.4501 12.50475,20.7246 L12.50475,23.4981 C12.50475,23.7756 12.27825,24.0006 12.00075,24.0006" id="Fill-6" fill="#FFFFFF"></path>
                <path d="M3.7785,12.0006 C3.7785,12.2796 3.552,12.5031 3.2745,12.5031 L0.504,12.5031 C0.2265,12.5031 0,12.2796 0,12.0006 C0,11.7231 0.2265,11.4981 0.504,11.4981 L3.2745,11.4981 C3.552,11.4981 3.7785,11.7231 3.7785,12.0006" id="Fill-8" fill="#FFFFFF"></path>
                <g id="Group-12" transform="translate(19.500000, 10.500600)">
                    <mask id="mask-4" fill="white">
                        <use xlink:href="#path-3"></use>
                    </mask>
                    <g id="Clip-11"></g>
                    <path d="M4.50075,1.5 C4.50075,1.779 4.27425,2.0025 3.99975,2.0025 L1.22625,2.0025 C0.95025,2.0025 0.72225,1.779 0.72225,1.5 C0.72225,1.2225 0.95025,0.9975 1.22625,0.9975 L3.99975,0.9975 C4.27425,0.9975 4.50075,1.2225 4.50075,1.5" id="Fill-10" fill="#FFFFFF" mask="url(#mask-4)"></path>
                </g>
                <path d="M6.18525,17.8161 C6.38325,18.0126 6.38325,18.3306 6.18525,18.5256 L4.22625,20.4861 C4.02825,20.6811 3.71175,20.6811 3.51675,20.4861 C3.32025,20.2896 3.32025,19.9731 3.51675,19.7766 L5.47575,17.8161 C5.67225,17.6196 5.98875,17.6196 6.18525,17.8161" id="Fill-13" fill="#FFFFFF"></path>
                <path d="M20.48505,3.5163 C20.68155,3.7128 20.68005,4.0293 20.48505,4.2258 L18.52455,6.1848 C18.32805,6.3813 18.01305,6.3813 17.81655,6.1848 C17.61855,5.9898 17.61855,5.6733 17.81655,5.4768 L19.77405,3.5163 C19.97205,3.3198 20.29005,3.3198 20.48505,3.5163" id="Fill-15" fill="#FFFFFF"></path>
                <path d="M17.8161,17.8161 C18.0126,17.6196 18.3291,17.6196 18.5256,17.8161 L20.4846,19.7766 C20.6811,19.9731 20.6811,20.2896 20.4846,20.4846 C20.2896,20.6811 19.9731,20.6811 19.7751,20.4861 L17.8161,18.5256 C17.6181,18.3306 17.6181,18.0111 17.8161,17.8161" id="Fill-17" fill="#FFFFFF"></path>
                <path d="M3.5163,3.5163 C3.7113,3.3198 4.0293,3.3198 4.2273,3.5163 L6.1848,5.4768 C6.3828,5.6733 6.3828,5.9898 6.1848,6.1848 C5.9883,6.3813 5.6733,6.3813 5.4768,6.1848 L3.5163,4.2258 C3.3198,4.0293 3.3198,3.7113 3.5163,3.5163" id="Fill-19" fill="#FFFFFF"></path>
            </g>
        </g>
    </g>
</svg>