<?xml version="1.0" encoding="UTF-8"?>
<svg width="24px" height="24px" viewBox="0 0 24 24" version="1.1" xmlns="http://www.w3.org/2000/svg" xmlns:xlink="http://www.w3.org/1999/xlink">
    <!-- Generator: Sketch 47.1 (45422) - http://www.bohemiancoding.com/sketch -->
    <title>Page 1</title>
    <desc>Created with Sketch.</desc>
    <defs>
        <polygon id="path-1" points="0.0006 5.32907052e-15 24 5.32907052e-15 24 15.8529 0.0006 15.8529 0.0006 0"></polygon>
    </defs>
    <g id="Page-1" stroke="none" stroke-width="1" fill="none" fill-rule="evenodd">
        <g id="Artboard" transform="translate(-428.000000, -94.000000)">
            <g id="Page-1" transform="translate(428.000000, 94.000000)">
                <g id="Group-3" transform="translate(0.000000, 0.000600)">
                    <mask id="mask-2" fill="white">
                        <use xlink:href="#path-1"></use>
                    </mask>
                    <g id="Clip-2"></g>
                    <path d="M17.6691,4.4454 C17.2746,4.4454 16.8816,4.4799 16.4946,4.5534 L16.1616,4.6149 L15.9996,4.3239 C15.6216,3.6639 15.1536,3.0504 14.6031,2.5029 C12.9906,0.8904 10.8381,-0.0006 8.5551,-0.0006 C6.2676,-0.0006 4.1226,0.8904 2.5056,2.5029 C0.8886,4.1169 0.0006,6.2649 0.0006,8.5434 C0.0006,10.8264 0.8886,12.9714 2.5056,14.5854 C2.6901,14.7669 2.8866,14.9394 3.0801,15.1029 L4.0206,14.0229 C2.4411,12.7164 1.4211,10.7529 1.4211,8.5434 C1.4211,4.6164 4.6206,1.4214 8.5551,1.4214 C11.6871,1.4214 14.4531,3.4914 15.3696,6.4314 C16.0746,6.0579 16.8576,5.8629 17.6691,5.8629 C20.3766,5.8629 22.5771,8.0619 22.5771,10.7679 C22.5771,12.3414 21.8256,13.7349 20.6691,14.6319 L21.4086,15.8529 C22.9761,14.7054 24.0006,12.8529 24.0006,10.7679 C24.0006,7.2789 21.1566,4.4454 17.6691,4.4454" id="Fill-1" fill="#FFFFFF" mask="url(#mask-2)"></path>
                </g>
                <polygon id="Fill-4" fill="#FFFFFF" points="17.634 9.63735 11.838 9.63735 6.2925 16.71135 10.9545 16.70985 5.4345 23.99985 17.976 14.46735 13.0185 14.46735"></polygon>
            </g>
        </g>
    </g>
</svg>