<?xml version="1.0" encoding="UTF-8"?>
<svg width="24px" height="20px" viewBox="0 0 24 20" version="1.1" xmlns="http://www.w3.org/2000/svg" xmlns:xlink="http://www.w3.org/1999/xlink">
    <!-- Generator: Sketch 47.1 (45422) - http://www.bohemiancoding.com/sketch -->
    <title>Page 1</title>
    <desc>Created with Sketch.</desc>
    <defs>
        <polygon id="path-1" points="12.5 0.165692308 12.5 5.52876923 0.13055 5.52876923 0.13055 0.165692308 12.5 0.165692308"></polygon>
    </defs>
    <g id="Page-1" stroke="none" stroke-width="1" fill="none" fill-rule="evenodd">
        <g id="Artboard" transform="translate(-428.000000, -853.000000)">
            <g id="Page-1" transform="translate(428.000000, 853.000000)">
                <path d="M18.62895,10.9644615 L10.84545,10.9644615 C10.51695,10.9644615 10.24545,11.2383077 10.24545,11.5752308 C10.24545,11.9121538 10.51695,12.1844615 10.84545,12.1844615 L18.62895,12.1844615 C20.44245,12.1844615 21.91695,13.6952308 21.91695,15.5521538 C21.91695,16.9675385 20.79045,18.1213846 19.40745,18.1213846 C18.36195,18.1213846 17.51595,17.2536923 17.51595,16.1890769 C17.51595,15.4029231 18.14145,14.7613846 18.90945,14.7613846 C19.23345,14.7613846 19.50495,14.4890769 19.50495,14.1521538 C19.50495,13.8167692 19.23345,13.5429231 18.90945,13.5429231 C17.48295,13.5429231 16.32495,14.7290769 16.32495,16.1890769 C16.32495,17.926 17.70795,19.3413846 19.40745,19.3413846 C21.44895,19.3413846 23.10495,17.6413846 23.10495,15.5521538 C23.10495,13.0229231 21.09795,10.9644615 18.62895,10.9644615" id="Fill-1" fill="#FFFFFF"></path>
                <g id="Group-5" transform="translate(11.500000, 3.956923)">
                    <mask id="mask-2" fill="white">
                        <use xlink:href="#path-1"></use>
                    </mask>
                    <g id="Clip-4"></g>
                    <path d="M10.10405,0.165692308 C9.77255,0.165692308 9.50855,0.439538462 9.50855,0.774923077 C9.50855,1.11184615 9.77255,1.38569231 10.10405,1.38569231 C10.76705,1.38569231 11.30855,1.938 11.30855,2.618 C11.30855,3.55030769 10.56755,4.31184615 9.65405,4.31184615 L0.72455,4.31184615 C0.39605,4.31184615 0.13055,4.58261538 0.13055,4.91953846 C0.13055,5.25646154 0.39605,5.52876923 0.72455,5.52876923 L9.65405,5.52876923 C11.22155,5.52876923 12.50105,4.22261538 12.50105,2.618 C12.50105,1.26723077 11.42555,0.165692308 10.10405,0.165692308" id="Fill-3" fill="#FFFFFF" mask="url(#mask-2)"></path>
                </g>
                <path d="M7.3614,1.28307692 C10.0599,1.28307692 12.4389,3.15538462 13.2264,5.81076923 C13.8339,5.47846154 14.5089,5.29692308 15.2064,5.29692308 C16.1634,5.29692308 17.0424,5.64307692 17.7549,6.21076923 L18.6624,5.34 C17.7204,4.52 16.5219,4.01538462 15.2064,4.01538462 C14.8674,4.01538462 14.5269,4.05076923 14.1954,4.11692308 L13.9089,4.17076923 L13.7679,3.90923077 C13.4454,3.31076923 13.0389,2.75538462 12.5709,2.26307692 C11.1774,0.804615385 9.3294,0 7.3614,0 C5.3934,0 3.5454,0.804615385 2.1519,2.26307692 C0.7659,3.72153846 0.0009,5.66153846 0.0009,7.72307692 C0.0009,9.78615385 0.7659,11.7246154 2.1519,13.1815385 C3.5424,14.6369231 5.3889,15.4384615 7.3494,15.4415385 L14.3289,15.4415385 L15.0054,14.1584615 L7.2909,14.1584615 C3.9384,14.1169231 1.2204,11.2476923 1.2204,7.72307692 C1.2204,4.17230769 3.9744,1.28307692 7.3614,1.28307692" id="Fill-6" fill="#FFFFFF"></path>
            </g>
        </g>
    </g>
</svg>