<?xml version="1.0" encoding="UTF-8"?>
<svg width="16px" height="16px" viewBox="0 0 16 16" version="1.1" xmlns="http://www.w3.org/2000/svg" xmlns:xlink="http://www.w3.org/1999/xlink">
    <!-- Generator: Sketch 48.2 (47327) - http://www.bohemiancoding.com/sketch -->
    <title>Fill 32</title>
    <desc>Created with Sketch.</desc>
    <defs></defs>
    <g id="Booker-Collasped---not-sign-in" stroke="none" stroke-width="1" fill="none" fill-rule="evenodd" transform="translate(-944.000000, -27.000000)">
        <g id="Group-6" transform="translate(131.000000, 24.000000)" fill="#FFFFFF">
            <g id="meta-nav" transform="translate(629.000000, 3.000000)">
                <g id="Group-2" transform="translate(184.000000, 0.000000)">
                    <path d="M5.485,8.369 C5.485,10.013 6.116,10.835 7.378,10.835 C8.717,10.835 9.446,9.822 9.562,7.796 L9.698,5.263 C9.232,5.133 8.724,5.068 8.173,5.068 C7.333,5.068 6.674,5.36 6.198,5.942 C5.722,6.524 5.485,7.334 5.485,8.369 M15.523,7.098 C15.523,8.016 15.381,8.858 15.096,9.621 C14.811,10.385 14.41,10.977 13.892,11.398 C13.375,11.819 12.779,12.029 12.106,12.029 C11.549,12.029 11.08,11.861 10.698,11.524 C10.316,11.188 10.089,10.757 10.018,10.233 L9.941,10.233 C9.682,10.796 9.311,11.236 8.83,11.554 C8.347,11.87 7.776,12.029 7.116,12.029 C6.145,12.029 5.386,11.698 4.839,11.034 C4.293,10.37 4.019,9.47 4.019,8.33 C4.019,7.01 4.401,5.937 5.165,5.112 C5.928,4.287 6.931,3.874 8.173,3.874 C8.614,3.874 9.112,3.914 9.669,3.995 C10.225,4.077 10.727,4.188 11.173,4.33 L10.931,8.893 L10.931,9.107 C10.931,10.259 11.361,10.835 12.222,10.835 C12.811,10.835 13.291,10.487 13.659,9.791 C14.028,9.096 14.213,8.191 14.213,7.078 C14.213,5.907 13.973,4.881 13.494,4 C13.015,3.12 12.334,2.442 11.451,1.967 C10.567,1.491 9.552,1.253 8.407,1.253 C6.964,1.253 5.708,1.552 4.64,2.151 C3.572,2.75 2.756,3.604 2.194,4.714 C1.631,5.824 1.349,7.107 1.349,8.563 C1.349,10.537 1.87,12.055 2.912,13.117 C3.954,14.178 5.456,14.709 7.417,14.709 C8.776,14.709 10.187,14.43 11.649,13.874 L11.649,15.165 C10.407,15.708 8.996,15.98 7.417,15.98 C5.067,15.98 3.244,15.335 1.946,14.044 C0.648,12.752 0,10.948 0,8.631 C0,6.949 0.345,5.45 1.039,4.136 C1.731,2.823 2.717,1.805 4,1.083 C5.281,0.361 6.75,0 8.407,0 C9.798,0 11.036,0.293 12.121,0.879 C13.205,1.465 14.043,2.297 14.634,3.374 C15.227,4.452 15.523,5.693 15.523,7.098" id="Fill-32"></path>
                </g>
            </g>
        </g>
    </g>
</svg>