<?xml version="1.0" encoding="UTF-8"?>
<svg width="16px" height="16px" viewBox="0 0 16 16" version="1.1" xmlns="http://www.w3.org/2000/svg" xmlns:xlink="http://www.w3.org/1999/xlink">
    <!-- Generator: Sketch 46.2 (44496) - http://www.bohemiancoding.com/sketch -->
    <title>Icon World</title>
    <desc>Created with Sketch.</desc>
    <defs>
        <polygon id="path-1" points="3.922 3.5001 3.922 0.5001 0.5903 0.5001 0.5903 3.5001 3.922 3.5001"></polygon>
        <polygon id="path-3" points="0.6547 4 7.2677 4 7.2677 0.5001 0.6547 0.5001"></polygon>
    </defs>
    <g id="Symbols" stroke="none" stroke-width="1" fill="none" fill-rule="evenodd">
        <g id="NAV" transform="translate(-1045.000000, -9.000000)">
            <g transform="translate(0.000000, 2.000000)" id="Group-5">
                <g transform="translate(215.000000, 7.000000)">
                    <g id="Meta">
                        <g id="Icon-World" transform="translate(830.000000, 0.000000)">
                            <path d="M14.5649,3.5001 C13.6539,2.1701 12.3559,1.1261 10.8289,0.5391 C11.4509,1.2961 11.9599,2.3091 12.3269,3.5001 L14.5649,3.5001 Z" id="Fill-1" fill="#FFFFFF"></path>
                            <path d="M15.1498,11.5001 C15.5968,10.5861 15.8548,9.5691 15.9218,8.5001 L12.9448,8.5001 C12.9148,9.5681 12.7958,10.5771 12.5898,11.5001 L15.1498,11.5001 Z" id="Fill-3" fill="#FFFFFF"></path>
                            <path d="M12.3266,12.5001 C11.9596,13.6901 11.4506,14.7041 10.8286,15.4621 C12.3556,14.8741 13.6536,13.8301 14.5646,12.5001 L12.3266,12.5001 Z" id="Fill-5" fill="#FFFFFF"></path>
                            <g id="Group-9" transform="translate(12.000000, 4.000000)">
                                <mask id="mask-2" fill="white">
                                    <use xlink:href="#path-1"></use>
                                </mask>
                                <g id="Clip-8"></g>
                                <path d="M0.5903,0.5001 C0.7953,1.4221 0.9143,2.4321 0.9443,3.5001 L3.9223,3.5001 C3.8553,2.4311 3.5973,1.4141 3.1503,0.5001 L0.5903,0.5001 Z" id="Fill-7" fill="#FFFFFF" mask="url(#mask-2)"></path>
                            </g>
                            <path d="M3.5961,3.5001 C3.9631,2.3091 4.4711,1.2961 5.0931,0.5391 C3.5661,1.1261 2.2681,2.1701 1.3581,3.5001 L3.5961,3.5001 Z" id="Fill-10" fill="#FFFFFF"></path>
                            <path d="M0.7719,11.5001 L3.3319,11.5001 C3.1259,10.5771 3.0069,9.5681 2.9769,8.5001 L0.0009,8.5001 C0.0669,9.5691 0.3249,10.5861 0.7719,11.5001" id="Fill-12" fill="#FFFFFF"></path>
                            <path d="M1.3578,12.5001 C2.2678,13.8301 3.5658,14.8741 5.0928,15.4621 C4.4708,14.7041 3.9628,13.6901 3.5958,12.5001 L1.3578,12.5001 Z" id="Fill-14" fill="#FFFFFF"></path>
                            <path d="M0.7719,4.5001 C0.3249,5.4141 0.0669,6.4311 0.0009,7.5001 L2.9769,7.5001 C3.0069,6.4321 3.1259,5.4221 3.3319,4.5001 L0.7719,4.5001 Z" id="Fill-16" fill="#FFFFFF"></path>
                            <path d="M4.3686,4.5001 C4.1446,5.4161 4.0076,6.4291 3.9736,7.5001 L11.9486,7.5001 C11.9156,6.4291 11.7776,5.4161 11.5546,4.5001 L4.3686,4.5001 Z" id="Fill-18" fill="#FFFFFF"></path>
                            <path d="M11.268,3.5001 C10.547,1.3881 9.335,0.0001 7.961,0.0001 C6.586,0.0001 5.374,1.3881 4.655,3.5001 L11.268,3.5001 Z" id="Fill-20" fill="#FFFFFF"></path>
                            <path d="M11.5541,11.5001 C11.7781,10.5841 11.9151,9.5711 11.9491,8.5001 L3.9741,8.5001 C4.0071,9.5711 4.1451,10.5841 4.3681,11.5001 L11.5541,11.5001 Z" id="Fill-22" fill="#FFFFFF"></path>
                            <g id="Group-26" transform="translate(4.000000, 12.000000)">
                                <mask id="mask-4" fill="white">
                                    <use xlink:href="#path-3"></use>
                                </mask>
                                <g id="Clip-25"></g>
                                <path d="M0.6547,0.5001 C1.3747,2.6121 2.5867,4.0001 3.9617,4.0001 C5.3357,4.0001 6.5477,2.6121 7.2677,0.5001 L0.6547,0.5001 Z" id="Fill-24" fill="#FFFFFF" mask="url(#mask-4)"></path>
                            </g>
                        </g>
                    </g>
                </g>
            </g>
        </g>
    </g>
</svg>