<?xml version="1.0" encoding="UTF-8"?>
<svg width="14px" height="15px" viewBox="0 0 14 15" version="1.1" xmlns="http://www.w3.org/2000/svg" xmlns:xlink="http://www.w3.org/1999/xlink">
    <!-- Generator: Sketch 46.2 (44496) - http://www.bohemiancoding.com/sketch -->
    <title>Icon Magnifier</title>
    <desc>Created with Sketch.</desc>
    <defs></defs>
    <g id="Symbols" stroke="none" stroke-width="1" fill="none" fill-rule="evenodd">
        <g id="NAV" transform="translate(-1163.000000, -9.000000)" fill="#FFFFFF">
            <g transform="translate(0.000000, 2.000000)" id="Group-5">
                <g transform="translate(215.000000, 7.000000)">
                    <g id="Meta">
                        <g id="Icon-Magnifier" transform="translate(948.000000, 0.000000)">
                            <path d="M6,12 C2.6862915,12 0,9.3137085 0,6 C0,2.6862915 2.6862915,0 6,0 C9.3137085,0 12,2.6862915 12,6 C12,9.3137085 9.3137085,12 6,12 Z M6,10 C8.209139,10 10,8.209139 10,6 C10,3.790861 8.209139,2 6,2 C3.790861,2 2,3.790861 2,6 C2,8.209139 3.790861,10 6,10 Z" id="Oval"></path>
                            <rect id="Rectangle-19" transform="translate(10.828427, 11.828427) rotate(-45.000000) translate(-10.828427, -11.828427) " x="9.82842712" y="8.82842712" width="2" height="6"></rect>
                        </g>
                    </g>
                </g>
            </g>
        </g>
    </g>
</svg>