<?xml version="1.0" encoding="UTF-8"?>
<svg width="24px" height="24px" viewBox="0 0 24 24" version="1.1" xmlns="http://www.w3.org/2000/svg" xmlns:xlink="http://www.w3.org/1999/xlink">
    <!-- Generator: Sketch 47.1 (45422) - http://www.bohemiancoding.com/sketch -->
    <title>Fill 1</title>
    <desc>Created with Sketch.</desc>
    <defs></defs>
    <g id="01-Desktop-" stroke="none" stroke-width="1" fill="none" fill-rule="evenodd">
        <g id="14-Status---Multiple-segments" transform="translate(-368.000000, -450.000000)" fill="#CDCDCD">
            <g id="Flight-1" transform="translate(132.000000, 344.000000)">
                <path d="M254.53125,122.39549 L260,124.088742 L260,122.617797 C260,122.34026 259.875313,122.062723 259.625313,121.895924 L250.500313,115.040763 L249.719063,107.519514 C249.6875,107.297762 249.59375,107.075455 249.406563,106.908933 L248.844063,106.353859 C248.375313,105.882047 247.5625,105.882047 247.09375,106.353859 L246.53125,106.908933 C246.34375,107.075455 246.25,107.297762 246.21875,107.519514 L245.4375,115.040763 L236.375,121.868448 C236.125313,122.062723 236,122.312229 236,122.589766 L236,124.060711 L241.5,122.34026 L243.125,121.840416 L245.90625,120.980052 L246.3125,126.83608 L244.0625,129.028621 C243.96875,129.111882 243.90625,129.25065 243.90625,129.389419 L243.90625,130 L248.03125,128.751084 L252.09375,130 L252.09375,129.41745 C252.09375,129.278682 252.03125,129.167389 251.9375,129.056375 L249.6875,126.864111 L250.094063,121.007806 L252.906563,121.895924 L254.53125,122.39549 Z" id="Fill-1" transform="translate(248.000000, 118.000000) rotate(-270.000000) translate(-248.000000, -118.000000) "></path>
            </g>
        </g>
    </g>
</svg>