<svg width="24" height="25" viewBox="0 0 24 25" version="1.1" xmlns="http://www.w3.org/2000/svg" xmlns:xlink="http://www.w3.org/1999/xlink">
<title>Showers</title>
<desc>Created using Figma</desc>
<g id="Canvas" transform="translate(-529 -467)">
<g id="Page 1">
<g id="Fill 1">
<use xlink:href="#path0_fill" transform="translate(531.872 478.86)" fill="#000000"/>
</g>
<g id="Fill 3">
<use xlink:href="#path1_fill" transform="translate(534.324 478.562)" fill="#000000"/>
</g>
<g id="Fill 5">
<use xlink:href="#path2_fill" transform="translate(541.637 480.796)" fill="#000000"/>
</g>
<g id="Fill 7">
<use xlink:href="#path3_fill" transform="translate(537.74 478.576)" fill="#000000"/>
</g>
<g id="Group 11">
<mask id="mask0_outline" mask-type="alpha">
<g id="Clip 10">
<use xlink:href="#path4_fill" transform="translate(529.001 467.53)" fill="#000000"/>
</g>
</mask>
<g id="Fill 9" mask="url(#mask0_outline)">
<use xlink:href="#path5_fill" transform="translate(529.001 467.529)" fill="#000000"/>
</g>
</g>
</g>
</g>
<defs>
<path id="path0_fill" fill-rule="evenodd" d="M 4.26516 0.0669C 4.60866 0.230547 4.75566 0.654194 4.59966 1.01208L 1.30716 8.29819C 1.15116 8.65149 0.738661 8.80596 0.398161 8.64078C 0.0531606 8.47714 -0.0938394 8.05349 0.0621606 7.69714L 3.35466 0.411018C 3.51516 0.0561941 3.92166 -0.0998059 4.26516 0.0669"/>
<path id="path1_fill" fill-rule="evenodd" d="M 5.67269 0.0662384C 6.01619 0.229885 6.16469 0.655062 6.00569 1.00989L 1.30919 11.6837C 1.14869 12.0385 0.740694 12.1929 0.395694 12.0278C 0.0551942 11.8626 -0.0963058 11.4405 0.0641942 11.0841L 4.76369 0.410356C 4.91969 0.0555325 5.32919 -0.0989381 5.67269 0.0662384"/>
<path id="path2_fill" fill-rule="evenodd" d="M 5.03321 0.0671799C 5.37671 0.230827 5.52521 0.654474 5.36921 1.0093L 1.30871 10.1445C 1.14521 10.5008 0.740213 10.6553 0.395213 10.4901C 0.0577126 10.3265 -0.0967873 9.90283 0.0637127 9.54647L 4.12421 0.409768C 4.28321 0.0549446 4.68971 -0.099526 5.03321 0.0671799"/>
<path id="path3_fill" fill-rule="evenodd" d="M 6.14466 0.0669C 6.48816 0.230547 6.63666 0.654194 6.47766 1.00749L 1.30716 13.0118C 1.15116 13.3682 0.738661 13.5211 0.398161 13.356C 0.0531606 13.1908 -0.0938394 12.7702 0.0621606 12.4138L 5.23566 0.411018C 5.39166 0.0561941 5.80116 -0.0998059 6.14466 0.0669"/>
<path id="path4_fill" fill-rule="evenodd" d="M 1.6263e-19 0L 23.9994 0L 23.9994 17.3752L 0 17.3752L 1.6263e-19 0Z"/>
<path id="path5_fill" fill-rule="evenodd" d="M 17.6685 4.60506C 17.274 4.60506 16.878 4.64024 16.491 4.71518L 16.161 4.78094L 15.999 4.48118C 15.621 3.79447 15.15 3.15976 14.6025 2.59388C 12.99 0.920706 10.8375 0 8.5545 0C 6.267 0 4.119 0.920706 2.502 2.59388C 0.888 4.264 0 6.48929 0 8.85223C 0 10.8802 0.654 12.7966 1.857 14.3596L 2.532 12.7889C 1.8315 11.648 1.4175 10.3036 1.4175 8.85223C 1.4175 4.78247 4.62 1.46976 8.5545 1.46976C 11.6865 1.46976 14.4495 3.61859 15.366 6.66365C 16.074 6.27824 16.8525 6.07482 17.6685 6.07482C 20.376 6.07482 22.5765 8.35365 22.5765 11.1555C 22.5765 12.8868 21.735 14.4116 20.4495 15.3278L 19.5705 17.3756C 22.128 16.5345 24 14.0767 24 11.1555C 24 7.54306 21.156 4.60506 17.6685 4.60506"/>
</defs>
</svg>
