<svg width="24" height="26" viewBox="0 0 24 26" version="1.1" xmlns="http://www.w3.org/2000/svg" xmlns:xlink="http://www.w3.org/1999/xlink">
<title>Breezy or Light Rain</title>
<desc>Created using Figma</desc>
<g id="Canvas" transform="translate(-529 -502)">
<g id="Page 1">
<g id="Group 3">
<mask id="mask0_outline" mask-type="alpha">
<g id="Clip 2">
<use xlink:href="#path0_fill" transform="translate(529 502.589)" fill="#000000"/>
</g>
</mask>
<g id="Fill 1" mask="url(#mask0_outline)">
<use xlink:href="#path1_fill" transform="translate(528.999 502.588)" fill="#000000"/>
</g>
</g>
<g id="Fill 4">
<use xlink:href="#path2_fill" transform="translate(536.742 514.345)" fill="#000000"/>
</g>
</g>
</g>
<defs>
<path id="path0_fill" fill-rule="evenodd" d="M 0 17.2635L 0 0L 23.9993 0L 23.9993 17.2635L 0 17.2635Z"/>
<path id="path1_fill" fill-rule="evenodd" d="M 24 11.3988C 24 7.70771 21.1575 4.70435 17.6685 4.70435C 17.2785 4.70435 16.8795 4.74565 16.491 4.81871L 16.1625 4.88382L 15.999 4.57888C 15.621 3.87688 15.1545 3.22729 14.604 2.64918C 12.987 0.941823 10.842 0 8.5545 0C 6.2715 0 4.122 0.941823 2.5065 2.64918C 0.8925 4.35812 0 6.63088 0 9.04818C 0 11.4639 0.8925 13.7335 2.5065 15.4424C 2.9265 15.8871 3.3855 16.2778 3.87 16.6161L 4.458 15.2121C 2.625 13.8462 1.4205 11.5941 1.4205 9.04818C 1.4205 4.887 4.62 1.50406 8.5545 1.50406C 11.6865 1.50406 14.454 3.69582 15.366 6.80718C 16.077 6.41329 16.854 6.20524 17.6685 6.20524C 20.376 6.20524 22.581 8.53518 22.581 11.3988C 22.581 13.3777 21.5265 15.0994 19.98 15.9761L 19.959 16.0332L 20.697 17.2641C 22.6605 16.1301 24 13.9304 24 11.3988"/>
<path id="path2_fill" fill-rule="evenodd" d="M 7.881 6.76112L 4.257 0L 0.63 6.76112C 0.231 7.44882 0 8.26041 0 9.12123C 0 11.6116 1.9095 13.6271 4.257 13.6271C 6.606 13.6271 8.5125 11.6116 8.5125 9.12123C 8.5125 8.26041 8.2845 7.44882 7.881 6.76112"/>
</defs>
</svg>
