<svg width="23" height="23" viewBox="0 0 23 23" version="1.1" xmlns="http://www.w3.org/2000/svg" xmlns:xlink="http://www.w3.org/1999/xlink">
<title>Flurries</title>
<desc>Created using Figma</desc>
<g id="Canvas" transform="translate(-529 -540)">
<g id="Page 1">
<g id="Group 3">
<mask id="mask0_outline" mask-type="alpha">
<g id="Clip 2">
<use xlink:href="#path0_fill" transform="translate(529.001 540)" fill="#000000"/>
</g>
</mask>
<g id="Fill 1" mask="url(#mask0_outline)">
<use xlink:href="#path1_fill" transform="translate(529.001 540)" fill="#000000"/>
</g>
</g>
<g id="Fill 4">
<use xlink:href="#path2_fill" transform="translate(534.099 550.477)" fill="#000000"/>
</g>
</g>
</g>
<defs>
<path id="path0_fill" fill-rule="evenodd" d="M 22.5875 0L 22.5875 15.1901L 0 15.1901L 0 2.55351e-15L 22.5875 2.55351e-15L 22.5875 0Z"/>
<path id="path1_fill" fill-rule="evenodd" d="M 16.6292 4.25787C 16.2593 4.25787 15.8894 4.29237 15.5252 4.36137L 15.2118 4.42031L 15.0593 4.14288C 14.7021 3.5075 14.2616 2.921 13.7449 2.39631C 12.2273 0.852437 10.2 0 8.05129 0C 5.89835 0 3.87953 0.852437 2.35765 2.39631C 0.835765 3.94306 0 6.00012 0 8.18656C 0 10.3744 0.835765 12.4286 2.35765 13.9739C 2.53271 14.1522 2.71624 14.3146 2.89835 14.4727L 3.78494 13.4349C 2.29835 12.1842 1.33835 10.3026 1.33835 8.18656C 1.33835 4.42462 4.34965 1.35987 8.05129 1.35987C 11.0005 1.35987 13.6038 3.3465 14.4664 6.16113C 15.1285 5.80606 15.8668 5.61631 16.6292 5.61631C 19.1774 5.61631 21.2485 7.72656 21.2485 10.3169C 21.2485 11.8249 20.5412 13.1617 19.4527 14.0214L 20.1487 15.1901C 21.624 14.0889 22.5882 12.3165 22.5882 10.3169C 22.5882 6.97475 19.9129 4.25787 16.6292 4.25787"/>
<path id="path2_fill" fill-rule="evenodd" d="M 6.15247 12.5221C 5.77694 12.5221 5.47482 12.2144 5.47482 11.8335L 5.47482 7.93213L 2.76141 10.6907C 2.63576 10.8215 2.46071 10.8934 2.28 10.8934C 2.09506 10.8934 1.92988 10.8215 1.8 10.6921C 1.66871 10.5584 1.59812 10.3845 1.59812 10.2005C 1.59812 10.0136 1.66871 9.84113 1.79718 9.71175L 4.512 6.95175L 0.674824 6.95175C 0.300706 6.95175 0 6.64412 0 6.26319C 0 5.88225 0.300706 5.57031 0.674824 5.57031L 4.512 5.57031L 1.8 2.81175C 1.66871 2.68237 1.59812 2.50988 1.59812 2.32444C 1.59812 2.14044 1.66871 1.96794 1.79718 1.83712C 1.92988 1.70487 2.09929 1.633 2.28 1.633C 2.46071 1.633 2.63576 1.70487 2.76141 1.83712L 5.47482 4.5885L 5.47482 0.692875C 5.47482 0.3105 5.77694 0 6.15247 0C 6.52941 0 6.83012 0.3105 6.83012 0.692875L 6.83012 4.59137L 9.54212 1.83425C 9.672 1.70344 9.84141 1.63156 10.0249 1.63156C 10.2056 1.63156 10.3765 1.70344 10.5035 1.83425C 10.6334 1.96362 10.704 2.13756 10.7068 2.323C 10.7068 2.50844 10.6334 2.68237 10.5035 2.81175L 7.79012 5.57031L 11.6301 5.57031C 12.0042 5.57031 12.3078 5.88225 12.3078 6.26319C 12.3078 6.64412 12.0042 6.95175 11.6301 6.95175L 7.79012 6.95175L 10.5035 9.71175C 10.6334 9.84256 10.704 10.0151 10.7068 10.1976C 10.7068 10.3845 10.6334 10.557 10.5035 10.6907C 10.3765 10.8215 10.2056 10.8934 10.0249 10.8934C 9.84141 10.8934 9.67059 10.8215 9.53929 10.6892L 6.83012 7.93213L 6.83012 11.8335C 6.83012 12.2144 6.52941 12.5221 6.15247 12.5221"/>
</defs>
</svg>
