<svg width="22" height="25" viewBox="0 0 22 25" version="1.1" xmlns="http://www.w3.org/2000/svg" xmlns:xlink="http://www.w3.org/1999/xlink">
<title>Severe Hurricane</title>
<desc>Created using Figma</desc>
<g id="Canvas" transform="translate(-529 -144)">
<g id="Page 1">
<g id="Group 3">
<mask id="mask0_outline" mask-type="alpha">
<g id="Clip 2">
<use xlink:href="#path0_fill" transform="translate(529 144)" fill="#000000"/>
</g>
</mask>
<g id="Fill 1" mask="url(#mask0_outline)">
<use xlink:href="#path1_fill" transform="translate(529 144)" fill="#000000"/>
</g>
</g>
<g id="Fill 4">
<use xlink:href="#path2_fill" transform="translate(535.859 152.431)" fill="#000000"/>
</g>
</g>
</g>
<defs>
<path id="path0_fill" fill-rule="evenodd" d="M 10.9503 0L 21.9006 0L 21.9006 25L 10.9503 25L 0 25L 0 0L 10.9503 0Z"/>
<path id="path1_fill" fill-rule="evenodd" d="M 15.5269 4.93907L 15.5269 4.93907C 18.1041 6.48282 19.8232 9.29063 19.8232 12.5C 19.8232 24.1281 4.05078 24.3469 1.40607 23.1094C 1.40607 23.1094 4.44835 22.7875 6.37335 20.0609C 3.79621 18.5156 2.07392 15.7094 2.07392 12.5C 2.07392 0.870319 17.8495 0.653132 20.4942 1.89063C 20.4942 1.89063 17.4519 2.21251 15.5269 4.93907L 15.5269 4.93907ZM 21.0882 0.634375C 19.8672 0.0625 17.6939 0 16.8155 0C 15.0681 0 10.5832 0.232812 6.69392 2.39844C 2.75749 4.5875 0.678491 8.07969 0.678491 12.5C 0.678491 14.2906 1.15306 16.0531 2.04878 17.5984C 2.6412 18.6172 3.40649 19.5297 4.30378 20.2891C 2.9272 21.4953 1.38092 21.7109 1.25206 21.7266C 0.629776 21.7875 0.126919 22.2531 0.0216333 22.8687C -0.0899381 23.4859 0.23849 24.0984 0.812062 24.3656C 2.03306 24.9375 4.20792 25 5.0832 25C 6.83378 25 11.3155 24.7656 15.2079 22.6016C 19.1428 20.4109 21.2218 16.9203 21.2218 12.5C 21.2218 10.7078 20.7472 8.94531 19.8531 7.40156C 19.2591 6.38281 18.4938 5.47031 17.5933 4.71094C 18.9699 3.50469 20.5193 3.2875 20.6482 3.27344C 21.2705 3.21406 21.7733 2.74687 21.8802 2.13125C 21.9886 1.51406 21.6586 0.901562 21.0882 0.634375L 21.0882 0.634375Z"/>
<path id="path2_fill" fill-rule="evenodd" d="M 4.09199 6.75C 2.60542 6.75 1.39227 5.54687 1.39227 4.06875C 1.39227 2.59062 2.60542 1.3875 4.09199 1.3875C 5.57699 1.3875 6.79013 2.59062 6.79013 4.06875C 6.79013 5.54687 5.57699 6.75 4.09199 6.75L 4.09199 6.75ZM 4.092 0C 1.83071 0 0 1.82187 0 4.06875C 0 6.31719 1.83071 8.13906 4.092 8.13906C 6.35171 8.13906 8.184 6.31719 8.184 4.06875C 8.184 1.82187 6.35171 0 4.092 0L 4.092 0Z"/>
</defs>
</svg>
