<svg width="24" height="19" viewBox="0 0 24 19" version="1.1" xmlns="http://www.w3.org/2000/svg" xmlns:xlink="http://www.w3.org/1999/xlink">
<title>Foggy</title>
<desc>Created using Figma</desc>
<g id="Canvas" transform="translate(-530 -794)">
<g id="Page 1">
<g id="Fill 1">
<use xlink:href="#path0_fill" transform="translate(530 805)" fill="#000000"/>
</g>
<g id="Group 5">
<mask id="mask0_outline" mask-type="alpha">
<g id="Clip 4">
<use xlink:href="#path1_fill" transform="translate(545.947 805.15)" fill="#000000"/>
</g>
</mask>
<g id="Fill 3" mask="url(#mask0_outline)">
<use xlink:href="#path2_fill" transform="translate(545.947 805.15)" fill="#000000"/>
</g>
</g>
<g id="Fill 6">
<use xlink:href="#path3_fill" transform="translate(540 808)" fill="#000000"/>
</g>
<g id="Fill 8">
<use xlink:href="#path4_fill" transform="translate(530 808)" fill="#000000"/>
</g>
<g id="Group 12">
<mask id="mask1_outline" mask-type="alpha">
<g id="Clip 11">
<use xlink:href="#path5_fill" transform="translate(531.004 811.193)" fill="#000000"/>
</g>
</mask>
<g id="Fill 10" mask="url(#mask1_outline)">
<use xlink:href="#path6_fill" transform="translate(531.004 811.193)" fill="#000000"/>
</g>
</g>
<g id="Group 15">
<mask id="mask2_outline" mask-type="alpha">
<g id="Clip 14">
<use xlink:href="#path7_fill" transform="translate(530.73 794.127)" fill="#000000"/>
</g>
</mask>
<g id="Fill 13" mask="url(#mask2_outline)">
<use xlink:href="#path8_fill" transform="translate(530.73 794.126)" fill="#000000"/>
</g>
</g>
</g>
</g>
<defs>
<path id="path0_fill" fill-rule="evenodd" d="M 14 0.497136C 14 0.77205 13.7202 0.996564 13.3679 0.997709L 0.629267 1C 0.285647 1 2.22207e-05 0.776632 2.22207e-05 0.501718C -0.00287753 0.22795 0.278398 0.00229095 0.627817 0.00114548L 13.365 0C 13.7144 0 14 0.223368 14 0.497136"/>
<path id="path1_fill" fill-rule="evenodd" d="M 8.05276 0L 8.05276 1.5L 0 1.5L 0 1.33227e-15L 8.05276 1.33227e-15L 8.05276 0Z"/>
<path id="path2_fill" fill-rule="evenodd" d="M 8.05351 0.651C 8.05651 1.011 7.76401 1.305 7.39951 1.3065L 0.652506 1.3095C 0.291006 1.3095 5.83278e-06 1.017 5.83278e-06 0.657C -0.00149417 0.2985 0.286506 0.003 0.648006 0.0015L 7.39651 0C 7.75801 0 8.05351 0.2925 8.05351 0.651"/>
<path id="path3_fill" fill-rule="evenodd" d="M 4.9778e-05 0.49828C -0.00430028 0.774338 0.277004 0.997705 0.630809 0.99885L 13.3678 0.999996C 13.7129 1.00114 14 0.777774 14 0.502861C 14 0.227949 13.7216 0.00343641 13.3721 0.00114547L 0.632259 0C 0.281354 0 4.9778e-05 0.223367 4.9778e-05 0.49828"/>
<path id="path4_fill" fill-rule="evenodd" d="M 5.09047e-05 0.49828C -0.00442001 0.774338 0.286189 0.997705 0.645352 0.99885L 7.35023 0.999996C 7.7079 1.00114 7.99702 0.777774 8 0.502861C 8 0.227949 7.71237 0.00343641 7.3547 0.00114547L 0.649823 0C 0.29215 0 5.09047e-05 0.223367 5.09047e-05 0.49828"/>
<path id="path5_fill" fill-rule="evenodd" d="M 21.351 1.30651L 0 1.30651L 1.9984e-15 0L 21.351 0L 21.351 1.30651Z"/>
<path id="path6_fill" fill-rule="evenodd" d="M 0 0.649506C 0 1.00951 0.2925 1.30351 0.654 1.30501L 20.7 1.30651C 21.057 1.30801 21.351 1.01551 21.351 0.657006C 21.351 0.297006 21.0615 0.00300574 20.703 5.74359e-06L 0.657 5.74359e-06C 0.2955 -0.00149426 0.0045 0.291006 0 0.649506"/>
<path id="path7_fill" fill-rule="evenodd" d="M 21.1785 0L 2.498e-16 0L 0 8.7252L 21.1785 8.7252L 21.1785 2.66454e-15L 21.1785 0Z"/>
<path id="path8_fill" fill-rule="evenodd" d="M 1.377 8.7255C 1.3035 8.352 1.26 7.971 1.26 7.5765C 1.26 4.0935 4.095 1.257 7.5825 1.257C 10.3545 1.257 12.807 3.096 13.6155 5.7015C 14.241 5.3715 14.934 5.196 15.654 5.196C 17.772 5.196 19.5345 6.7185 19.92 8.7255L 21.1785 8.7255C 20.7795 6.024 18.4695 3.9405 15.654 3.9405C 15.3045 3.9405 14.958 3.972 14.613 4.035L 14.322 4.0905L 14.175 3.834C 13.8405 3.246 13.425 2.7045 12.9375 2.2185C 11.508 0.789 9.6045 0 7.5825 0C 5.5545 0 3.654 0.789 2.22 2.2185C 0.789 3.6495 0 5.553 0 7.5765C 0 7.9665 0.0345 8.3475 0.096 8.7255L 1.377 8.7255Z"/>
</defs>
</svg>
