<svg width="24" height="20" viewBox="0 0 24 20" version="1.1" xmlns="http://www.w3.org/2000/svg" xmlns:xlink="http://www.w3.org/1999/xlink">
<title>Windy</title>
<desc>Created using Figma</desc>
<g id="Canvas" transform="translate(-529 -938)">
<g id="Page 1">
<g id="Fill 1">
<use xlink:href="#path0_fill" transform="translate(539.245 948.964)" fill="#000000"/>
</g>
<g id="Group 5">
<mask id="mask0_outline" mask-type="alpha">
<g id="Clip 4">
<use xlink:href="#path1_fill" transform="translate(540.631 942.123)" fill="#000000"/>
</g>
</mask>
<g id="Fill 3" mask="url(#mask0_outline)">
<use xlink:href="#path2_fill" transform="translate(540.631 942.123)" fill="#000000"/>
</g>
</g>
<g id="Fill 6">
<use xlink:href="#path3_fill" transform="translate(529.001 938)" fill="#000000"/>
</g>
</g>
</g>
<defs>
<path id="path0_fill" fill-rule="evenodd" d="M 8.3835 0L 0.6 0C 0.2715 0 0 0.273846 0 0.610769C 0 0.947692 0.2715 1.22 0.6 1.22L 8.3835 1.22C 10.197 1.22 11.6715 2.73077 11.6715 4.58769C 11.6715 6.00308 10.545 7.15692 9.162 7.15692C 8.1165 7.15692 7.2705 6.28923 7.2705 5.22462C 7.2705 4.43846 7.896 3.79692 8.664 3.79692C 8.988 3.79692 9.2595 3.52462 9.2595 3.18769C 9.2595 2.85231 8.988 2.57846 8.664 2.57846C 7.2375 2.57846 6.0795 3.76462 6.0795 5.22462C 6.0795 6.96154 7.4625 8.37692 9.162 8.37692C 11.2035 8.37692 12.8595 6.67692 12.8595 4.58769C 12.8595 2.05846 10.8525 0 8.3835 0"/>
<path id="path1_fill" fill-rule="evenodd" d="M 12.3694 0L 12.3694 5.36308L 0 5.36308L 0 5.46571e-15L 12.3694 5.46571e-15L 12.3694 0Z"/>
<path id="path2_fill" fill-rule="evenodd" d="M 9.9735 0C 9.642 0 9.378 0.273846 9.378 0.609231C 9.378 0.946154 9.642 1.22 9.9735 1.22C 10.6365 1.22 11.178 1.77231 11.178 2.45231C 11.178 3.38462 10.437 4.14615 9.5235 4.14615L 0.594 4.14615C 0.2655 4.14615 0 4.41692 0 4.75385C 0 5.09077 0.2655 5.36308 0.594 5.36308L 9.5235 5.36308C 11.091 5.36308 12.3705 4.05692 12.3705 2.45231C 12.3705 1.10154 11.295 0 9.9735 0"/>
<path id="path3_fill" fill-rule="evenodd" d="M 7.3605 1.28308C 10.059 1.28308 12.438 3.15538 13.2255 5.81077C 13.833 5.47846 14.508 5.29692 15.2055 5.29692C 16.1625 5.29692 17.0415 5.64308 17.754 6.21077L 18.6615 5.34C 17.7195 4.52 16.521 4.01538 15.2055 4.01538C 14.8665 4.01538 14.526 4.05077 14.1945 4.11692L 13.908 4.17077L 13.767 3.90923C 13.4445 3.31077 13.038 2.75538 12.57 2.26308C 11.1765 0.804615 9.3285 0 7.3605 0C 5.3925 0 3.5445 0.804615 2.151 2.26308C 0.765 3.72154 0 5.66154 0 7.72308C 0 9.78615 0.765 11.7246 2.151 13.1815C 3.5415 14.6369 5.388 15.4385 7.3485 15.4415L 14.328 15.4415L 15.0045 14.1585L 7.29 14.1585C 3.9375 14.1169 1.2195 11.2477 1.2195 7.72308C 1.2195 4.17231 3.9735 1.28308 7.3605 1.28308"/>
</defs>
</svg>
