<svg width="24" height="20" viewBox="0 0 24 20" version="1.1" xmlns="http://www.w3.org/2000/svg" xmlns:xlink="http://www.w3.org/1999/xlink">
<title>Cloudy</title>
<desc>Created using Figma</desc>
<g id="Canvas" transform="translate(-529 -1011)">
<g id="Page 1">
<g id="Group">
<g id="Fill 1">
<use xlink:href="#path0_fill" transform="translate(529 1015.94)" fill="#000000"/>
</g>
<mask id="mask0_outline" mask-type="alpha">
<g id="Clip 2">
<use xlink:href="#path1_fill" transform="translate(536.579 1011)" fill="#000000"/>
</g>
</mask>
</g>
<g id="Fill 1">
<use xlink:href="#path2_fill" transform="translate(536.578 1011)" fill="#000000"/>
</g>
</g>
</g>
<defs>
<path id="path0_fill" fill-rule="evenodd" d="M 11.3141 11.8514C 12.0669 13.0064 13.3074 13.7019 14.6665 13.7019C 16.9137 13.7019 18.7427 11.7785 18.7427 9.41538C 18.7427 7.05103 16.9137 5.12644 14.6665 5.12644C 13.9907 5.12644 13.3415 5.29815 12.7579 5.62303C 11.9975 3.05362 9.70358 1.24268 7.10021 1.24268C 3.83494 1.24268 1.18231 4.03815 1.18231 7.47103C 1.18231 10.9064 3.83494 13.7019 7.10021 13.7019C 8.69936 13.7019 10.2013 13.0336 11.3141 11.8514L 11.3141 11.8514ZM 14.6665 14.9409C 13.4792 14.9409 12.3549 14.5345 11.4215 13.7587L 11.2042 13.5771L 10.9705 13.7377C 9.82232 14.5246 8.48589 14.9409 7.10021 14.9409C 5.20674 14.9409 3.42316 14.1651 2.08042 12.7544C 0.738947 11.3412 0 9.46606 0 7.47106C 0 5.47729 0.738947 3.59841 2.08042 2.18894C 3.42063 0.779471 5.20674 0 7.10021 0C 8.99747 0 10.7823 0.779471 12.1251 2.18894C 12.5773 2.667 12.9663 3.20188 13.2796 3.78L 13.416 4.03571L 13.6926 3.98135C 14.0122 3.91712 14.3406 3.88624 14.6665 3.88624C 17.5604 3.88624 19.9187 6.36671 19.9187 9.41541C 19.9187 12.4616 17.5604 14.9409 14.6665 14.9409L 14.6665 14.9409Z"/>
<path id="path1_fill" fill-rule="evenodd" d="M 15.8793 1.09716e-15L 0 1.09716e-15L 0 9.56365L 7.93967 9.56365L 15.8793 9.56365L 15.8793 1.09716e-15Z"/>
<path id="path2_fill" fill-rule="evenodd" d="M 1.12295 3.09477C 1.68632 1.74953 3.02653 0.868767 4.48926 1.02688C 5.58821 1.14547 6.53558 1.81624 7.05221 2.81436C 8.04379 1.9583 9.31326 1.54941 10.6067 1.689C 13.2455 1.97436 15.1667 4.46841 14.8964 7.24288C 14.8484 7.75306 14.7196 8.23483 14.5352 8.67953C 14.5743 8.72647 14.616 8.77218 14.6526 8.81541C 14.8484 9.04518 15.0088 9.26012 15.1465 9.47012C 15.1642 9.50224 15.1819 9.53312 15.2021 9.564C 15.5457 8.88459 15.7743 8.136 15.8488 7.34541C 16.0067 5.73212 15.5608 4.15218 14.5857 2.89465C 13.6143 1.63588 12.2362 0.853943 10.7027 0.687179C 9.58105 0.564885 8.46947 0.786002 7.48042 1.31841L 7.27958 1.42959L 7.11411 1.26406C 6.42063 0.556238 5.55032 0.127591 4.58779 0.0238258C 2.43284 -0.209645 0.485053 1.29741 0 3.46041C 0.279158 3.34553 0.565895 3.243 0.866526 3.16024C 0.949895 3.13553 1.03958 3.117 1.12295 3.09477"/>
</defs>
</svg>
