<svg width="24" height="23" viewBox="0 0 24 23" version="1.1" xmlns="http://www.w3.org/2000/svg" xmlns:xlink="http://www.w3.org/1999/xlink">
<title>Mostly Cloudy Night</title>
<desc>Created using Figma</desc>
<g id="Canvas" transform="translate(-529 -1044)">
<g id="Page 1">
<g id="Fill 1">
<use xlink:href="#path0_fill" transform="translate(529 1051.99)" fill="#000000"/>
</g>
<g id="Group 5">
<mask id="mask0_outline" mask-type="alpha">
<g id="Clip 4">
<use xlink:href="#path1_fill" transform="translate(537.843 1044.5)" fill="#000000"/>
</g>
</mask>
<g id="Fill 3" mask="url(#mask0_outline)">
<use xlink:href="#path2_fill" transform="translate(537.843 1044.5)" fill="#000000"/>
</g>
</g>
</g>
</g>
<defs>
<path id="path0_fill" fill-rule="evenodd" d="M 14.829 13.164C 13.4565 13.164 12.2025 12.495 11.4375 11.3865C 10.3155 12.5205 8.79447 13.164 7.18047 13.164C 3.87897 13.164 1.19397 10.476 1.19397 7.17751C 1.19397 3.87751 3.87897 1.1925 7.18047 1.1925C 7.66047 1.1925 8.12547 1.251 8.57547 1.362C 8.95797 1.452 9.32847 1.5855 9.67947 1.749C 11.1945 2.4495 12.39 3.7635 12.9 5.403C 13.491 5.0895 14.1495 4.926 14.829 4.926C 15.4875 4.926 16.11 5.08351 16.6605 5.35801C 17.013 5.53651 17.337 5.76001 17.625 6.02551C 18.438 6.78001 18.9495 7.851 18.9495 9.0435C 18.9495 11.316 17.1015 13.164 14.829 13.164L 14.829 13.164ZM 18.003 4.794C 17.6685 4.5465 17.3055 4.329 16.92 4.1625C 16.278 3.8865 15.5715 3.7335 14.829 3.7335C 14.5005 3.7335 14.169 3.7635 13.845 3.8235L 13.566 3.876L 13.4265 3.633C 13.11 3.0765 12.72 2.5635 12.258 2.103C 11.742 1.587 11.16 1.1595 10.5315 0.825C 10.1565 0.63 9.7665 0.4665 9.366 0.339C 8.6685 0.117 7.9335 0 7.1805 0C 5.265 0 3.462 0.7485 2.103 2.103C 0.7485 3.4575 0 5.2605 0 7.1775C 0 9.096 0.7485 10.896 2.103 12.2535C 3.462 13.6065 5.265 14.3535 7.1805 14.3535C 8.5785 14.3535 9.933 13.956 11.094 13.197L 11.328 13.044L 11.55 13.2195C 12.495 13.9635 13.626 14.3535 14.829 14.3535C 17.7585 14.3535 20.142 11.9715 20.142 9.0435C 20.142 7.305 19.2975 5.7615 18.003 4.794L 18.003 4.794Z"/>
<path id="path1_fill" fill-rule="evenodd" d="M 15.1566 0L 15.1566 13.8626L 0 13.8626L 0 5.32907e-15L 15.1566 5.32907e-15L 15.1566 0Z"/>
<path id="path2_fill" fill-rule="evenodd" d="M 14.826 9.17362C 14.52 8.87512 14.0745 8.77462 13.671 8.91112C 13.6365 8.92312 13.602 8.93962 13.563 8.95162C 13.392 9.03262 13.2075 9.10462 13.0245 9.16612C 10.068 10.1726 6.8325 8.62162 5.808 5.71312C 5.328 4.35112 5.3985 2.87812 6.012 1.56562C 6.207 1.14562 6.1125 0.647615 5.7795 0.323615C 5.4735 0.0251154 5.0205 -0.0768846 4.6215 0.0596154C 4.584 0.0746154 4.551 0.0881154 4.5195 0.103115C 1.884 1.30312 0.2505 3.74362 0 6.41812C 0.363 6.48412 0.7275 6.56212 1.083 6.68212C 1.0905 6.68362 1.095 6.68512 1.1025 6.68812C 1.266 4.31812 2.709 2.14462 4.989 1.10512C 4.29 2.61262 4.146 4.37962 4.746 6.07312C 5.9775 9.56212 9.846 11.4146 13.392 10.2101C 13.617 10.1351 13.8285 10.0481 14.037 9.95512C 13.5135 11.0801 12.501 12.1796 11.415 12.8786C 11.6385 13.1711 11.7675 13.5206 11.922 13.8626C 13.176 13.0661 14.4165 11.7896 15.0555 10.4156C 15.2505 9.99562 15.1605 9.50062 14.826 9.17362"/>
</defs>
</svg>
