<svg width="24" height="23" viewBox="0 0 24 23" version="1.1" xmlns="http://www.w3.org/2000/svg" xmlns:xlink="http://www.w3.org/1999/xlink">
<title>Moslty Cloudy Day</title>
<desc>Created using Figma</desc>
<g id="Canvas" transform="translate(-529 -1076)">
<g id="Page 1">
<g id="Fill 1">
<use xlink:href="#path0_fill" transform="translate(540.06 1081.23)" fill="#000000"/>
</g>
<g id="Fill 3">
<use xlink:href="#path1_fill" transform="translate(529 1082.5)" fill="#000000"/>
</g>
<g id="Fill 5">
<use xlink:href="#path2_fill" transform="translate(549.833 1086.05)" fill="#000000"/>
</g>
<g id="Fill 7">
<use xlink:href="#path3_fill" transform="translate(541.928 1076)" fill="#000000"/>
</g>
<g id="Fill 9">
<use xlink:href="#path4_fill" transform="translate(535.19 1078.76)" fill="#000000"/>
</g>
<g id="Fill 11">
<use xlink:href="#path5_fill" transform="translate(547.773 1078.83)" fill="#000000"/>
</g>
</g>
</g>
<defs>
<path id="path0_fill" fill-rule="evenodd" d="M 0.687 1.07947C 0.909 1.2006 1.113 1.35087 1.3275 1.4904C 1.7685 1.33093 2.241 1.24353 2.7285 1.24353C 4.6665 1.24353 6.2865 2.60053 6.7695 4.42673C 6.9795 4.49573 7.1865 4.5724 7.3905 4.66287C 7.6275 4.76713 7.863 4.88827 8.0955 5.02627C 7.839 2.21567 5.5425 0 2.7285 0C 1.752 0 0.819 0.2944 0 0.7866C 0.2295 0.886267 0.468 0.962933 0.687 1.07947"/>
<path id="path1_fill" fill-rule="evenodd" d="M 15.7545 14.2968C 14.2965 14.2968 12.9645 13.5715 12.153 12.3679C 10.9605 13.5976 9.34348 14.2968 7.62898 14.2968C 4.12198 14.2968 1.26898 11.3789 1.26898 7.79545C 1.26898 4.21052 4.12198 1.29565 7.62898 1.29565C 8.13748 1.29565 8.63398 1.35852 9.11248 1.47812C 9.51898 1.57779 9.91048 1.72039 10.2855 1.89825C 11.895 2.66032 13.164 4.08785 13.707 5.86652C 14.3355 5.52765 15.033 5.34825 15.7545 5.34825C 16.4565 5.34825 17.1135 5.52152 17.7 5.81899C 18.078 6.01219 18.4215 6.25599 18.726 6.54425C 19.5915 7.36305 20.136 8.52685 20.136 9.82252C 20.136 12.2897 18.168 14.2968 15.7545 14.2968L 15.7545 14.2968ZM 19.128 5.20567C 18.771 4.93733 18.39 4.7012 17.976 4.5218C 17.2935 4.22127 16.5435 4.05413 15.7545 4.05413C 15.408 4.05413 15.054 4.08787 14.7105 4.15227L 14.4135 4.209L 14.2665 3.94527C 13.929 3.34113 13.515 2.783 13.0245 2.28313C 12.4755 1.72193 11.856 1.25733 11.187 0.895467C 10.7895 0.682333 10.3785 0.506 9.9525 0.368C 9.2085 0.127267 8.4285 0 7.629 0C 5.5935 0 3.6765 0.812667 2.2335 2.28313C 0.7935 3.75513 0 5.7132 0 7.79547C 0 9.87773 0.7935 11.8343 2.2335 13.3078C 3.6765 14.7783 5.5935 15.5909 7.629 15.5909C 9.114 15.5909 10.554 15.157 11.7855 14.3336L 12.036 14.168L 12.273 14.3566C 13.275 15.1647 14.4795 15.5909 15.7545 15.5909C 18.87 15.5909 21.402 13.0027 21.402 9.82253C 21.402 7.93347 20.5035 6.25907 19.128 5.20567L 19.128 5.20567Z"/>
<path id="path2_fill" fill-rule="evenodd" d="M 2.6115 0L 0.5535 0C 0.246 0 0 0.259133 0 0.578067C 0 0.895467 0.246 1.1546 0.5535 1.1546L 2.6115 1.1546C 2.9175 1.1546 3.1665 0.895467 3.1665 0.578067C 3.1665 0.259133 2.9175 0 2.6115 0"/>
<path id="path3_fill" fill-rule="evenodd" d="M 0.768005 3.30782C 1.07551 3.28329 1.30051 3.00576 1.27501 2.68989L 1.10851 0.530955C 1.08301 0.213555 0.817505 -0.0241116 0.513005 0.00195507C 0.211505 0.0249551 -0.0209947 0.304022 0.00150534 0.621422L 0.171005 2.77882C 0.193505 3.09469 0.466505 3.33389 0.768005 3.30782"/>
<path id="path4_fill" fill-rule="evenodd" d="M 2.45552 2.50683C 2.67452 2.2845 2.66702 1.92417 2.44952 1.70183L 0.949518 0.171566C 0.729018 -0.0538343 0.375018 -0.0584343 0.157518 0.165432C -0.0539824 0.383166 -0.0539824 0.748099 0.166518 0.971966L 1.66652 2.50223C 1.88402 2.72763 2.23952 2.72763 2.45552 2.50683"/>
<path id="path5_fill" fill-rule="evenodd" d="M 0.144564 2.43194C 0.356064 2.66347 0.707064 2.6742 0.933564 2.45954L 2.48906 0.987538C 2.72006 0.769805 2.73656 0.411005 2.52506 0.177938C 2.32106 -0.0489953 1.96556 -0.061262 1.73606 0.154938L 0.180564 1.6254C -0.0459358 1.84007 -0.0609358 2.20654 0.144564 2.43194"/>
</defs>
</svg>
