<svg width="24" height="25" viewBox="0 0 24 25" version="1.1" xmlns="http://www.w3.org/2000/svg" xmlns:xlink="http://www.w3.org/1999/xlink">
<title>Partly Cloudy Night</title>
<desc>Created using Figma</desc>
<g id="Canvas" transform="translate(-529 -1112)">
<g id="Page 1">
<g id="Fill 1">
<use xlink:href="#path0_fill" transform="translate(529 1124.48)" fill="#000000"/>
</g>
<g id="Fill 3">
<use xlink:href="#path1_fill" transform="translate(533.434 1112)" fill="#000000"/>
</g>
</g>
</g>
<defs>
<path id="path0_fill" fill-rule="evenodd" d="M 9.0945 9.33092L 8.9955 9.17951L 8.8725 9.31104C 8.022 10.2103 6.8925 10.7104 5.688 10.7104C 3.2205 10.7104 1.2135 8.59527 1.2135 5.99374C 1.2135 3.39374 3.2205 1.27856 5.688 1.27856C 5.7375 1.27856 5.784 1.28315 5.8335 1.28468C 6.432 1.30609 7.008 1.45445 7.536 1.70986C 8.673 2.25892 9.579 3.29586 9.963 4.59739L 10.0125 4.77327L 10.17 4.68609C 10.6065 4.44139 11.0955 4.31292 11.592 4.31292C 12.696 4.31292 13.662 4.94151 14.1915 5.87598C 14.451 6.32868 14.607 6.85633 14.622 7.42068C 14.622 7.45127 14.6265 7.48033 14.6265 7.51245C 14.6265 8.49127 14.205 9.36762 13.545 9.95492C 13.3065 10.1675 13.0335 10.3419 12.7395 10.4719C 12.384 10.6233 11.9985 10.7104 11.592 10.7104C 10.5945 10.7104 9.657 10.1935 9.0945 9.33092L 9.0945 9.33092ZM 15.837 7.51247C 15.837 7.37635 15.8295 7.23718 15.8175 7.10412C 15.771 6.55506 15.6255 6.03965 15.411 5.564C 14.7195 4.07129 13.2675 3.03588 11.592 3.03588C 11.328 3.03588 11.064 3.06341 10.806 3.11541L 10.692 3.13835L 10.6365 3.03282C 10.3845 2.56788 10.071 2.13659 9.711 1.75576C 8.9985 1.00635 8.13 0.484824 7.185 0.215647C 6.7005 0.0764706 6.201 0 5.688 0C 5.673 0 5.661 0.00152941 5.646 0.00152941C 4.1415 0.0122353 2.7315 0.634706 1.6695 1.75576C 0.591 2.88906 0 4.394 0 5.99376C 0 7.59353 0.591 9.09847 1.6665 10.2318C 2.7435 11.3651 4.17 11.9875 5.688 11.9875C 6.795 11.9875 7.869 11.6541 8.787 11.0209L 8.883 10.9582L 8.97 11.0301C 9.7245 11.6556 10.629 11.9875 11.592 11.9875C 11.9865 11.9875 12.369 11.9248 12.729 11.8178C 13.17 11.6893 13.5825 11.492 13.953 11.2335C 15.087 10.426 15.837 9.06176 15.837 7.51247L 15.837 7.51247Z"/>
<path id="path1_fill" fill-rule="evenodd" d="M 19.0936 15.1319C 18.8011 14.6899 18.2776 14.4544 17.7616 14.5278C 17.7151 14.5339 17.6701 14.5431 17.6236 14.5569C 17.3656 14.6226 17.1031 14.6746 16.8406 14.7113C 12.5896 15.3262 8.64011 12.2979 8.03711 7.96205C 7.75511 5.92946 8.24711 3.89076 9.42611 2.22064C 9.75461 1.74652 9.76661 1.09958 9.44561 0.614756C 9.15011 0.175815 8.62811 -0.0612437 8.11361 0.0136975C 8.06711 0.0213446 8.02061 0.030521 7.97711 0.0427563C 3.10361 1.26782 -0.139391 5.75817 0.00460869 10.767C 0.396109 10.6982 0.793609 10.6538 1.19711 10.6508L 1.21211 10.6508L 1.23311 10.6508C 1.13861 6.26287 3.99761 2.34146 8.27111 1.26629L 8.63411 1.17605L 8.41811 1.48499C 7.05611 3.42123 6.48461 5.78417 6.81011 8.13946C 7.50911 13.1651 12.0856 16.6736 17.0161 15.9609C 17.3161 15.9181 17.6236 15.8584 17.9221 15.7835L 18.2851 15.6902L 18.0661 15.9991C 16.8481 17.7304 15.1411 18.9402 13.1821 19.5321C 13.1926 19.685 13.2031 19.841 13.2031 19.997C 13.2031 20.2845 13.1821 20.569 13.1446 20.8489C 15.5311 20.2279 17.6101 18.8117 19.0711 16.7378C 19.4071 16.2606 19.4146 15.6152 19.0936 15.1319"/>
</defs>
</svg>
