<svg width="24" height="24" viewBox="0 0 24 24" version="1.1" xmlns="http://www.w3.org/2000/svg" xmlns:xlink="http://www.w3.org/1999/xlink">
<title>Partly Cloudy Day</title>
<desc>Created using Figma</desc>
<g id="Canvas" transform="translate(-529 -1151)">
<g id="Page 1">
<g id="Group 3">
<mask id="mask0_outline" mask-type="alpha">
<g id="Clip 2">
<use xlink:href="#path0_fill" transform="translate(540.519 1151)" fill="#000000"/>
</g>
</mask>
<g id="Fill 1" mask="url(#mask0_outline)">
<use xlink:href="#path1_fill" transform="translate(540.519 1151)" fill="#000000"/>
</g>
</g>
<g id="Fill 4">
<use xlink:href="#path2_fill" transform="translate(549.23 1162.87)" fill="#000000"/>
</g>
<g id="Fill 6">
<use xlink:href="#path3_fill" transform="translate(546.678 1154.48)" fill="#000000"/>
</g>
<g id="Fill 8">
<use xlink:href="#path4_fill" transform="translate(546.678 1169.24)" fill="#000000"/>
</g>
<g id="Fill 10">
<use xlink:href="#path5_fill" transform="translate(532.399 1154.48)" fill="#000000"/>
</g>
<g id="Fill 12">
<use xlink:href="#path6_fill" transform="translate(534.885 1156.82)" fill="#000000"/>
</g>
<g id="Fill 14">
<use xlink:href="#path7_fill" transform="translate(529 1163.24)" fill="#000000"/>
</g>
</g>
</g>
<defs>
<path id="path0_fill" fill-rule="evenodd" d="M 1.33227e-15 0L 1.5 0L 1.5 3.89835L 0 3.89835L 0 0L 1.33227e-15 0Z"/>
<path id="path1_fill" fill-rule="evenodd" d="M 0.4995 3.8985C 0.777 3.8985 1.0005 3.666 1.0005 3.378L 1.0005 0.519C 1.0005 0.2325 0.777 0 0.4995 0C 0.222 0 0 0.2325 0 0.519L 0 3.378C 0 3.666 0.222 3.8985 0.4995 3.8985"/>
<path id="path2_fill" fill-rule="evenodd" d="M 3.27 0L 0.4995 0C 0.2235 0 0 0.231 0 0.519C 0 0.804 0.2235 1.0365 0.4995 1.0365L 3.27 1.0365C 3.5475 1.0365 3.7695 0.804 3.7695 0.519C 3.7695 0.231 3.5475 0 3.27 0"/>
<path id="path3_fill" fill-rule="evenodd" d="M 0.8565 2.90887L 2.814 0.885375C 3.0105 0.684375 3.0105 0.354375 2.814 0.151875C 2.619 -0.050625 2.298 -0.050625 2.103 0.151875L 0.1485 2.17688C -0.0495 2.37788 -0.0495 2.70637 0.1485 2.90887C 0.3405 3.11137 0.6615 3.11137 0.8565 2.90887"/>
<path id="path4_fill" fill-rule="evenodd" d="M 0.8565 0.151875C 0.6615 -0.050625 0.3405 -0.050625 0.1485 0.151875C -0.0495 0.352875 -0.0495 0.682875 0.1485 0.885375L 2.103 2.90887C 2.298 3.10987 2.619 3.10838 2.814 2.90738C 3.0105 2.70638 3.0105 2.37787 2.814 2.17537L 0.8565 0.151875Z"/>
<path id="path5_fill" fill-rule="evenodd" d="M 2.10375 2.90887C 2.30025 3.11287 2.61975 3.11137 2.81475 2.90887C 3.00975 2.70637 3.00975 2.37788 2.81475 2.17688L 0.85725 0.151875C 0.66225 -0.050625 0.34275 -0.050625 0.14625 0.151875C -0.04875 0.354375 -0.04875 0.684375 0.14625 0.885375L 2.10375 2.90887Z"/>
<path id="path6_fill" fill-rule="evenodd" d="M 6.1335 1.2885C 8.955 1.2885 11.2425 3.6525 11.2425 6.57C 11.2425 7.857 10.782 9.0165 10.0395 9.9315C 10.3215 10.26 10.563 10.6275 10.77 11.019C 11.8245 9.8505 12.489 8.298 12.489 6.57C 12.489 2.9415 9.645 0 6.1335 0C 3.1725 0 0.705 2.103 0 4.9365C 0.4305 4.947 0.849 5.004 1.2555 5.0895C 1.8795 2.898 3.813 1.2885 6.1335 1.2885"/>
<path id="path7_fill" fill-rule="evenodd" d="M 9.1005 9.15753L 9.003 9.00903L 8.8785 9.13803C 8.0295 10.0215 6.897 10.5105 5.6925 10.5105C 3.222 10.5105 1.2135 8.43453 1.2135 5.88153C 1.2135 3.33003 3.222 1.25403 5.6925 1.25403C 5.742 1.25403 5.7885 1.25703 5.838 1.26003C 6.4365 1.28103 7.014 1.42653 7.542 1.67853C 8.679 2.21703 9.585 3.23403 9.972 4.51053L 10.0215 4.68453L 10.179 4.59903C 10.6125 4.35903 11.1045 4.23153 11.601 4.23153C 12.7065 4.23153 13.6725 4.84953 14.202 5.76603C 14.463 6.21153 14.6175 6.72753 14.6325 7.28253C 14.6325 7.31253 14.6355 7.34103 14.6355 7.37253C 14.6355 8.33403 14.217 9.19353 13.554 9.77103C 13.317 9.97953 13.0455 10.1505 12.75 10.2765C 12.393 10.4265 12.0075 10.5105 11.601 10.5105C 10.6005 10.5105 9.6645 10.005 9.1005 9.15753L 9.1005 9.15753ZM 15.8505 7.3725C 15.8505 7.239 15.843 7.1025 15.831 6.972C 15.7845 6.4335 15.639 5.9265 15.4215 5.46C 14.73 3.996 13.2795 2.9775 11.601 2.9775C 11.3355 2.9775 11.07 3.0045 10.812 3.057L 10.701 3.0795L 10.644 2.976C 10.3935 2.5185 10.08 2.097 9.7185 1.7235C 9.0045 0.987 8.136 0.4755 7.188 0.21C 6.7065 0.0735 6.2055 0 5.6925 0C 5.676 0 5.664 0.0015 5.6505 0.0015C 4.1445 0.0105 2.733 0.6225 1.668 1.7235C 0.5925 2.8335 0 4.3125 0 5.8815C 0 7.452 0.5925 8.9295 1.668 10.0425C 2.745 11.154 4.1745 11.7645 5.6925 11.7645C 6.801 11.7645 7.875 11.4375 8.793 10.8165L 8.889 10.755L 8.976 10.8255C 9.7305 11.439 10.6365 11.7645 11.601 11.7645C 11.9955 11.7645 12.378 11.7045 12.741 11.5995C 13.179 11.472 13.593 11.2785 13.9605 11.025C 15.0975 10.2315 15.8505 8.8935 15.8505 7.3725L 15.8505 7.3725Z"/>
</defs>
</svg>
