<svg width="20" height="23" viewBox="0 0 20 23" version="1.1" xmlns="http://www.w3.org/2000/svg" xmlns:xlink="http://www.w3.org/1999/xlink">
<title>Clear</title>
<desc>Created using Figma</desc>
<g id="Canvas" transform="translate(-530 -1188)">
<g id="Page 1">
<use xlink:href="#path0_fill" transform="translate(530 1188)" fill="#000000"/>
</g>
</g>
<defs>
<path id="path0_fill" fill-rule="evenodd" d="M 10.3483 1.35409C 5.211 1.88166 1.33606 6.23297 1.33606 11.4741C 1.33606 17.0818 5.83933 21.6473 11.3723 21.6473C 14.1353 21.6473 16.7096 20.5289 18.6244 18.502L 18.9024 18.2073L 18.501 18.249C 18.1719 18.2821 17.8358 18.3008 17.5067 18.3008C 12.1354 18.3008 7.7683 13.8718 7.7683 8.42803C 7.7683 5.87647 8.7271 3.45572 10.4717 1.60853L 10.7483 1.31384L 10.3483 1.35409ZM 11.3724 23C 5.10324 23 0 17.8279 0 11.4741C 0 5.53581 4.39122 0.605187 10.2122 0.0071875C 10.2604 0.002875 10.3143 0 10.3625 0C 10.9256 0 11.4475 0.330625 11.6972 0.842375C 11.9681 1.40587 11.8617 2.09156 11.4362 2.54294C 9.93132 4.13856 9.10442 6.22725 9.10442 8.42806C 9.10442 13.1244 12.8716 16.9467 17.5067 16.9467C 17.7918 16.9467 18.0798 16.9323 18.3649 16.9007C 18.4159 16.8949 18.467 16.8935 18.518 16.8935C 19.0797 16.8935 19.6031 17.2241 19.8499 17.7388C 20.1222 18.3008 20.0172 18.9836 19.5903 19.4393C 17.4188 21.735 14.5055 23 11.3724 23L 11.3724 23Z"/>
</defs>
</svg>
