<svg width="24" height="26" viewBox="0 0 24 26" version="1.1" xmlns="http://www.w3.org/2000/svg" xmlns:xlink="http://www.w3.org/1999/xlink">
<title>Scattered Thunderstorm Sunny</title>
<desc>Created using Figma</desc>
<g id="Canvas" transform="translate(-529 -1472)">
<g id="Page 1">
<g id="Fill 1">
<use xlink:href="#path0_fill" transform="translate(532.873 1488.69)" fill="#000000"/>
</g>
<g id="Group 5">
<g id="Fill 3">
<use xlink:href="#path1_fill" transform="translate(535.528 1488.71)" fill="#000000"/>
</g>
</g>
<g id="Fill 6">
<use xlink:href="#path2_fill" transform="translate(539.648 1488.93)" fill="#000000"/>
</g>
<g id="Group 10">
<mask id="mask0_outline" mask-type="alpha">
<g id="Clip 9">
<use xlink:href="#path3_fill" transform="translate(549.545 1481.97)" fill="#000000"/>
</g>
</mask>
<g id="Fill 8" mask="url(#mask0_outline)">
<use xlink:href="#path4_fill" transform="translate(549.545 1481.97)" fill="#000000"/>
</g>
</g>
<g id="Fill 11">
<use xlink:href="#path5_fill" transform="translate(541.854 1472)" fill="#000000"/>
</g>
<g id="Fill 13">
<use xlink:href="#path6_fill" transform="translate(534.949 1474.74)" fill="#000000"/>
</g>
<g id="Fill 15">
<use xlink:href="#path7_fill" transform="translate(547.479 1474.72)" fill="#000000"/>
</g>
<g id="Fill 17">
<use xlink:href="#path8_fill" transform="translate(538.878 1477.15)" fill="#000000"/>
</g>
<g id="Fill 19">
<use xlink:href="#path9_fill" transform="translate(529 1479.18)" fill="#000000"/>
</g>
</g>
</g>
<defs>
<path id="path0_fill" fill-rule="evenodd" d="M 3.319 0.0597862C 3.6262 0.206036 3.7622 0.584661 3.6198 0.904786L 1.1718 6.28354C 1.031 6.60041 0.662999 6.73691 0.355799 6.59229C 0.0501994 6.44441 -0.0858006 6.06416 0.0565994 5.74729L 2.5014 0.366911C 2.647 0.0516612 3.0134 -0.0897138 3.319 0.0597862"/>
<path id="path1_fill" fill-rule="evenodd" d="M 4.41983 0.0600824C 4.72543 0.206332 4.86143 0.586582 4.71743 0.906707L 1.17503 8.91796C 1.03423 9.23483 0.663031 9.37296 0.354231 9.22671C 0.050231 9.07721 -0.085769 8.70021 0.056631 8.38171L 3.60063 0.365582C 3.74463 0.0503324 4.11263 -0.0894176 4.41983 0.0600824"/>
<path id="path2_fill" fill-rule="evenodd" d="M 4.07919 0.0596435C 4.38639 0.205893 4.51759 0.584518 4.37519 0.899768L 1.17679 8.32602C 1.03439 8.64289 0.663188 8.77939 0.355988 8.63314C 0.0487876 8.48527 -0.0840124 8.10989 0.0551876 7.79302L 3.26159 0.365143C 3.40079 0.0482685 3.76879 -0.0882315 4.07919 0.0596435"/>
<path id="path3_fill" fill-rule="evenodd" d="M 3.15776 2.88658e-15L 3.15776 1.625L 0 1.625L 0 0L 3.15776 0L 3.15776 2.88658e-15Z"/>
<path id="path4_fill" fill-rule="evenodd" d="M 2.6048 0L 0.5536 0C 0.2448 0 0 0.258375 0 0.57525C 0 0.888875 0.2448 1.14562 0.5536 1.14562L 2.6048 1.14562C 2.9072 1.14562 3.1584 0.888875 3.1584 0.57525C 3.1584 0.258375 2.9072 0 2.6048 0"/>
<path id="path5_fill" fill-rule="evenodd" d="M 0.5568 3.28575C 0.8608 3.28575 1.1072 3.029 1.1072 2.71375L 1.1072 0.56875C 1.1072 0.255125 0.8608 0 0.5568 0C 0.2544 0 0 0.255125 0 0.56875L 0 2.71375C 0 3.029 0.2544 3.28575 0.5568 3.28575"/>
<path id="path6_fill" fill-rule="evenodd" d="M 2.44861 2.482C 2.66621 2.26425 2.65821 1.90675 2.44061 1.68575L 0.946214 0.169623C 0.725414 -0.0546267 0.375014 -0.0562517 0.157414 0.163123C -0.0537861 0.380873 -0.0537861 0.741623 0.165414 0.960998L 1.66141 2.47875C 1.87901 2.70137 2.23261 2.70137 2.44861 2.482"/>
<path id="path7_fill" fill-rule="evenodd" d="M 0.162205 2.50218C 0.383005 2.72155 0.735005 2.71505 0.949405 2.49242L 2.43101 0.958425C 2.64861 0.730925 2.6486 0.37505 2.4278 0.1573C 2.2118 -0.0572 1.8582 -0.052325 1.6406 0.171925L 0.160605 1.70267C -0.055395 1.92692 -0.052195 2.2893 0.162205 2.50218"/>
<path id="path8_fill" fill-rule="evenodd" d="M 1.1216 2.15963C 1.8288 1.5535 2.7248 1.20575 3.6752 1.20575C 5.8992 1.20575 7.7072 3.07938 7.7072 5.382C 7.7072 5.486 7.6912 5.58513 7.6848 5.68913C 7.7968 5.759 7.9136 5.81425 8.024 5.889C 8.288 6.06287 8.512 6.30175 8.7504 6.526C 8.8288 6.15063 8.8752 5.772 8.8752 5.382C 8.8752 2.41313 6.5424 0 3.6752 0C 2.2704 0 0.9616 0.61425 0 1.62013C 0.3088 1.73875 0.624 1.86062 0.8992 2.01012C 0.976 2.05562 1.0464 2.11413 1.1216 2.15963"/>
<path id="path9_fill" fill-rule="evenodd" d="M 18.3104 5.49738C 18.0288 5.18863 17.72 4.914 17.3744 4.67837C 16.552 4.1145 15.5696 3.78625 14.5152 3.78625C 14.192 3.78625 13.8672 3.81713 13.5488 3.87888L 13.2768 3.92925L 13.1424 3.68225C 12.832 3.11838 12.448 2.59675 11.9984 2.13363C 11.4976 1.61525 10.936 1.18462 10.3296 0.84825C 9.9744 0.654875 9.6032 0.495625 9.2224 0.368875C 8.5232 0.128375 7.7856 0 7.0272 0C 5.1488 0 3.3872 0.758875 2.0608 2.13363C 0.7296 3.50675 0 5.33163 0 7.27675C 0 9.217 0.7296 11.0451 2.0608 12.4199C 2.1472 12.5109 2.2528 12.5726 2.344 12.6604L 3.0896 11.7569C 1.9104 10.647 1.1664 9.05288 1.1664 7.27675C 1.1664 3.9325 3.7952 1.209 7.0272 1.209C 9.6 1.209 11.8752 2.97375 12.6224 5.47788C 13.2048 5.161 13.8496 4.99038 14.5152 4.99038C 16.7376 4.99038 18.5472 6.86563 18.5472 9.16988C 18.5472 10.6275 17.816 11.9048 16.72 12.6523L 17.4144 13.6159C 18.7984 12.6474 19.7152 11.0208 19.7152 9.16988C 19.7152 7.75125 19.1776 6.46263 18.3104 5.49738"/>
</defs>
</svg>
