<svg width="24" height="23" viewBox="0 0 24 23" version="1.1" xmlns="http://www.w3.org/2000/svg" xmlns:xlink="http://www.w3.org/1999/xlink">
<title>Thunderstorm</title>
<desc>Created using Figma</desc>
<g id="Canvas" transform="translate(-529 -216)">
<g id="Page 1">
<g id="Fill 1">
<use xlink:href="#path0_fill" transform="translate(531.872 226.871)" fill="#000000"/>
</g>
<g id="Fill 3">
<use xlink:href="#path1_fill" transform="translate(534.324 226.596)" fill="#000000"/>
</g>
<g id="Fill 5">
<use xlink:href="#path2_fill" transform="translate(541.637 228.658)" fill="#000000"/>
</g>
<g id="Fill 7">
<use xlink:href="#path3_fill" transform="translate(537.74 226.609)" fill="#000000"/>
</g>
<g id="Group 11">
<mask id="mask0_outline" mask-type="alpha">
<g id="Clip 10">
<use xlink:href="#path4_fill" transform="translate(529.001 216.412)" fill="#000000"/>
</g>
</mask>
<g id="Fill 9" mask="url(#mask0_outline)">
<use xlink:href="#path5_fill" transform="translate(529.001 216.412)" fill="#000000"/>
</g>
</g>
</g>
</g>
<defs>
<path id="path0_fill" fill-rule="evenodd" d="M 4.26516 0.0617539C 4.60866 0.212813 4.75566 0.603871 4.59966 0.934224L 1.30716 7.65987C 1.15116 7.98599 0.738661 8.12858 0.398161 7.97611C 0.0531606 7.82505 -0.0938394 7.43399 0.0621606 7.10505L 3.35466 0.379401C 3.51516 0.0518715 3.92166 -0.0921285 4.26516 0.0617539"/>
<path id="path1_fill" fill-rule="evenodd" d="M 5.67269 0.0611431C 6.01619 0.212202 6.16469 0.604673 6.00569 0.932202L 1.30919 10.7849C 1.14869 11.1124 0.740694 11.255 0.395694 11.1026C 0.0551942 10.9501 -0.0963058 10.5604 0.0641942 10.2315L 4.76369 0.37879C 4.91969 0.0512608 5.32919 -0.0913275 5.67269 0.0611431"/>
<path id="path2_fill" fill-rule="evenodd" d="M 5.03321 0.0620122C 5.37671 0.213071 5.52521 0.60413 5.36921 0.931659L 1.30871 9.36413C 1.14521 9.69307 0.740213 9.83566 0.395213 9.68319C 0.0577126 9.53213 -0.0967873 9.14107 0.0637127 8.81213L 4.12421 0.378247C 4.28321 0.0507181 4.68971 -0.0918702 5.03321 0.0620122"/>
<path id="path3_fill" fill-rule="evenodd" d="M 6.14466 0.0617539C 6.48816 0.212813 6.63666 0.603872 6.47766 0.929989L 1.30716 12.0109C 1.15116 12.3399 0.738661 12.481 0.398161 12.3286C 0.0531606 12.1761 -0.0938394 11.7879 0.0621606 11.4589L 5.23566 0.379401C 5.39166 0.0518715 5.80116 -0.0921285 6.14466 0.0617539"/>
<path id="path4_fill" fill-rule="evenodd" d="M 1.6263e-19 0L 23.9994 0L 23.9994 16.0386L 0 16.0386L 1.6263e-19 0Z"/>
<path id="path5_fill" fill-rule="evenodd" d="M 17.6685 4.25082C 17.274 4.25082 16.878 4.28329 16.491 4.35247L 16.161 4.41318L 15.999 4.13647C 15.621 3.50259 15.15 2.91671 14.6025 2.39435C 12.99 0.849882 10.8375 0 8.5545 0C 6.267 0 4.119 0.849882 2.502 2.39435C 0.888 3.936 0 5.99012 0 8.17129C 0 10.0433 0.654 11.8122 1.857 13.2551L 2.532 11.8052C 1.8315 10.752 1.4175 9.51106 1.4175 8.17129C 1.4175 4.41459 4.62 1.35671 8.5545 1.35671C 11.6865 1.35671 14.4495 3.34024 15.366 6.15106C 16.074 5.79529 16.8525 5.60753 17.6685 5.60753C 20.376 5.60753 22.5765 7.71106 22.5765 10.2974C 22.5765 11.8955 21.735 13.3031 20.4495 14.1487L 19.5705 16.0391C 22.128 15.2626 24 12.9939 24 10.2974C 24 6.96282 21.156 4.25082 17.6685 4.25082"/>
</defs>
</svg>
