<svg width="24" height="26" viewBox="0 0 24 26" version="1.1" xmlns="http://www.w3.org/2000/svg" xmlns:xlink="http://www.w3.org/1999/xlink">
<title>Scattered Showers</title>
<desc>Created using Figma</desc>
<g id="Canvas" transform="translate(-529 -1529)">
<g id="Page 1">
<g id="Fill 1">
<use xlink:href="#path0_fill" transform="translate(549.688 1539.4)" fill="#000000"/>
</g>
<g id="Group 5">
<mask id="mask0_outline" mask-type="alpha">
<g id="Clip 4">
<use xlink:href="#path1_fill" transform="translate(541.942 1529.59)" fill="#000000"/>
</g>
</mask>
<g id="Fill 3" mask="url(#mask0_outline)">
<use xlink:href="#path2_fill" transform="translate(541.942 1529.59)" fill="#000000"/>
</g>
</g>
<g id="Fill 6">
<use xlink:href="#path3_fill" transform="translate(534.988 1532.29)" fill="#000000"/>
</g>
<g id="Fill 8">
<use xlink:href="#path4_fill" transform="translate(547.609 1532.26)" fill="#000000"/>
</g>
<g id="Fill 10">
<use xlink:href="#path5_fill" transform="translate(538.946 1534.65)" fill="#000000"/>
</g>
<g id="Fill 12">
<use xlink:href="#path6_fill" transform="translate(529 1536.66)" fill="#000000"/>
</g>
<g id="Fill 14">
<use xlink:href="#path7_fill" transform="translate(535.452 1545.2)" fill="#000000"/>
</g>
</g>
</g>
<defs>
<path id="path0_fill" fill-rule="evenodd" d="M 2.624 0L 0.5552 0C 0.2496 0 0 0.250941 0 0.562235C 0 0.871941 0.2496 1.12447 0.5552 1.12447L 2.624 1.12447C 2.9296 1.12447 3.1808 0.871941 3.1808 0.562235C 3.1808 0.250941 2.9296 0 2.624 0"/>
<path id="path1_fill" fill-rule="evenodd" d="M 8.52651e-15 0L 1.6 0L 1.6 3.23301L 0 3.23301L 0 0L 8.52651e-15 0Z"/>
<path id="path2_fill" fill-rule="evenodd" d="M 0.5584 3.23365C 0.8656 3.23365 1.1168 2.97953 1.1168 2.67141L 1.1168 0.559059C 1.1168 0.249353 0.8656 0 0.5584 0C 0.2544 0 0 0.249353 0 0.559059L 0 2.67141C 0 2.97953 0.2544 3.23365 0.5584 3.23365"/>
<path id="path3_fill" fill-rule="evenodd" d="M 2.46581 2.44392C 2.68661 2.22633 2.67861 1.87692 2.46101 1.65933L 0.953814 0.166387C 0.733014 -0.0527893 0.377814 -0.0559657 0.158614 0.160034C -0.0541862 0.374446 -0.0541862 0.728622 0.166614 0.947799L 1.67381 2.43756C 1.89301 2.65833 2.24981 2.65833 2.46581 2.44392"/>
<path id="path4_fill" fill-rule="evenodd" d="M 0.165405 2.46264C 0.384605 2.67864 0.739805 2.67228 0.957405 2.45152L 2.44701 0.944285C 2.66621 0.720344 2.66621 0.370932 2.44541 0.154932C 2.22941 -0.0563035 1.8694 -0.0515388 1.6502 0.169226L 0.162205 1.67646C -0.0553951 1.89723 -0.0537951 2.25299 0.165405 2.46264"/>
<path id="path5_fill" fill-rule="evenodd" d="M 1.1296 2.12506C 1.8416 1.52947 2.7424 1.18641 3.7024 1.18641C 5.9408 1.18641 7.7632 3.03035 7.7632 5.29835C 7.7632 5.40159 7.7472 5.49847 7.7376 5.60171C 7.8496 5.66682 7.9696 5.72241 8.08 5.79865C 8.3456 5.97018 8.5712 6.20047 8.8096 6.42282C 8.8928 6.05594 8.9376 5.67953 8.9376 5.29835C 8.9376 2.376 6.5904 0 3.7024 0C 2.288 0 0.9696 0.605118 0 1.59459C 0.3088 1.71212 0.6288 1.83124 0.904 1.97894C 0.9824 2.025 1.0544 2.08059 1.1296 2.12506"/>
<path id="path6_fill" fill-rule="evenodd" d="M 18.4368 5.41112C 18.1552 5.10618 17.8416 4.83618 17.496 4.60271C 16.6688 4.05159 15.6784 3.72441 14.616 3.72441C 14.2912 3.72441 13.9632 3.75618 13.6432 3.81494L 13.368 3.86576L 13.2336 3.62276C 12.9216 3.06688 12.5344 2.55547 12.08 2.09806C 11.576 1.58982 11.008 1.16576 10.4 0.833824C 10.0432 0.641647 9.6688 0.486 9.2864 0.360529C 8.5808 0.125471 7.8384 0 7.0752 0C 5.1872 0 3.408 0.744882 2.0704 2.09806C 0.7344 3.45124 0 5.24753 0 7.16294C 0 9.07359 0.7344 10.8715 2.0704 12.2246C 2.1616 12.3152 2.2672 12.3787 2.3616 12.4629L 3.1088 11.5703C 1.9216 10.4776 1.1744 8.91 1.1744 7.16294C 1.1744 3.87053 3.8176 1.19118 7.0752 1.19118C 9.6672 1.19118 11.9552 2.92553 12.712 5.39047C 13.296 5.07759 13.9456 4.914 14.616 4.914C 16.8544 4.914 18.6752 6.75794 18.6752 9.02277C 18.6752 10.4601 17.9408 11.7196 16.8368 12.4549L 17.536 13.3999C 18.9296 12.4486 19.8544 10.8476 19.8544 9.02277C 19.8544 7.62829 19.312 6.36088 18.4368 5.41112"/>
<path id="path7_fill" fill-rule="evenodd" d="M 6.0368 4.86159L 3.2624 0L 0.4784 4.86159C 0.1776 5.35235 0 5.93841 0 6.55465C 0 8.343 1.4608 9.79465 3.2624 9.79465C 5.0624 9.79465 6.5232 8.343 6.5232 6.55465C 6.5232 5.93841 6.3472 5.35235 6.0368 4.86159"/>
</defs>
</svg>
