<svg width="24" height="26" viewBox="0 0 24 26" version="1.1" xmlns="http://www.w3.org/2000/svg" xmlns:xlink="http://www.w3.org/1999/xlink">
<title>Scattered Snow Showers</title>
<desc>Created using Figma</desc>
<g id="Canvas" transform="translate(-529 -1600)">
<g id="Page 1">
<g id="Group 3">
<mask id="mask0_outline" mask-type="alpha">
<g id="Clip 2">
<use xlink:href="#path0_fill" transform="translate(549.562 1610.34)" fill="#000000"/>
</g>
</mask>
<g id="Fill 1" mask="url(#mask0_outline)">
<use xlink:href="#path1_fill" transform="translate(549.562 1610.34)" fill="#000000"/>
</g>
</g>
<g id="Group 6">
<mask id="mask1_outline" mask-type="alpha">
<g id="Clip 5">
<use xlink:href="#path2_fill" transform="translate(541.867 1600.59)" fill="#000000"/>
</g>
</mask>
<g id="Fill 4" mask="url(#mask1_outline)">
<use xlink:href="#path3_fill" transform="translate(541.867 1600.59)" fill="#000000"/>
</g>
</g>
<g id="Fill 7">
<use xlink:href="#path4_fill" transform="translate(534.954 1603.27)" fill="#000000"/>
</g>
<g id="Fill 9">
<use xlink:href="#path5_fill" transform="translate(547.497 1603.25)" fill="#000000"/>
</g>
<g id="Fill 11">
<use xlink:href="#path6_fill" transform="translate(538.888 1605.62)" fill="#000000"/>
</g>
<g id="Fill 13">
<use xlink:href="#path7_fill" transform="translate(533.651 1615.77)" fill="#000000"/>
</g>
<g id="Fill 15">
<use xlink:href="#path8_fill" transform="translate(529 1607.61)" fill="#000000"/>
</g>
</g>
</g>
<defs>
<path id="path0_fill" fill-rule="evenodd" d="M 3.15936 0L 3.15936 1.58824L 0 1.58824L 0 1.41064e-14L 3.15936 1.41064e-14L 3.15936 0Z"/>
<path id="path1_fill" fill-rule="evenodd" d="M 2.608 0L 0.552 0C 0.2448 0 0 0.250941 0 0.562235C 0 0.868765 0.2448 1.11971 0.552 1.11971L 2.608 1.11971C 2.912 1.11971 3.16 0.868765 3.16 0.562235C 3.16 0.250941 2.912 0 2.608 0"/>
<path id="path2_fill" fill-rule="evenodd" d="M 1.13687e-14 0L 1.6 0L 1.6 3.21221L 0 3.21221L 0 2.82127e-15L 1.13687e-14 0Z"/>
<path id="path3_fill" fill-rule="evenodd" d="M 0.5536 3.213C 0.8592 3.213 1.1056 2.96365 1.1056 2.65553L 1.1056 0.557471C 1.1056 0.249353 0.8592 0 0.5536 0C 0.2512 0 0 0.249353 0 0.557471L 0 2.65553C 0 2.96365 0.2512 3.213 0.5536 3.213"/>
<path id="path4_fill" fill-rule="evenodd" d="M 2.45021 2.42823C 2.66781 2.21382 2.65981 1.86599 2.44221 1.64682L 0.947814 0.163404C 0.728614 -0.0525965 0.375014 -0.0541847 0.157414 0.157051C -0.0537861 0.371462 -0.0537861 0.722462 0.165414 0.940051L 1.65981 2.42187C 1.88061 2.64264 2.23421 2.64264 2.45021 2.42823"/>
<path id="path5_fill" fill-rule="evenodd" d="M 0.162205 2.44834C 0.383005 2.66434 0.735005 2.65481 0.949405 2.43723L 2.4294 0.93952C 2.6502 0.717167 2.6502 0.367755 2.4278 0.154932C 2.215 -0.0563035 1.8582 -0.0515388 1.6406 0.169226L 0.160605 1.66693C -0.055395 1.88611 -0.052195 2.2387 0.162205 2.44834"/>
<path id="path6_fill" fill-rule="evenodd" d="M 1.1216 2.11235C 1.8288 1.51994 2.7248 1.17847 3.6768 1.17847C 5.9008 1.17847 7.712 3.01129 7.712 5.26341C 7.712 5.36665 7.696 5.46512 7.688 5.56676C 7.8016 5.63347 7.92 5.68588 8.0288 5.76053C 8.2912 5.93206 8.52 6.16394 8.7552 6.38312C 8.8368 6.01782 8.88 5.64618 8.88 5.26341C 8.88 2.36012 6.5472 0 3.6768 0C 2.272 0 0.9616 0.601941 0 1.58506C 0.3072 1.701 0.6208 1.82012 0.8992 1.96624C 0.976 2.01071 1.0464 2.06788 1.1216 2.11235"/>
<path id="path7_fill" fill-rule="evenodd" d="M 5.0624 10.2251C 4.7376 10.2251 4.4736 9.95665 4.4736 9.63106L 4.4736 6.55147L 2.32 8.72894C 2.208 8.84012 2.0576 8.90524 1.8992 8.90524C 1.744 8.90524 1.5904 8.84012 1.4816 8.72576C 1.3728 8.613 1.3104 8.46847 1.3104 8.30965C 1.3104 8.14447 1.3696 8.00312 1.4784 7.89035L 3.6432 5.70653L 0.5936 5.70653C 0.2688 5.70653 0 5.43971 0 5.11412C 0 4.78376 0.2688 4.51694 0.5936 4.51694L 3.6432 4.51694L 1.4816 2.33153C 1.3696 2.22194 1.3104 2.07424 1.3104 1.917C 1.3104 1.755 1.3696 1.61206 1.4816 1.50088C 1.5904 1.38653 1.7408 1.32459 1.8992 1.32459C 2.0576 1.32459 2.208 1.38494 2.32 1.49771L 4.4736 3.66882L 4.4736 0.595588C 4.4736 0.265235 4.7376 0 5.0624 0C 5.3904 0 5.6528 0.265235 5.6528 0.595588L 5.6528 3.66882L 7.8032 1.49612C 7.9232 1.38335 8.0704 1.32141 8.2256 1.32141C 8.3824 1.32141 8.5328 1.38335 8.6448 1.49453C 8.7568 1.60888 8.816 1.755 8.816 1.917C 8.816 2.07424 8.7504 2.22353 8.6432 2.33312L 6.4864 4.51694L 9.536 4.51694C 9.8608 4.51694 10.1248 4.78376 10.1248 5.11412C 10.1248 5.43971 9.8608 5.70653 9.536 5.70653L 6.4864 5.70653L 8.6448 7.89035C 8.7536 8.00629 8.816 8.15082 8.816 8.30647C 8.816 8.46212 8.7536 8.613 8.6448 8.72576C 8.5328 8.84012 8.3856 8.90524 8.2256 8.90524C 8.0704 8.90524 7.92 8.84171 7.8032 8.72894L 5.6528 6.55147L 5.6528 9.63106C 5.6528 9.95665 5.3904 10.2251 5.0624 10.2251"/>
<path id="path8_fill" fill-rule="evenodd" d="M 18.3248 5.37935C 18.0448 5.076 17.7344 4.806 17.3888 4.57571C 16.5664 4.02618 15.584 3.70376 14.5264 3.70376C 14.2048 3.70376 13.88 3.73553 13.5616 3.79271L 13.2896 3.84353L 13.1552 3.60212C 12.8448 3.04941 12.4592 2.54118 12.008 2.08694C 11.5072 1.57871 10.9456 1.15782 10.3376 0.829059C 9.984 0.640059 9.6096 0.484412 9.2288 0.360529C 8.5296 0.125471 7.792 0 7.0336 0C 5.1552 0 3.3888 0.741706 2.0592 2.08694C 0.7328 3.43059 0 5.21735 0 7.11847C 0 9.018 0.7328 10.8048 2.0592 12.1516C 2.1504 12.2405 2.2544 12.3025 2.3472 12.3866L 3.0912 11.5004C 1.912 10.4141 1.1664 8.856 1.1664 7.11847C 1.1664 3.84671 3.7968 1.18482 7.0336 1.18482C 9.6096 1.18482 11.8848 2.90965 12.6336 5.35712C 13.2176 5.04741 13.8624 4.88382 14.5264 4.88382C 16.752 4.88382 18.5632 6.71665 18.5632 8.96876C 18.5632 10.395 17.832 11.6465 16.7344 12.3771L 17.4288 13.3174C 18.8144 12.3724 19.7328 10.7825 19.7328 8.96876C 19.7328 7.58223 19.1952 6.32276 18.3248 5.37935"/>
</defs>
</svg>
