<svg width="24" height="26" viewBox="0 0 24 26" version="1.1" xmlns="http://www.w3.org/2000/svg" xmlns:xlink="http://www.w3.org/1999/xlink">
<title>Scattered Showers Night</title>
<desc>Created using Figma</desc>
<g id="Canvas" transform="translate(-529 -1707)">
<g id="Page 1">
<g id="Fill 1">
<use xlink:href="#path0_fill" transform="translate(535.366 1723.11)" fill="#000000"/>
</g>
<g id="Fill 3">
<use xlink:href="#path1_fill" transform="translate(537.574 1707)" fill="#000000"/>
</g>
<g id="Fill 5">
<use xlink:href="#path2_fill" transform="translate(529 1714.41)" fill="#000000"/>
</g>
</g>
</g>
<defs>
<path id="path0_fill" fill-rule="evenodd" d="M 5.9664 4.90912L 3.2224 0L 0.4752 4.90912C 0.176 5.40475 0 5.99625 0 6.62025C 0 8.42725 1.4432 9.893 3.2224 9.893C 5 9.893 6.4432 8.42725 6.4432 6.62025C 6.4432 5.99625 6.2704 5.40475 5.9664 4.90912"/>
<path id="path1_fill" fill-rule="evenodd" d="M 14.4272 9.06306C 14.1264 8.76731 13.6928 8.66981 13.3008 8.80468C 13.2672 8.81768 13.2336 8.83068 13.1968 8.84368C 13.0304 8.92331 12.8512 8.99643 12.672 9.05656C 9.8 10.0494 6.6512 8.51706 5.6528 5.64406C 5.1856 4.29856 5.256 2.84418 5.8512 1.54743C 6.04 1.13143 5.9504 0.640684 5.6256 0.318934C 5.3264 0.024809 4.888 -0.075941 4.5008 0.058934C 4.4624 0.075184 4.4304 0.088184 4.3968 0.099559C 1.8384 1.28743 0.2464 3.69893 0 6.34118C 0.3584 6.40456 0.7104 6.48581 1.056 6.59956C 1.0624 6.60281 1.0672 6.60606 1.072 6.60768C 1.2352 4.26768 2.6384 2.11943 4.8592 1.09243C 4.176 2.58256 4.0384 4.32781 4.6208 5.99993C 5.8144 9.44656 9.584 11.2779 13.0304 10.0884C 13.248 10.0121 13.456 9.92918 13.6592 9.83818C 13.1472 10.9481 12.1632 12.0336 11.1056 12.7258C 11.3264 13.0134 11.4512 13.3579 11.6016 13.6943C 12.8208 12.9094 14.0272 11.6484 14.6512 10.2899C 14.8384 9.87556 14.7504 9.38643 14.4272 9.06306"/>
<path id="path2_fill" fill-rule="evenodd" d="M 18.1952 5.35112C 17.9168 5.05212 17.6096 4.78237 17.2672 4.55487C 16.4496 4.00562 15.4752 3.6855 14.4256 3.6855C 14.104 3.6855 13.7824 3.71638 13.464 3.77325L 13.1952 3.82525L 13.0624 3.58313C 12.7552 3.0355 12.3696 2.5285 11.9248 2.07512C 11.4272 1.57137 10.8672 1.1505 10.264 0.8255C 9.9136 0.635375 9.5424 0.482625 9.1632 0.355875C 8.4704 0.1235 7.7376 0 6.984 0C 5.12 0 3.3632 0.736125 2.0464 2.07512C 0.7264 3.41575 0 5.19187 0 7.08337C 0 8.97325 0.7264 10.7526 2.0464 12.0933C 2.1344 12.1843 2.2384 12.2444 2.3328 12.3289L 3.0704 11.4465C 1.8992 10.3675 1.16 8.81725 1.16 7.08337C 1.16 3.82687 3.7696 1.17813 6.984 1.17813C 9.5424 1.17813 11.8016 2.89412 12.5456 5.33162C 13.1248 5.0245 13.7632 4.862 14.4256 4.862C 16.6336 4.862 18.432 6.68362 18.432 8.92775C 18.432 10.348 17.7072 11.5944 16.6144 12.3208L 17.3072 13.2568C 18.6832 12.3143 19.592 10.7315 19.592 8.92775C 19.592 7.54487 19.0592 6.29037 18.1952 5.35112"/>
</defs>
</svg>
