<svg width="24" height="26" viewBox="0 0 24 26" version="1.1" xmlns="http://www.w3.org/2000/svg" xmlns:xlink="http://www.w3.org/1999/xlink">
<title>Scattered Snow Showers Night</title>
<desc>Created using Figma</desc>
<g id="Canvas" transform="translate(-529 -1763)">
<g id="Page 1">
<g id="Fill 1">
<use xlink:href="#path0_fill" transform="translate(533.384 1778.68)" fill="#000000"/>
</g>
<g id="Group 5">
<g id="Fill 3">
<use xlink:href="#path1_fill" transform="translate(537.513 1763)" fill="#000000"/>
</g>
</g>
<g id="Fill 6">
<use xlink:href="#path2_fill" transform="translate(529 1770.35)" fill="#000000"/>
</g>
</g>
</g>
<defs>
<path id="path0_fill" fill-rule="evenodd" d="M 4.9936 10.322C 4.672 10.322 4.4096 10.0506 4.4096 9.72237L 4.4096 6.617L 2.288 8.80912C 2.1744 8.9245 2.0288 8.9895 1.872 8.9895C 1.7152 8.9895 1.568 8.9245 1.456 8.80587C 1.352 8.69537 1.2928 8.54913 1.2928 8.38825C 1.2928 8.2225 1.3488 8.0795 1.4544 7.96575L 3.592 5.76062L 0.5808 5.76062C 0.264 5.76062 0 5.4925 0 5.16262C 0 4.8295 0.264 4.56138 0.5808 4.56138L 3.592 4.56138L 1.4592 2.35625C 1.352 2.24413 1.2928 2.09625 1.2928 1.93537C 1.2928 1.77287 1.3488 1.62987 1.456 1.51612C 1.568 1.40237 1.7136 1.339 1.872 1.339C 2.0288 1.339 2.176 1.39912 2.288 1.51287L 4.4096 3.705L 4.4096 0.602875C 4.4096 0.268125 4.672 0 4.9936 0C 5.3136 0 5.5744 0.268125 5.5744 0.602875L 5.5744 3.70662L 7.6944 1.51287C 7.8128 1.39912 7.96 1.33575 8.112 1.33575C 8.2688 1.33575 8.4144 1.39912 8.5248 1.50962C 8.6352 1.62662 8.6944 1.77287 8.6944 1.93537C 8.6944 2.09462 8.6272 2.24575 8.5216 2.35788L 6.3936 4.56138L 9.4032 4.56138C 9.7248 4.56138 9.984 4.8295 9.984 5.16262C 9.984 5.4925 9.7248 5.76062 9.4032 5.76062L 6.3936 5.76062L 8.5248 7.96575C 8.632 8.08113 8.6944 8.229 8.6944 8.385C 8.6944 8.53938 8.632 8.69537 8.5264 8.80587C 8.416 8.9245 8.2688 8.9895 8.112 8.9895C 7.9584 8.9895 7.8096 8.92612 7.6944 8.80912L 5.5744 6.617L 5.5744 9.72237C 5.5744 10.0506 5.3136 10.322 4.9936 10.322"/>
<path id="path1_fill" fill-rule="evenodd" d="M 14.3168 8.99576C 14.0176 8.70001 13.5888 8.60251 13.1968 8.73901C 13.1648 8.74876 13.1328 8.76339 13.096 8.77639C 12.9312 8.85601 12.752 8.92589 12.576 8.98926C 9.7232 9.97401 6.5984 8.45301 5.608 5.60276C 5.144 4.26701 5.2128 2.82076 5.8048 1.53376C 5.992 1.12101 5.9024 0.635136 5.5824 0.316636C 5.2848 0.0241359 4.848 -0.0749891 4.4624 0.0582609C 4.4256 0.0712609 4.3936 0.0858859 4.3616 0.0988859C 1.8208 1.27376 0.24 3.67064 0 6.29176C 0.3504 6.35514 0.7024 6.43639 1.0448 6.55176C 1.0528 6.55176 1.0576 6.55664 1.0624 6.55826C 1.2224 4.23126 2.616 2.10251 4.8176 1.08201C 4.1424 2.56076 4.0064 4.29464 4.584 5.95539C 5.7696 9.37601 9.5072 11.1928 12.9312 10.013C 13.1488 9.93826 13.352 9.85539 13.552 9.76114C 13.0464 10.8645 12.0688 11.9419 11.0192 12.6293C 11.2384 12.912 11.3616 13.2581 11.512 13.5913C 12.7216 12.8145 13.9216 11.56 14.5392 10.2113C 14.7264 9.80014 14.6368 9.31264 14.3168 8.99576"/>
<path id="path2_fill" fill-rule="evenodd" d="M 18.0608 5.31537C 17.784 5.01637 17.4784 4.74988 17.1376 4.52238C 16.3264 3.97963 15.3584 3.66112 14.3168 3.66112C 13.9984 3.66112 13.6784 3.69038 13.3648 3.74725L 13.096 3.79763L 12.9616 3.56037C 12.6576 3.016 12.2784 2.51062 11.8336 2.06212C 11.3408 1.56162 10.7856 1.14725 10.1888 0.820625C 9.8384 0.63375 9.472 0.479375 9.096 0.3575C 8.4064 0.12675 7.6784 0 6.9312 0C 5.08 0 3.3408 0.736125 2.0304 2.06212C 0.7184 3.38975 0 5.15613 0 7.03625C 0 8.9115 0.7184 10.6762 2.0304 12.0071C 2.1168 12.0965 2.2224 12.1583 2.312 12.2411L 3.0464 11.3652C 1.8832 10.2927 1.152 8.75388 1.152 7.03625C 1.152 3.80413 3.7424 1.17 6.9312 1.17C 9.4688 1.17 11.712 2.87788 12.4496 5.29588C 13.0256 4.98875 13.6608 4.82788 14.3168 4.82788C 16.5088 4.82788 18.2944 6.63813 18.2944 8.866C 18.2944 10.2749 17.5744 11.5115 16.4928 12.2314L 17.1776 13.1609C 18.5408 12.2265 19.4464 10.6535 19.4464 8.866C 19.4464 7.49288 18.9152 6.24812 18.0608 5.31537"/>
</defs>
</svg>
