<svg width="24" height="25" viewBox="0 0 24 25" version="1.1" xmlns="http://www.w3.org/2000/svg" xmlns:xlink="http://www.w3.org/1999/xlink">
<title>Freezing Rain Night</title>
<desc>Created using Figma</desc>
<g id="Canvas" transform="translate(-529 -1811)">
<g id="Group 2">
<g id="Page 1">
<g id="Fill 1">
<use xlink:href="#path0_fill" transform="translate(532.665 1830.93)" fill="#000000"/>
</g>
<g id="Group 5">
<mask id="mask0_outline" mask-type="alpha">
<g id="Clip 4">
<use xlink:href="#path1_fill" transform="translate(529 1817.82)" fill="#000000"/>
</g>
</mask>
<g id="Fill 3" mask="url(#mask0_outline)">
<use xlink:href="#path2_fill" transform="translate(529 1817.82)" fill="#000000"/>
</g>
</g>
<g id="Fill 6">
<use xlink:href="#path3_fill" transform="translate(534.478 1824.64)" fill="#000000"/>
</g>
<g id="Fill 8">
<use xlink:href="#path4_fill" transform="translate(538.806 1828.57)" fill="#000000"/>
</g>
</g>
<g id="Page 1">
<use xlink:href="#path5_fill" transform="translate(538.143 1811)" fill="#000000"/>
</g>
</g>
</g>
<defs>
<path id="path0_fill" fill-rule="evenodd" d="M 3.37257 1.67841C 3.37257 2.60341 2.62057 3.35455 1.68343 3.35455C 0.754286 3.35455 0 2.60341 0 1.67841C 0 0.751136 0.754286 0 1.68343 0C 2.62057 0 3.37257 0.751136 3.37257 1.67841"/>
<path id="path1_fill" fill-rule="evenodd" d="M 1.23909e-19 0L 18.3471 0L 18.3471 12.0256L 0 12.0256L 1.23909e-19 0Z"/>
<path id="path2_fill" fill-rule="evenodd" d="M 18.3435 7.6925C 18.2372 5.05386 15.988 2.99136 13.332 3.09591C 13.0338 3.10841 12.7343 3.14932 12.4406 3.21409L 12.1903 3.26977L 12.0578 3.05614C 11.7492 2.56636 11.3766 2.11636 10.94 1.7175C 9.66233 0.547046 7.99948 -0.0620452 6.25891 0.00500023C 4.51948 0.0743184 2.91148 0.812955 1.72976 2.08227C 0.549192 3.35386 -0.0633795 5.005 0.00519189 6.73227C 0.0737633 8.46068 0.816621 10.055 2.09433 11.2277C 2.42805 11.5345 2.78805 11.7993 3.16748 12.0266L 3.57548 11.005C 2.14005 10.0834 1.15948 8.51068 1.08633 6.69023C 0.967478 3.71523 3.30691 1.20045 6.30233 1.08227C 8.68633 0.989091 10.8566 2.47205 11.6418 4.66864C 12.1686 4.36523 12.7572 4.19364 13.3743 4.16864C 15.436 4.08795 17.18 5.68682 17.2623 7.73455C 17.3195 9.14932 16.5663 10.413 15.4143 11.0834L 15.3983 11.1266L 15.9949 11.9845C 17.4589 11.1152 18.4155 9.50159 18.3435 7.6925"/>
<path id="path3_fill" fill-rule="evenodd" d="M 4.66514 2.32045C 4.66514 3.60114 3.62057 4.63977 2.33486 4.63977C 1.04343 4.63977 0 3.60114 0 2.32045C 0 1.03864 1.04343 0 2.33486 0C 3.62057 0 4.66514 1.03864 4.66514 2.32045"/>
<path id="path4_fill" fill-rule="evenodd" d="M 4.51771 3.64091L 2.44229 0L 0.36 3.64091C 0.132571 4.01023 0 4.45 0 4.91136C 0 6.25227 1.09371 7.33977 2.44229 7.33977C 3.78629 7.33977 4.88 6.25227 4.88 4.91136C 4.88 4.45 4.74857 4.01023 4.51771 3.64091"/>
<path id="path5_fill" fill-rule="evenodd" d="M 14.5331 8.94009C 14.2294 8.64617 13.7941 8.54927 13.3962 8.68493C 13.3637 8.69462 13.3312 8.70915 13.2938 8.72207C 13.1266 8.8012 12.9446 8.87065 12.766 8.93363C 9.87009 9.91228 6.69808 8.4007 5.69272 5.56809C 5.22171 4.2406 5.29155 2.8033 5.89249 1.52427C 6.08252 1.11407 5.99157 0.631205 5.66674 0.314676C 5.36464 0.0239865 4.92124 -0.074525 4.52981 0.0579003C 4.49246 0.0708199 4.45998 0.0853544 4.42749 0.0982739C 1.84831 1.26588 0.243626 3.64792 0 6.25282C 0.355694 6.31581 0.713011 6.39655 1.06058 6.51121C 1.0687 6.51121 1.07358 6.51606 1.07845 6.51767C 1.24087 4.20508 2.65552 2.0895 4.89038 1.07531C 4.20498 2.54491 4.06693 4.26806 4.65325 5.91853C 5.85676 9.31799 9.65083 11.1235 13.1266 9.95104C 13.3474 9.87676 13.5537 9.79439 13.7567 9.70073C 13.2435 10.7973 12.2511 11.868 11.1857 12.5511C 11.4082 12.8321 11.5332 13.1761 11.6859 13.5071C 12.9138 12.7352 14.1319 11.4885 14.7588 10.1481C 14.9489 9.73949 14.8579 9.255 14.5331 8.94009"/>
</defs>
</svg>
