<svg width="24" height="25" viewBox="0 0 24 25" version="1.1" xmlns="http://www.w3.org/2000/svg" xmlns:xlink="http://www.w3.org/1999/xlink">
<title>Mixed Rain and Snow</title>
<desc>Created using Figma</desc>
<g id="Canvas" transform="translate(-529 -252)">
<g id="Page 1">
<g id="Fill 1">
<use xlink:href="#path0_fill" transform="translate(543.803 267.765)" fill="#000000"/>
</g>
<g id="Fill 3">
<use xlink:href="#path1_fill" transform="translate(533.538 262.57)" fill="#000000"/>
</g>
<g id="Group 7">
<mask id="mask0_outline" mask-type="alpha">
<g id="Clip 6">
<use xlink:href="#path2_fill" transform="translate(529 252.5)" fill="#000000"/>
</g>
</mask>
<g id="Fill 5" mask="url(#mask0_outline)">
<use xlink:href="#path3_fill" transform="translate(528.999 252.5)" fill="#000000"/>
</g>
</g>
</g>
</g>
<defs>
<path id="path0_fill" fill-rule="evenodd" d="M 5.3445 4.3335L 2.886 0L 0.4245 4.3335C 0.156 4.7745 0 5.2965 0 5.847C 0 7.443 1.2915 8.736 2.886 8.736C 4.482 8.736 5.772 7.443 5.772 5.847C 5.772 5.2965 5.619 4.7745 5.3445 4.3335"/>
<path id="path1_fill" fill-rule="evenodd" d="M 4.9395 10.05C 4.62 10.05 4.362 9.7875 4.362 9.4665L 4.362 6.441L 2.2665 8.577C 2.1555 8.6895 2.0085 8.7525 1.848 8.7525C 1.701 8.7525 1.5525 8.688 1.4415 8.5755C 1.341 8.4675 1.2825 8.322 1.2825 8.1675C 1.2825 8.0055 1.341 7.866 1.4385 7.7565L 3.5535 5.6085L 0.582 5.6085C 0.2625 5.6085 0 5.3475 0 5.0265C 0 4.704 0.2625 4.4415 0.582 4.4415L 3.5535 4.4415L 1.446 2.2935C 1.341 2.1855 1.2825 2.043 1.2825 1.884C 1.2825 1.728 1.341 1.5855 1.4415 1.476C 1.5525 1.3635 1.698 1.302 1.848 1.302C 2.0085 1.302 2.1555 1.362 2.2665 1.4715L 4.362 3.6075L 4.362 0.5865C 4.362 0.2625 4.62 0 4.9395 0C 5.2605 0 5.5155 0.2625 5.5155 0.5865L 5.5155 3.6075L 7.608 1.47C 7.728 1.3605 7.872 1.299 8.0265 1.299C 8.1765 1.299 8.325 1.3605 8.4315 1.47C 8.5395 1.5825 8.598 1.7235 8.598 1.884C 8.598 2.04 8.5365 2.187 8.4285 2.2935L 6.327 4.4415L 9.2985 4.4415C 9.618 4.4415 9.876 4.704 9.876 5.0265C 9.876 5.3475 9.618 5.6085 9.2985 5.6085L 6.327 5.6085L 8.4315 7.7565C 8.5395 7.869 8.598 8.0115 8.598 8.1645C 8.598 8.316 8.5395 8.4675 8.4345 8.5755C 8.325 8.6895 8.1765 8.7525 8.0265 8.7525C 7.872 8.7525 7.725 8.691 7.608 8.577L 5.5155 6.441L 5.5155 9.4665C 5.5155 9.7875 5.2605 10.05 4.9395 10.05"/>
<path id="path2_fill" fill-rule="evenodd" d="M 8.13152e-20 15.4515L 8.13152e-20 0L 23.9994 0L 23.9994 15.4515L 0 15.4515L 8.13152e-20 15.4515Z"/>
<path id="path3_fill" fill-rule="evenodd" d="M 22.5765 10.7655C 22.5765 12.1575 21.99 13.4145 21.0525 14.307L 21.888 15.4515C 23.1795 14.295 24 12.6285 24 10.7655C 24 7.278 21.1605 4.4445 17.6685 4.4445C 17.2785 4.4445 16.878 4.482 16.491 4.551L 16.1655 4.614L 15.999 4.3245C 15.621 3.6615 15.1545 3.048 14.607 2.502C 12.987 0.8895 10.842 0 8.5545 0C 6.2715 0 4.119 0.8895 2.502 2.502C 0.891 4.116 0 6.264 0 8.544C 0 10.827 0.891 12.969 2.502 14.583C 2.505 14.5845 2.505 14.586 2.508 14.5875L 3.3255 13.368C 2.1495 12.0975 1.4205 10.4085 1.4205 8.544C 1.4205 4.6155 4.62 1.4205 8.5545 1.4205C 11.6865 1.4205 14.4525 3.4905 15.366 6.429C 16.0725 6.057 16.857 5.8605 17.6685 5.8605C 20.373 5.8605 22.5765 8.061 22.5765 10.7655"/>
</defs>
</svg>
