<svg width="23" height="23" viewBox="0 0 23 23" version="1.1" xmlns="http://www.w3.org/2000/svg" xmlns:xlink="http://www.w3.org/1999/xlink">
<title>Freezing Drizzle</title>
<desc>Created using Figma</desc>
<g id="Canvas" transform="translate(-529 -357)">
<g id="Page 1">
<g id="Fill 1">
<use xlink:href="#path0_fill" transform="translate(533.528 373.703)" fill="#000000"/>
</g>
<g id="Group 5">
<mask id="mask0_outline" mask-type="alpha">
<g id="Clip 4">
<use xlink:href="#path1_fill" transform="translate(529 357.412)" fill="#000000"/>
</g>
</mask>
<g id="Fill 3" mask="url(#mask0_outline)">
<use xlink:href="#path2_fill" transform="translate(529 357.411)" fill="#000000"/>
</g>
</g>
<g id="Fill 6">
<use xlink:href="#path3_fill" transform="translate(535.767 365.891)" fill="#000000"/>
</g>
<g id="Fill 8">
<use xlink:href="#path4_fill" transform="translate(541.113 370.767)" fill="#000000"/>
</g>
</g>
</g>
<defs>
<path id="path0_fill" fill-rule="evenodd" d="M 4.16612 2.08518C 4.16612 3.23435 3.23718 4.16753 2.07953 4.16753C 0.931765 4.16753 0 3.23435 0 2.08518C 0 0.933177 0.931765 0 2.07953 0C 3.23718 0 4.16612 0.933177 4.16612 2.08518"/>
<path id="path1_fill" fill-rule="evenodd" d="M 1.53064e-19 0L 22.6641 0L 22.6641 14.94L 0 14.94L 1.53064e-19 0Z"/>
<path id="path2_fill" fill-rule="evenodd" d="M 22.6596 9.5568C 22.5283 6.27868 19.7499 3.71633 16.469 3.84621C 16.1005 3.86174 15.7306 3.91256 15.3678 3.99304L 15.0586 4.06221L 14.8949 3.7968C 14.5137 3.18833 14.0535 2.62927 13.5142 2.13374C 11.9358 0.679624 9.88171 -0.0770821 7.73159 0.00621205C 5.58288 0.0923297 3.59653 1.00998 2.13677 2.58692C 0.678414 4.16668 -0.0782924 6.21798 0.00641352 8.36386C 0.0911194 10.5112 1.00877 12.4919 2.58712 13.9488C 2.99935 14.33 3.44406 14.6589 3.91277 14.9413L 4.41677 13.6721C 2.64359 12.5272 1.4323 10.5733 1.34194 8.31162C 1.19512 4.61562 4.085 1.49139 7.78524 1.34457C 10.7302 1.2288 13.4111 3.07115 14.381 5.80009C 15.0318 5.42315 15.7589 5.20998 16.5212 5.17892C 19.0681 5.07868 21.2224 7.06504 21.3241 9.60904C 21.3946 11.3667 20.4643 12.9366 19.0412 13.7695L 19.0215 13.8232L 19.7584 14.889C 21.5669 13.809 22.7485 11.8043 22.6596 9.5568"/>
<path id="path3_fill" fill-rule="evenodd" d="M 5.76282 2.88282C 5.76282 4.47388 4.47247 5.76424 2.88424 5.76424C 1.28894 5.76424 0 4.47388 0 2.88282C 0 1.29035 1.28894 0 2.88424 0C 4.47247 0 5.76282 1.29035 5.76282 2.88282"/>
<path id="path4_fill" fill-rule="evenodd" d="M 5.58071 4.52329L 3.01694 0L 0.444706 4.52329C 0.163765 4.98212 0 5.52847 0 6.10165C 0 7.76753 1.35106 9.11859 3.01694 9.11859C 4.67718 9.11859 6.02824 7.76753 6.02824 6.10165C 6.02824 5.52847 5.86588 4.98212 5.58071 4.52329"/>
</defs>
</svg>
